<?xml version="1.0" encoding="UTF-8"?><svg xmlns="http://www.w3.org/2000/svg" xmlns:xlink="http://www.w3.org/1999/xlink" viewBox="0 0 1264.85 175.15"><defs><style>.cls-1{fill:#6a6a6a;}.cls-2{fill:#979797;}.cls-3{fill:#3b0900;}.cls-4{fill:#939393;}.cls-5{fill:url(#linear-gradient-2);}.cls-6{fill:#741300;}.cls-7{fill:url(#New_Gradient_Swatch_4-7);}.cls-8{fill:#3a1724;}.cls-9{fill:#9c9c9c;}.cls-10{fill:#989898;}.cls-11{fill:#5c5c5c;}.cls-12{fill:#5f5f5f;}.cls-13{fill:#733246;}.cls-14{fill:url(#linear-gradient-6);}.cls-15{isolation:isolate;}.cls-16{fill:#959595;}.cls-17{fill:url(#New_Gradient_Swatch_4-2);}.cls-18{fill:url(#New_Gradient_Swatch_4-5);}.cls-19{fill:url(#New_Gradient_Swatch_4-6);}.cls-20{fill:#909090;}.cls-21{fill:#656565;}.cls-22{fill:#696969;}.cls-23{opacity:.45;}.cls-23,.cls-24{mix-blend-mode:color-burn;}.cls-25{fill:#646464;}.cls-26{fill:#929292;}.cls-27{fill:#969696;}.cls-28{fill:#5a5a5a;}.cls-29{fill:#676767;}.cls-30{fill:url(#New_Gradient_Swatch_4);}.cls-31{fill:url(#New_Gradient_Swatch_4-3);}.cls-32{fill:url(#New_Gradient_Swatch_3-2);opacity:.2;}.cls-32,.cls-33{mix-blend-mode:lighten;}.cls-34{fill:url(#linear-gradient-5);}.cls-35{fill:#5d5d5d;}.cls-36{fill:url(#New_Gradient_Swatch_4-8);}.cls-37{fill:url(#New_Gradient_Swatch_4-9);}.cls-38{fill:#636363;}.cls-39{fill:url(#New_Gradient_Swatch_4-11);}.cls-40{fill:#999;}.cls-33{fill:url(#New_Gradient_Swatch_3);opacity:.1;}.cls-41{fill:#9b9b9b;}.cls-42{fill:#9a9a9a;}.cls-24{opacity:.44;}.cls-43{fill:url(#linear-gradient-3);}.cls-44{fill:#949494;}.cls-45{fill:url(#linear-gradient);}.cls-46{fill:url(#New_Gradient_Swatch_4-10);}.cls-47{fill:#686868;}.cls-48{fill:url(#linear-gradient-4);}.cls-49{fill:url(#New_Gradient_Swatch_4-4);}.cls-50{fill:#666;}.cls-51{fill:#5e5e5e;}</style><linearGradient id="linear-gradient" x1="1192.47" y1="160.15" x2="1192.47" y2="129.4" gradientTransform="matrix(1, 0, 0, 1, 0, 0)" gradientUnits="userSpaceOnUse"><stop offset=".07" stop-color="#b03246"/><stop offset=".85" stop-color="#733246"/></linearGradient><linearGradient id="linear-gradient-2" x1="1096.32" y1="160.15" x2="1096.32" y2="129.4" xlink:href="#linear-gradient"/><linearGradient id="linear-gradient-3" x1="1023.57" y1="160.15" x2="1023.57" y2="129.4" xlink:href="#linear-gradient"/><linearGradient id="linear-gradient-4" x1="945.92" y1="160.15" x2="945.92" y2="129.4" xlink:href="#linear-gradient"/><linearGradient id="linear-gradient-5" x1="1079.29" y1="129.4" x2="1079.29" y2="15.26" gradientTransform="matrix(1, 0, 0, 1, 0, 0)" gradientUnits="userSpaceOnUse"><stop offset="0" stop-color="#db97ce"/><stop offset=".5" stop-color="#db97ce"/><stop offset=".5" stop-color="#f1b3c6"/><stop offset="1" stop-color="#edacf9"/></linearGradient><linearGradient id="New_Gradient_Swatch_3" x1="1013.78" y1="185.8" x2="1142.88" y2="-37.8" gradientTransform="matrix(1, 0, 0, 1, 0, 0)" gradientUnits="userSpaceOnUse"><stop offset="0" stop-color="#fff"/><stop offset=".2" stop-color="#fff"/><stop offset=".2" stop-color="#000"/><stop offset=".45" stop-color="#000"/><stop offset=".45" stop-color="#fff"/><stop offset=".7" stop-color="#fff"/><stop offset=".7" stop-color="#000"/><stop offset=".85" stop-color="#000"/><stop offset=".85" stop-color="#fff"/></linearGradient><linearGradient id="New_Gradient_Swatch_4" x1="49.14" y1="160.14" x2="49.14" y2="129.4" gradientTransform="matrix(1, 0, 0, 1, 0, 0)" gradientUnits="userSpaceOnUse"><stop offset=".28" stop-color="#a51300"/><stop offset=".89" stop-color="#741300" stop-opacity="0"/></linearGradient><linearGradient id="New_Gradient_Swatch_4-2" x1="145.29" y1="160.14" x2="145.29" y2="129.4" xlink:href="#New_Gradient_Swatch_4"/><linearGradient id="New_Gradient_Swatch_4-3" x1="193.35" y1="160.14" x2="193.35" y2="129.4" xlink:href="#New_Gradient_Swatch_4"/><linearGradient id="New_Gradient_Swatch_4-4" x1="241.42" y1="160.14" x2="241.42" y2="129.4" xlink:href="#New_Gradient_Swatch_4"/><linearGradient id="New_Gradient_Swatch_4-5" x1="301.51" y1="160.14" x2="301.51" y2="129.4" xlink:href="#New_Gradient_Swatch_4"/><linearGradient id="New_Gradient_Swatch_4-6" x1="373.62" y1="160.14" x2="373.62" y2="129.4" xlink:href="#New_Gradient_Swatch_4"/><linearGradient id="New_Gradient_Swatch_4-7" x1="445.73" y1="160.14" x2="445.73" y2="129.4" xlink:href="#New_Gradient_Swatch_4"/><linearGradient id="New_Gradient_Swatch_4-8" x1="493.81" y1="160.14" x2="493.81" y2="129.4" xlink:href="#New_Gradient_Swatch_4"/><linearGradient id="New_Gradient_Swatch_4-9" x1="565.29" y1="160.14" x2="565.29" y2="129.4" xlink:href="#New_Gradient_Swatch_4"/><linearGradient id="New_Gradient_Swatch_4-10" x1="807.85" y1="160.14" x2="807.85" y2="129.4" xlink:href="#New_Gradient_Swatch_4"/><linearGradient id="New_Gradient_Swatch_4-11" x1="663" y1="160.14" x2="663" y2="129.4" xlink:href="#New_Gradient_Swatch_4"/><linearGradient id="linear-gradient-6" x1="435.2" y1="129.4" x2="435.2" y2="15.26" gradientTransform="matrix(1, 0, 0, 1, 0, 0)" gradientUnits="userSpaceOnUse"><stop offset="0" stop-color="#fc9701"/><stop offset=".5" stop-color="#fc9701"/><stop offset=".5" stop-color="#fefd69"/><stop offset=".93" stop-color="#e9c300"/></linearGradient><linearGradient id="New_Gradient_Swatch_3-2" x1="311.04" y1="299.75" x2="568.79" y2="-146.69" xlink:href="#New_Gradient_Swatch_3"/></defs><g class="cls-15"><g id="Layer_2"><g id="F_Dice"><rect class="cls-8" x="1111.03" y="86.77" width="5" height="6"/><path id="Dice_Stroke" class="cls-8" d="M1259.39,91.14h-3.11l2.74-2.94-5.36-42.93h-2.82l2.47-2.85-5.27-42.17h-251.26l-.88,1.71-.12-1.7h-96.54l-18.54,48.33,6.86,126.55h93.03l.79-1.34,.1,1.34h242.54l40.85-40.25-5.47-43.75Zm-145.56,0h-1.32l-.35-3.71h1.3l.38,3.71Z"/><g id="Dice"><g id="Sides"><polygon class="cls-13" points="1162.72 129.4 1135.9 160.15 1124.83 50.98 1150.46 15.26 1162.72 129.4"/><polygon class="cls-13" points="1064.07 129.4 1042.24 160.15 1033.24 50.98 1054.09 15.26 1064.07 129.4"/><polygon class="cls-13" points="1014.74 129.4 995.41 160.15 987.43 50.98 1005.9 15.26 1014.74 129.4"/><polygon class="cls-13" points="963.85 106.14 947.17 137.92 943 72.43 959.23 37.67 963.85 106.14"/><polygon class="cls-13" points="916.09 129.4 901.75 160.14 895.84 50.98 909.54 15.26 916.09 129.4"/></g><g id="Bottom_Up"><polygon class="cls-13" points="1237.59 37.67 1207.52 72.43 1161.51 72.43 1189.17 37.67 1237.59 37.67"/><polygon class="cls-13" points="1243.27 83.1 1212.64 115.89 1166.22 115.89 1194.39 83.1 1243.27 83.1"/><polygon class="cls-13" points="1140.77 37.67 1115.51 72.43 1069.51 72.43 1092.36 37.67 1140.77 37.67"/><polygon class="cls-13" points="959.23 37.67 943 72.43 931.5 72.43 947.13 37.67 959.23 37.67"/><polygon class="cls-13" points="1001.54 117.74 982.91 149 971.24 149 989.24 117.74 1001.54 117.74"/></g><g id="Bottom"><g><polygon class="cls-13" points="1249.05 129.4 1217.86 160.15 1135.9 160.15 1162.72 129.4 1249.05 129.4"/><path class="cls-45" d="M1164.99,134.4h71.86l-21.05,20.74h-68.91l18.1-20.74m-2.27-5l-26.82,30.74h81.96l31.19-30.74h-86.33Z"/></g><g><polygon class="cls-13" points="1150.39 129.4 1124.19 160.15 1042.24 160.15 1064.07 129.4 1150.39 129.4"/><path class="cls-5" d="M1066.65,134.4h72.91l-17.68,20.74h-69.96l14.73-20.74m-2.58-5l-21.83,30.74h81.95l26.2-30.74h-86.32Z"/></g><g><polygon class="cls-13" points="1051.73 129.4 1030.53 160.15 995.41 160.15 1014.74 129.4 1051.73 129.4"/><path class="cls-43" d="M1017.5,134.4h24.71l-14.31,20.74h-23.45l13.04-20.74m-2.76-5l-19.33,30.74h35.12l21.21-30.74h-36.99Z"/></g><g><polygon class="cls-13" points="990.08 129.4 972 160.15 901.75 160.14 916.09 129.4 990.08 129.4"/><path class="cls-48" d="M919.28,134.4h62.06l-12.2,20.74h-59.53l9.68-20.74m-3.18-5l-14.34,30.74h70.24l18.09-30.74h-73.99Z"/></g></g><path id="Face" class="cls-34" d="M1234.79,15.26l2.8,22.41h-48.42l2.6,22.62h48.64l2.85,22.82h-48.87l2.65,23.04h49.1l2.91,23.26h-86.33l-12.26-114.14h84.33Zm-180.7,0l9.98,114.14h86.32l-2.44-23.26h-49.09l-6.5-68.48h48.41l-2.35-22.41h-84.32Zm-48.19,0l8.84,114.14h36.99l-9.7-114.14h-36.14Zm-24.09,0h-72.28l6.56,114.14h73.99l-.84-11.66h12.3l-6.84-91.3h-12.07l-.81-11.18Zm-17.97,90.88h-12.27l-4.45-68.47h12.1l4.62,68.47"/><g id="Face-2" class="cls-23"><g><g class="cls-15"><polygon class="cls-20" points="1249.05 129.4 1162.72 129.4 1166.32 125.4 1244.52 125.4 1249.05 129.4"/><polygon class="cls-11" points="1246.14 106.14 1249.05 129.4 1244.52 125.4 1242.61 110.14 1246.14 106.14"/><polygon class="cls-12" points="1197.04 106.14 1246.14 106.14 1242.61 110.14 1193.47 110.14 1197.04 106.14"/><polygon class="cls-20" points="1243.26 83.1 1194.39 83.1 1189.91 79.1 1238.73 79.1 1243.26 83.1"/><polygon class="cls-11" points="1194.39 83.1 1197.04 106.14 1193.47 110.14 1189.91 79.1 1194.39 83.1"/><polygon class="cls-12" points="1191.77 60.28 1240.41 60.28 1236.88 64.28 1188.21 64.28 1191.77 60.28"/><polygon class="cls-11" points="1240.41 60.28 1243.26 83.1 1238.73 79.1 1236.88 64.28 1240.41 60.28"/><polygon class="cls-11" points="1189.17 37.66 1191.77 60.28 1188.21 64.28 1184.69 33.66 1189.17 37.66"/><polygon class="cls-20" points="1237.59 37.66 1189.17 37.66 1184.69 33.66 1233.05 33.66 1237.59 37.66"/><polygon class="cls-41" points="1162.72 129.4 1150.46 15.26 1154.91 19.26 1166.32 125.4 1162.72 129.4"/><polygon class="cls-11" points="1234.79 15.26 1237.59 37.66 1233.05 33.66 1231.25 19.26 1234.79 15.26"/><polygon class="cls-12" points="1150.46 15.26 1234.79 15.26 1231.25 19.26 1154.91 19.26 1150.46 15.26"/><rect class="cls-38" x="1162.72" y="129.4" width="86.33" height="0"/><rect class="cls-28" x="1247.6" y="106.05" width="0" height="23.44" transform="translate(-4.97 155.65) rotate(-7.12)"/><rect class="cls-38" x="1197.04" y="106.14" width="49.1" height="0" transform="translate(844.59 1272.94) rotate(-77.06)"/><rect class="cls-38" x="1194.39" y="83.1" width="48.87" height="0"/><rect class="cls-28" x="1195.72" y="83.03" width="0" height="23.19" transform="translate(-2.99 137.03) rotate(-6.55)"/><rect class="cls-28" x="1241.84" y="60.19" width="0" height="23" transform="translate(.7 154.58) rotate(-7.12)"/><rect class="cls-38" x="1191.77" y="60.28" width="48.64" height="0" transform="translate(884.98 1231.98) rotate(-77.06)"/><rect class="cls-28" x="1190.47" y="37.59" width="0" height="22.77" transform="translate(2.2 136.32) rotate(-6.56)"/><rect class="cls-38" x="1189.17" y="37.66" width="48.41" height="0"/><rect class="cls-1" x="1156.59" y="14.93" width="0" height="114.8" transform="translate(-1.11 124.01) rotate(-6.13)"/><rect class="cls-28" x="1236.19" y="15.17" width="0" height="22.58" transform="translate(6.26 153.47) rotate(-7.12)"/><rect class="cls-38" x="1192.62" y="-26.9" width="0" height="84.33" transform="translate(16.94 216.13) rotate(-10.43)"/><polygon class="cls-12" points="1244.52 125.4 1249.05 129.4 1162.72 129.4 1166.32 125.4 1244.52 125.4"/><polygon class="cls-20" points="1193.47 110.14 1197.04 106.14 1246.14 106.14 1242.61 110.14 1193.47 110.14"/><polygon class="cls-9" points="1242.61 110.14 1246.14 106.14 1249.05 129.4 1244.52 125.4 1242.61 110.14"/><polygon class="cls-12" points="1238.73 79.1 1243.26 83.1 1194.39 83.1 1189.91 79.1 1238.73 79.1"/><polygon class="cls-41" points="1189.91 79.1 1194.39 83.1 1197.04 106.14 1193.47 110.14 1189.91 79.1"/><polygon class="cls-9" points="1236.88 64.28 1240.41 60.28 1243.26 83.1 1238.73 79.1 1236.88 64.28"/><polygon class="cls-20" points="1188.21 64.28 1191.77 60.28 1240.41 60.28 1236.88 64.28 1188.21 64.28"/><polygon class="cls-41" points="1184.69 33.66 1189.17 37.66 1191.77 60.28 1188.21 64.28 1184.69 33.66"/><polygon class="cls-12" points="1233.05 33.66 1237.59 37.66 1189.17 37.66 1184.69 33.66 1233.05 33.66"/><polygon class="cls-11" points="1166.32 125.4 1162.72 129.4 1150.46 15.26 1154.91 19.26 1166.32 125.4"/><polygon class="cls-9" points="1231.25 19.26 1234.79 15.26 1237.59 37.66 1233.05 33.66 1231.25 19.26"/><polygon class="cls-20" points="1154.91 19.26 1150.46 15.26 1234.79 15.26 1231.25 19.26 1154.91 19.26"/></g><g class="cls-15"><polygon class="cls-20" points="1150.39 129.4 1064.07 129.4 1067.74 125.4 1145.95 125.4 1150.39 129.4"/><polygon class="cls-12" points="1098.86 106.14 1147.95 106.14 1144.35 110.14 1095.22 110.14 1098.86 106.14"/><polygon class="cls-11" points="1147.95 106.14 1150.39 129.4 1145.95 125.4 1144.35 110.14 1147.95 106.14"/><polygon class="cls-20" points="1140.76 37.67 1092.36 37.67 1087.96 33.67 1136.32 33.67 1140.76 37.67"/><polygon class="cls-11" points="1092.36 37.67 1098.86 106.14 1095.22 110.14 1087.96 33.67 1092.36 37.67"/><polygon class="cls-12" points="1054.09 15.26 1138.41 15.26 1134.81 19.26 1058.46 19.26 1054.09 15.26"/><polygon class="cls-11" points="1138.41 15.26 1140.76 37.67 1136.32 33.67 1134.81 19.26 1138.41 15.26"/><polygon class="cls-42" points="1064.07 129.4 1054.09 15.26 1058.46 19.26 1067.74 125.4 1064.07 129.4"/><rect class="cls-38" x="1064.07" y="129.4" width="86.32" height="0"/><rect class="cls-28" x="1149.17" y="106.08" width="0" height="23.38" transform="translate(-6.02 120.5) rotate(-5.99)"/><rect class="cls-38" x="1098.86" y="106.14" width="49.1" height="0" transform="translate(772.99 1178.76) rotate(-77.31)"/><rect class="cls-38" x="1092.36" y="37.67" width="48.4" height="0"/><rect class="cls-28" x="1095.61" y="37.52" width="0" height="68.78" transform="translate(-1.89 103.83) rotate(-5.42)"/><rect class="cls-28" x="1139.59" y="15.2" width="0" height="22.53" transform="translate(3.45 118.95) rotate(-5.98)"/><rect class="cls-22" x="1059.08" y="15.04" width="0" height="114.57" transform="translate(-2.27 92.54) rotate(-5)"/><rect class="cls-38" x="1096.25" y="-26.9" width="0" height="84.32" transform="translate(16.01 202.56) rotate(-10.63)"/><polygon class="cls-12" points="1145.95 125.4 1150.39 129.4 1064.07 129.4 1067.74 125.4 1145.95 125.4"/><polygon class="cls-20" points="1095.22 110.14 1098.86 106.14 1147.95 106.14 1144.35 110.14 1095.22 110.14"/><polygon class="cls-41" points="1144.35 110.14 1147.95 106.14 1150.39 129.4 1145.95 125.4 1144.35 110.14"/><polygon class="cls-12" points="1136.32 33.67 1140.76 37.67 1092.36 37.67 1087.96 33.67 1136.32 33.67"/><polygon class="cls-41" points="1087.96 33.67 1092.36 37.67 1098.86 106.14 1095.22 110.14 1087.96 33.67"/><polygon class="cls-11" points="1067.74 125.4 1064.07 129.4 1054.09 15.26 1058.46 19.26 1067.74 125.4"/><polygon class="cls-20" points="1058.46 19.26 1054.09 15.26 1138.41 15.26 1134.81 19.26 1058.46 19.26"/><polygon class="cls-41" points="1134.81 19.26 1138.41 15.26 1140.76 37.67 1136.32 33.67 1134.81 19.26"/></g><g class="cls-15"><polygon class="cls-20" points="1051.73 129.4 1014.74 129.4 1018.44 125.4 1047.38 125.4 1051.73 129.4"/><polygon class="cls-11" points="1042.04 15.26 1051.73 129.4 1047.38 125.4 1038.37 19.26 1042.04 15.26"/><polygon class="cls-12" points="1005.9 15.26 1042.04 15.26 1038.37 19.26 1010.22 19.26 1005.9 15.26"/><polygon class="cls-42" points="1014.74 129.4 1005.9 15.26 1010.22 19.26 1018.44 125.4 1014.74 129.4"/><rect class="cls-38" x="1014.74" y="129.4" width="37" height="0"/><rect class="cls-22" x="1010.32" y="15.09" width="0" height="114.48" transform="translate(-2.57 78.22) rotate(-4.43)"/><rect class="cls-28" x="1046.89" y="15.06" width="0" height="114.55" transform="translate(-2.37 88.84) rotate(-4.85)"/><rect class="cls-38" x="1023.97" y="-2.81" width="0" height="36.14" transform="translate(15.09 191.05) rotate(-10.74)"/><polygon class="cls-12" points="1047.38 125.4 1051.73 129.4 1014.74 129.4 1018.44 125.4 1047.38 125.4"/><polygon class="cls-42" points="1038.37 19.26 1042.04 15.26 1051.73 129.4 1047.38 125.4 1038.37 19.26"/><polygon class="cls-20" points="1010.22 19.26 1005.9 15.26 1042.04 15.26 1038.37 19.26 1010.22 19.26"/><polygon class="cls-11" points="1018.44 125.4 1014.74 129.4 1005.9 15.26 1010.22 19.26 1018.44 125.4"/></g><g class="cls-15"><polygon class="cls-20" points="990.09 129.4 916.1 129.4 919.87 125.4 985.78 125.4 990.09 129.4"/><polygon class="cls-20" points="1001.53 117.74 989.24 117.74 984.94 113.74 997.22 113.74 1001.53 117.74"/><polygon class="cls-11" points="989.24 117.74 990.09 129.4 985.78 125.4 984.94 113.74 989.24 117.74"/><polygon class="cls-12" points="951.57 106.14 963.85 106.14 968.13 110.14 947.83 110.14 951.57 106.14"/><polygon class="cls-35" points="947.13 37.67 951.57 106.14 947.83 110.14 942.86 33.67 947.13 37.67"/><polygon class="cls-42" points="963.85 106.14 959.23 37.67 962.97 33.67 968.13 110.14 963.85 106.14"/><polygon class="cls-20" points="959.23 37.67 947.13 37.67 942.86 33.67 962.97 33.67 959.23 37.67"/><polygon class="cls-11" points="994.69 26.44 1001.53 117.74 997.22 113.74 990.98 30.44 994.69 26.44"/><polygon class="cls-12" points="982.62 26.44 994.69 26.44 990.98 30.44 978.9 30.44 982.62 26.44"/><polygon class="cls-11" points="981.81 15.26 982.62 26.44 978.9 30.44 978.09 19.26 981.81 15.26"/><polygon class="cls-12" points="909.54 15.26 981.81 15.26 978.09 19.26 913.77 19.26 909.54 15.26"/><polygon class="cls-40" points="916.1 129.4 909.54 15.26 913.77 19.26 919.87 125.4 916.1 129.4"/><rect class="cls-38" x="916.1" y="129.4" width="73.99" height="0"/><rect class="cls-28" x="989.66" y="117.73" width="0" height="11.69" transform="translate(-6.35 71.97) rotate(-4.15)"/><rect class="cls-38" x="989.24" y="117.74" width="12.29" height="0"/><rect class="cls-38" x="951.57" y="106.14" width="12.28" height="0" transform="translate(649.47 1019.09) rotate(-77.67)"/><rect class="cls-22" x="961.54" y="37.59" width="0" height="68.63" transform="translate(-2.66 64.85) rotate(-3.86)"/><rect class="cls-38" x="947.13" y="37.67" width="12.1" height="0"/><rect class="cls-28" x="949.35" y="37.6" width="0" height="68.62" transform="translate(-2.66 61.66) rotate(-3.72)"/><rect class="cls-28" x="998.11" y="26.31" width="0" height="91.56" transform="translate(-2.6 74.77) rotate(-4.28)"/><rect class="cls-38" x="982.62" y="26.44" width="12.07" height="0" transform="translate(750.16 986.26) rotate(-77.58)"/><rect class="cls-28" x="982.22" y="15.25" width="0" height="11.21" transform="translate(1.06 71.03) rotate(-4.14)"/><rect class="cls-22" x="912.82" y="15.17" width="0" height="114.33" transform="translate(-2.65 52.5) rotate(-3.29)"/><rect class="cls-38" x="945.67" y="-20.88" width="0" height="72.28" transform="translate(14.32 179.89) rotate(-10.95)"/><polygon class="cls-12" points="985.78 125.4 990.09 129.4 916.1 129.4 919.87 125.4 985.78 125.4"/><polygon class="cls-42" points="984.94 113.74 989.24 117.74 990.09 129.4 985.78 125.4 984.94 113.74"/><polygon class="cls-12" points="997.22 113.74 1001.53 117.74 989.24 117.74 984.94 113.74 997.22 113.74"/><polygon class="cls-20" points="947.83 110.14 951.57 106.14 963.85 106.14 968.13 110.14 947.83 110.14"/><polygon class="cls-12" points="962.97 33.67 959.23 37.67 947.13 37.67 942.86 33.67 962.97 33.67"/><polygon class="cls-11" points="968.13 110.14 963.85 106.14 959.23 37.67 962.97 33.67 968.13 110.14"/><polygon class="cls-40" points="942.86 33.67 947.13 37.67 951.57 106.14 947.83 110.14 942.86 33.67"/><polygon class="cls-20" points="978.9 30.44 982.62 26.44 994.69 26.44 990.98 30.44 978.9 30.44"/><polygon class="cls-42" points="990.98 30.44 994.69 26.44 1001.53 117.74 997.22 113.74 990.98 30.44"/><polygon class="cls-42" points="978.09 19.26 981.81 15.26 982.62 26.44 978.9 30.44 978.09 19.26"/><polygon class="cls-20" points="913.77 19.26 909.54 15.26 981.81 15.26 978.09 19.26 913.77 19.26"/><polygon class="cls-35" points="919.87 125.4 916.1 129.4 909.54 15.26 913.77 19.26 919.87 125.4"/></g></g></g><path id="Face-3" class="cls-33" d="M1234.79,15.26l2.8,22.41h-48.42l2.6,22.62h48.64l2.85,22.82h-48.87l2.65,23.04h49.1l2.91,23.26h-86.33l-12.26-114.14h84.33Zm-180.7,0l9.98,114.14h86.32l-2.44-23.26h-49.09l-6.5-68.48h48.41l-2.35-22.41h-84.32Zm-48.19,0l8.84,114.14h36.99l-9.7-114.14h-36.14Zm-24.09,0h-72.28l6.56,114.14h73.99l-.84-11.66h12.3l-6.84-91.3h-12.07l-.81-11.18Zm-17.97,90.88h-12.27l-4.45-68.47h12.1l4.62,68.47"/></g><polygon id="Fantasy_Stroke" class="cls-3" points="865.5 45.02 863.48 45.02 865.24 39.35 863.47 0 752.31 0 752.31 0 703.27 0 703.27 0 605.31 0 605.31 0 509.24 0 509.24 0 317.09 0 317.09 0 269.05 0 268.93 1.73 268.04 0 16.84 0 0 134.62 40.88 174.88 95.57 174.88 99.96 135.27 133.75 174.88 283.37 174.88 283.47 173.52 284.27 174.88 342.06 174.88 343.39 153.2 353.53 174.88 412.5 174.88 413.72 149.11 422.62 174.88 482.94 174.88 514.46 174.88 623.83 174.88 624.04 130.63 628.96 130.63 629.06 174.88 692.98 174.88 696.55 130.63 715.36 130.63 717.79 108.8 744.77 108.8 745.33 130.63 746.68 130.63 745.48 136.26 746.48 174.88 853.54 174.88 869.38 131.46 865.5 45.02"/><g id="Fantasy"><g id="Sides-2"><polygon class="cls-6" points="114.55 15.27 140.21 50.98 138.03 72.43 112.14 37.67 114.55 15.27"/><polygon class="cls-6" points="63.75 37.67 92.04 72.43 89.64 94.07 61.09 60.28 63.75 37.67"/><polygon class="cls-6" points="109.71 60.28 135.84 94.07 133.62 115.89 107.26 83.1 109.71 60.28"/><polygon class="cls-6" points="58.41 83.1 87.22 115.89 82.31 160.14 52.96 129.4 58.41 83.1"/><polygon class="cls-6" points="160.55 37.67 184.03 72.43 182.04 94.07 158.34 60.28 160.55 37.67"/><polygon class="cls-6" points="156.12 83.1 180.03 115.89 175.96 160.14 151.6 129.4 156.12 83.1"/><polygon class="cls-6" points="210.91 15.27 231.79 50.98 222.78 160.14 200.92 129.4 210.91 15.27"/><polygon class="cls-6" points="259.09 15.27 277.58 50.98 276.02 72.43 257.35 37.67 259.09 15.27"/><polygon class="cls-6" points="269.45 37.67 287.52 72.43 285.99 94.07 267.76 60.28 269.45 37.67"/><polygon class="cls-6" points="254.71 71.67 273.64 104.95 269.6 160.14 250.23 129.4 254.71 71.67"/><polygon class="cls-6" points="319.31 15.27 334.83 50.98 328.13 160.14 311.89 129.4 319.31 15.27"/><polygon class="cls-6" points="415.67 15.27 426.42 50.98 425.51 72.43 414.66 37.67 415.67 15.27"/><polygon class="cls-6" points="390.46 37.67 402.51 72.43 398.36 160.14 385.87 129.4 390.46 37.67"/><polygon class="cls-6" points="463.06 37.67 471.5 72.43 470.79 94.07 462.27 60.28 463.06 37.67"/><polygon class="cls-6" points="461.47 83.1 470.06 115.89 468.6 160.14 459.85 129.4 461.47 83.1"/><polygon class="cls-6" points="512.03 15.27 518.01 50.98 515.43 160.14 509.17 129.4 512.03 15.27"/><polygon class="cls-6" points="608.39 15.27 609.6 50.98 609.5 72.43 608.28 37.67 608.39 15.27"/><polygon class="cls-6" points="559.87 37.67 563.5 72.43 563.19 94.07 559.53 60.28 559.87 37.67"/><polygon class="cls-6" points="608.16 60.28 609.39 94.07 609.08 160.14 607.81 129.4 608.16 60.28"/><polygon class="cls-6" points="766.85 83.1 760.12 115.89 758.44 50.98 764.99 15.26 766.85 83.1"/><polygon class="cls-6" points="816.57 106.14 807.31 137.92 806.53 115.89 815.71 83.1 816.57 106.14"/><polygon class="cls-6" points="768.12 129.4 761.27 160.14 760.69 137.92 767.48 106.14 768.12 129.4"/><polygon class="cls-6" points="717.19 37.67 712.99 72.43 712.64 50.98 716.8 15.26 717.19 37.67"/><polygon class="cls-6" points="729.52 48.95 724.7 83.22 724.5 72.43 729.3 37.67 729.52 48.95"/><polygon class="cls-6" points="717.58 60.28 713.35 94.07 713.17 83.22 717.39 48.95 717.58 60.28"/><polygon class="cls-6" points="668.95 60.28 667.15 94.07 666.85 50.98 668.62 15.27 668.95 60.28"/><polygon class="cls-6" points="644.8 129.4 644.2 160.14 644.09 115.89 644.69 83.1 644.8 129.4"/></g><g id="Bottom_Up-2"><polygon class="cls-6" points="112.14 37.67 138.03 72.43 92.04 72.43 63.75 37.67 112.14 37.67"/><polygon class="cls-6" points="107.26 83.1 133.62 115.89 87.22 115.89 58.41 83.1 107.26 83.1"/><polygon class="cls-6" points="172.65 37.67 195.53 72.43 184.03 72.43 160.55 37.67 172.65 37.67"/><polygon class="cls-6" points="168.33 83.1 191.63 115.89 180.03 115.89 156.12 83.1 168.33 83.1"/><polygon class="cls-6" points="266.9 71.67 285.22 104.95 273.64 104.95 254.71 71.67 266.9 71.67"/><polygon class="cls-6" points="277.42 94.6 295.29 126.88 283.66 126.88 265.18 94.6 277.42 94.6"/><polygon class="cls-6" points="354.16 37.67 368.01 72.43 345.01 72.43 329.95 37.67 354.16 37.67"/><polygon class="cls-6" points="414.66 37.67 425.51 72.43 402.51 72.43 390.46 37.67 414.66 37.67"/><polygon class="cls-6" points="475.17 37.67 483.01 72.43 471.5 72.43 463.06 37.67 475.17 37.67"/><polygon class="cls-6" points="473.69 83.1 481.67 115.89 470.06 115.89 461.47 83.1 473.69 83.1"/><polygon class="cls-6" points="608.28 37.67 609.5 72.43 563.5 72.43 559.87 37.67 608.28 37.67"/><polygon class="cls-6" points="571.4 83.1 574.48 115.89 528.08 115.89 522.55 83.1 571.4 83.1"/><polygon class="cls-6" points="850.31 37.67 839.5 72.43 793.5 72.43 801.91 37.67 850.31 37.67"/><polygon class="cls-6" points="815.71 83.1 806.53 115.89 760.12 115.89 766.85 83.1 815.71 83.1"/><polygon class="cls-6" points="729.3 37.67 724.5 72.43 712.99 72.43 717.19 37.67 729.3 37.67"/><polygon class="cls-6" points="753.78 48.95 747.75 83.22 736.22 83.22 741.65 48.95 753.78 48.95"/><polygon class="cls-6" points="741.9 60.28 736.45 94.07 713.35 94.07 717.58 60.28 741.9 60.28"/><polygon class="cls-6" points="644.69 83.1 644.09 115.89 620.9 115.89 620.27 83.1 644.69 83.1"/><polygon class="cls-6" points="705.77 83.1 702.11 115.89 678.9 115.89 681.34 83.1 705.77 83.1"/></g><g id="Bottom-2"><g><polygon class="cls-6" points="52.96 129.4 82.31 160.14 47.2 160.14 15.98 129.4 52.96 129.4"/><path class="cls-30" d="M28.18,134.4h22.64l19.8,20.74h-21.38l-21.06-20.74m-12.2-5l31.22,30.74h35.12l-29.35-30.74H15.98Z"/></g><g><polygon class="cls-6" points="151.6 129.4 175.96 160.14 140.84 160.14 114.61 129.4 151.6 129.4"/><path class="cls-17" d="M125.45,134.4h23.73l16.43,20.74h-22.47l-17.7-20.74m-10.84-5l26.23,30.74h35.12l-24.36-30.74h-36.99Z"/></g><g><polygon class="cls-6" points="200.92 129.4 222.78 160.14 187.66 160.14 163.93 129.4 200.92 129.4"/><path class="cls-31" d="M174.1,134.4h24.23l14.75,20.74h-22.97l-16.01-20.74m-10.18-5l23.73,30.74h35.12l-21.86-30.74h-36.99Z"/></g><g><polygon class="cls-6" points="250.23 129.4 269.6 160.14 234.48 160.14 213.24 129.4 250.23 129.4"/><path class="cls-49" d="M222.77,134.4h24.7l13.06,20.74h-23.44l-14.33-20.74m-9.53-5l21.24,30.74h35.12l-19.36-30.74h-36.99Z"/></g><g><polygon class="cls-6" points="311.89 129.4 328.13 160.14 293.01 160.14 274.9 129.4 311.89 129.4"/><path class="cls-18" d="M283.65,134.4h25.23l10.96,20.74h-23.96l-12.22-20.74m-8.75-5l18.12,30.74h35.12l-16.24-30.74h-36.99Z"/></g><g><polygon class="cls-6" points="385.87 129.4 398.36 160.14 363.25 160.14 348.87 129.4 385.87 129.4"/><path class="cls-19" d="M356.73,134.4h25.77l8.43,20.74h-24.51l-9.7-20.74m-7.86-5l14.37,30.74h35.12l-12.5-30.74h-36.99Z"/></g><g><polygon class="cls-6" points="459.85 129.4 468.6 160.14 433.48 160.14 422.86 129.4 459.85 129.4"/><path class="cls-7" d="M429.87,134.4h26.2l5.91,20.74h-24.93l-7.17-20.74m-7.02-5l10.63,30.74h35.12l-8.75-30.74h-36.99Z"/></g><g><polygon class="cls-6" points="509.17 129.4 515.43 160.14 480.31 160.14 472.18 129.4 509.17 129.4"/><path class="cls-36" d="M478.68,134.4h26.41l4.22,20.74h-25.15l-5.49-20.74m-6.49-5l8.13,30.74h35.12l-6.26-30.74h-36.99Z"/></g><g><polygon class="cls-6" points="607.81 129.4 609.08 160.14 527.13 160.14 521.5 129.4 607.81 129.4"/><path class="cls-37" d="M527.5,134.4h75.51l.85,20.74h-72.57l-3.8-20.74m-6-5l5.63,30.74h81.94l-1.26-30.74h-86.31Z"/></g><g><polygon class="cls-6" points="854.43 129.4 843.22 160.14 761.27 160.14 768.12 129.4 854.43 129.4"/><path class="cls-46" d="M772.13,134.4h75.16l-7.57,20.74h-72.21l4.62-20.74m-4.01-5l-6.85,30.74h81.95l11.22-30.74h-86.31Z"/></g><g><polygon class="cls-6" points="681.8 129.4 679.32 160.14 644.2 160.14 644.8 129.4 681.8 129.4"/><path class="cls-39" d="M649.71,134.4h26.67l-1.67,20.74h-25.41l.41-20.74m-4.9-5l-.61,30.74h35.12l2.48-30.74h-36.99Z"/></g></g><path id="Face-4" class="cls-14" d="M114.55,15.27l-2.41,22.4H63.75l-2.66,22.61h48.62l-2.45,22.82H58.41l-5.44,46.3H15.98L30.25,15.27H114.55Zm.06,114.13h36.99l4.52-46.3h12.21l-4.4,46.3h36.99l9.99-114.13H126.6l-11.99,114.13Zm55.89-69.11h-12.15l2.21-22.61h12.1l-2.15,22.61M283.18,15.27l-3.27,45.02h-12.15l1.7-22.61h-12.11l1.74-22.4h-36.13l-9.71,114.13h36.99l4.48-57.73h12.19l-1.72,22.93h12.24l-2.53,34.8h36.99l7.43-114.13h-36.13Zm48.18,0l-1.4,22.4h24.2l-5.28,91.73h36.99l4.59-91.73h24.2l1.01-22.4h-84.32Zm91.5,114.13h36.99l1.62-46.3h12.22l-1.51,46.3h36.99l2.86-114.13h-84.32l-4.86,114.13Zm51.58-69.12h-12.16l.79-22.61h12.11l-.74,22.61m49.64-45.02l-1.53,67.83h48.86l-.29,23.04h-49.09l-.52,23.26h86.31l.35-69.12h-48.63l.34-22.61h48.4l.11-22.4h-84.31Zm240.91,0l1.86,67.84h48.86l.86,23.04h-49.09l.64,23.26h86.31l-3.11-69.12h-48.63l-.79-22.61h48.4l-1.01-22.4h-84.32Zm-48.19,0l.39,22.4h12.11l.22,11.28h-12.14l.2,11.34h24.32l-.25-11.34h12.13l-.84-33.68h-36.14Zm-48.18,0l.33,45.02h-12.15l-.22-45.02h-36.14l-.17,67.84h24.42l.11,46.3h36.99l-.46-46.3h24.43l-1.01-67.84h-36.14Z"/><g id="Face-5" class="cls-24"><g><g class="cls-15"><polygon class="cls-20" points="854.44 129.4 768.12 129.4 772.01 125.4 850.25 125.4 854.44 129.4"/><polygon class="cls-12" points="767.48 106.14 816.56 106.14 820.72 110.14 771.59 110.14 767.48 106.14"/><polygon class="cls-10" points="768.12 129.4 767.48 106.14 771.59 110.14 772.01 125.4 768.12 129.4"/><polygon class="cls-10" points="816.56 106.14 815.71 83.1 819.56 79.1 820.72 110.14 816.56 106.14"/><polygon class="cls-20" points="815.71 83.1 766.85 83.1 770.74 79.1 819.56 79.1 815.71 83.1"/><polygon class="cls-12" points="802.7 60.28 851.33 60.28 847.51 64.28 798.83 64.28 802.7 60.28"/><polygon class="cls-35" points="851.33 60.28 854.44 129.4 850.25 125.4 847.51 64.28 851.33 60.28"/><polygon class="cls-20" points="850.31 37.67 801.9 37.67 797.76 33.67 846.13 33.67 850.31 37.67"/><polygon class="cls-35" points="801.9 37.67 802.7 60.28 798.83 64.28 797.76 33.67 801.9 37.67"/><polygon class="cls-35" points="849.31 15.26 850.31 37.67 846.13 33.67 845.48 19.26 849.31 15.26"/><polygon class="cls-12" points="764.99 15.26 849.31 15.26 845.48 19.26 769.1 19.26 764.99 15.26"/><polygon class="cls-10" points="766.85 83.1 764.99 15.26 769.1 19.26 770.74 79.1 766.85 83.1"/><rect class="cls-38" x="768.12" y="129.4" width="86.32" height="0"/><rect class="cls-47" x="767.8" y="106.14" width="0" height="23.26" transform="translate(-2.95 21.14) rotate(-1.57)"/><rect class="cls-38" x="792.02" y="81.6" width="0" height="49.09" transform="translate(-5.47 156.88) rotate(-11.27)"/><rect class="cls-38" x="766.85" y="83.1" width="48.86" height="0"/><rect class="cls-47" x="816.14" y="83.1" width="0" height="23.06" transform="translate(-2.95 30.34) rotate(-2.13)"/><rect class="cls-28" x="852.88" y="60.24" width="0" height="69.19" transform="translate(-3.4 38.37) rotate(-2.57)"/><rect class="cls-38" x="802.7" y="60.28" width="48.64" height="0" transform="translate(596.38 856.77) rotate(-78.02)"/><rect class="cls-38" x="801.9" y="37.67" width="48.41" height="0"/><rect class="cls-28" x="802.3" y="37.66" width="0" height="22.62" transform="translate(-1.22 28.11) rotate(-2.01)"/><rect class="cls-28" x="849.81" y="15.25" width="0" height="22.43" transform="translate(-.33 38.2) rotate(-2.57)"/><rect class="cls-47" x="765.92" y="15.25" width="0" height="67.87" transform="translate(-1.06 21.04) rotate(-1.57)"/><rect class="cls-38" x="807.15" y="-26.9" width="0" height="84.32" transform="translate(12.59 158.09) rotate(-11.27)"/><polygon class="cls-12" points="850.25 125.4 854.44 129.4 768.12 129.4 772.01 125.4 850.25 125.4"/><polygon class="cls-35" points="772.01 125.4 768.12 129.4 767.48 106.14 771.59 110.14 772.01 125.4"/><polygon class="cls-20" points="771.59 110.14 767.48 106.14 816.56 106.14 820.72 110.14 771.59 110.14"/><polygon class="cls-35" points="820.72 110.14 816.56 106.14 815.71 83.1 819.56 79.1 820.72 110.14"/><polygon class="cls-12" points="819.56 79.1 815.71 83.1 766.85 83.1 770.74 79.1 819.56 79.1"/><polygon class="cls-20" points="798.83 64.28 802.7 60.28 851.33 60.28 847.51 64.28 798.83 64.28"/><polygon class="cls-40" points="847.51 64.28 851.33 60.28 854.44 129.4 850.25 125.4 847.51 64.28"/><polygon class="cls-12" points="846.13 33.67 850.31 37.67 801.9 37.67 797.76 33.67 846.13 33.67"/><polygon class="cls-10" points="797.76 33.67 801.9 37.67 802.7 60.28 798.83 64.28 797.76 33.67"/><polygon class="cls-40" points="845.48 19.26 849.31 15.26 850.31 37.67 846.13 33.67 845.48 19.26"/><polygon class="cls-20" points="769.1 19.26 764.99 15.26 849.31 15.26 845.48 19.26 769.1 19.26"/><polygon class="cls-35" points="770.74 79.1 766.85 83.1 764.99 15.26 769.1 19.26 770.74 79.1"/></g><g class="cls-15"><polygon class="cls-20" points="741.9 60.28 717.58 60.28 721.51 56.28 737.81 56.28 741.9 60.28"/><polygon class="cls-10" points="717.58 60.28 717.38 48.95 721.46 52.95 721.51 56.28 717.58 60.28"/><polygon class="cls-12" points="717.38 48.95 729.53 48.95 733.61 52.95 721.46 52.95 717.38 48.95"/><polygon class="cls-35" points="741.65 48.95 741.9 60.28 737.81 56.28 737.56 44.95 741.65 48.95"/><polygon class="cls-20" points="753.77 48.95 741.65 48.95 737.56 44.95 749.67 44.95 753.77 48.95"/><polygon class="cls-20" points="729.3 37.67 717.19 37.67 721.12 33.67 733.22 33.67 729.3 37.67"/><polygon class="cls-10" points="729.53 48.95 729.3 37.67 733.22 33.67 733.61 52.95 729.53 48.95"/><polygon class="cls-12" points="716.8 15.26 752.93 15.26 749.03 19.26 720.87 19.26 716.8 15.26"/><polygon class="cls-10" points="717.19 37.67 716.8 15.26 720.87 19.26 721.12 33.67 717.19 37.67"/><polygon class="cls-35" points="752.93 15.26 753.77 48.95 749.67 44.95 749.03 19.26 752.93 15.26"/><rect class="cls-38" x="717.58" y="60.28" width="24.32" height="0"/><rect class="cls-28" x="741.77" y="48.95" width="0" height="11.33" transform="translate(-1.03 16.54) rotate(-1.28)"/><rect class="cls-38" x="741.65" y="48.95" width="12.12" height="0"/><rect class="cls-47" x="717.48" y="48.95" width="0" height="11.33" transform="translate(-.84 12.55) rotate(-1)"/><rect class="cls-38" x="723.46" y="42.88" width="0" height="12.14" transform="translate(4.57 143.76) rotate(-11.38)"/><rect class="cls-47" x="729.41" y="37.67" width="0" height="11.28" transform="translate(-.72 14.56) rotate(-1.14)"/><rect class="cls-38" x="717.19" y="37.67" width="12.11" height="0"/><rect class="cls-47" x="716.99" y="15.26" width="0" height="22.41" transform="translate(-.35 12.39) rotate(-.99)"/><rect class="cls-28" x="753.35" y="15.26" width="0" height="33.7" transform="translate(-.57 18.73) rotate(-1.42)"/><rect class="cls-38" x="734.87" y="-2.81" width="0" height="36.13" transform="translate(11.45 145.38) rotate(-11.39)"/><polygon class="cls-12" points="737.81 56.28 741.9 60.28 717.58 60.28 721.51 56.28 737.81 56.28"/><polygon class="cls-35" points="721.51 56.28 717.58 60.28 717.38 48.95 721.46 52.95 721.51 56.28"/><polygon class="cls-20" points="721.46 52.95 717.38 48.95 729.53 48.95 733.61 52.95 721.46 52.95"/><polygon class="cls-10" points="737.56 44.95 741.65 48.95 741.9 60.28 737.81 56.28 737.56 44.95"/><polygon class="cls-12" points="749.67 44.95 753.77 48.95 741.65 48.95 737.56 44.95 749.67 44.95"/><polygon class="cls-35" points="733.61 52.95 729.53 48.95 729.3 37.67 733.22 33.67 733.61 52.95"/><polygon class="cls-12" points="733.22 33.67 729.3 37.67 717.19 37.67 721.12 33.67 733.22 33.67"/><polygon class="cls-20" points="720.87 19.26 716.8 15.26 752.93 15.26 749.03 19.26 720.87 19.26"/><polygon class="cls-10" points="749.03 19.26 752.93 15.26 753.77 48.95 749.67 44.95 749.03 19.26"/><polygon class="cls-35" points="721.12 33.67 717.19 37.67 716.8 15.26 720.87 19.26 721.12 33.67"/></g><g class="cls-15"><polygon class="cls-20" points="681.8 129.4 644.8 129.4 648.79 125.4 677.76 125.4 681.8 129.4"/><polygon class="cls-20" points="705.77 83.1 681.34 83.1 677.3 79.1 701.71 79.1 705.77 83.1"/><polygon class="cls-2" points="644.8 129.4 644.69 83.1 648.68 79.1 648.79 125.4 644.8 129.4"/><polygon class="cls-20" points="644.69 83.1 620.27 83.1 624.28 79.1 648.68 79.1 644.69 83.1"/><polygon class="cls-35" points="681.34 83.1 681.8 129.4 677.76 125.4 677.3 79.1 681.34 83.1"/><polygon class="cls-12" points="656.8 60.28 668.96 60.28 672.99 64.28 652.82 64.28 656.8 60.28"/><polygon class="cls-35" points="656.58 15.26 656.8 60.28 652.82 64.28 652.6 19.26 656.58 15.26"/><polygon class="cls-2" points="668.96 60.28 668.62 15.26 672.65 19.26 672.99 64.28 668.96 60.28"/><polygon class="cls-2" points="620.27 83.1 620.44 15.26 624.43 19.26 624.28 79.1 620.27 83.1"/><polygon class="cls-12" points="620.44 15.26 656.58 15.26 652.6 19.26 624.43 19.26 620.44 15.26"/><polygon class="cls-12" points="668.62 15.26 704.76 15.26 700.82 19.26 672.65 19.26 668.62 15.26"/><polygon class="cls-35" points="704.76 15.26 705.77 83.1 701.71 79.1 700.82 19.26 704.76 15.26"/><rect class="cls-38" x="644.8" y="129.4" width="37" height="0"/><rect class="cls-28" x="681.57" y="83.1" width="0" height="46.3" transform="translate(-1.02 6.76) rotate(-.57)"/><rect class="cls-38" x="681.34" y="83.1" width="24.43" height="0"/><rect class="cls-29" x="644.75" y="83.1" width="0" height="46.3" transform="translate(-.25 1.51) rotate(-.13)"/><rect class="cls-38" x="620.27" y="83.1" width="24.43" height="0"/><rect class="cls-38" x="656.8" y="60.28" width="12.16" height="0" transform="translate(470.17 697.38) rotate(-78.37)"/><rect class="cls-28" x="656.69" y="15.26" width="0" height="45.02" transform="translate(-.17 3.15) rotate(-.27)"/><rect class="cls-29" x="586.43" y="49.18" width="67.84" height="0" transform="translate(569.6 669.41) rotate(-89.86)"/><rect class="cls-38" x="638.51" y="-2.81" width="0" height="36.14" transform="translate(9.99 128.79) rotate(-11.61)"/><rect class="cls-28" x="705.26" y="15.26" width="0" height="67.85" transform="translate(-.65 10.48) rotate(-.85)"/><rect class="cls-47" x="668.79" y="15.26" width="0" height="45.02" transform="translate(-.26 4.94) rotate(-.42)"/><rect class="cls-38" x="686.69" y="-2.81" width="0" height="36.14" transform="translate(10.74 137.17) rotate(-11.5)"/><polygon class="cls-12" points="677.76 125.4 681.8 129.4 644.8 129.4 648.79 125.4 677.76 125.4"/><polygon class="cls-2" points="677.3 79.1 681.34 83.1 681.8 129.4 677.76 125.4 677.3 79.1"/><polygon class="cls-12" points="701.71 79.1 705.77 83.1 681.34 83.1 677.3 79.1 701.71 79.1"/><polygon class="cls-35" points="648.79 125.4 644.8 129.4 644.69 83.1 648.68 79.1 648.79 125.4"/><polygon class="cls-12" points="648.68 79.1 644.69 83.1 620.27 83.1 624.28 79.1 648.68 79.1"/><polygon class="cls-20" points="652.82 64.28 656.8 60.28 668.96 60.28 672.99 64.28 652.82 64.28"/><polygon class="cls-2" points="652.6 19.26 656.58 15.26 656.8 60.28 652.82 64.28 652.6 19.26"/><polygon class="cls-20" points="672.65 19.26 668.62 15.26 704.76 15.26 700.82 19.26 672.65 19.26"/><polygon class="cls-35" points="672.99 64.28 668.96 60.28 668.62 15.26 672.65 19.26 672.99 64.28"/><polygon class="cls-35" points="624.28 79.1 620.27 83.1 620.44 15.26 624.43 19.26 624.28 79.1"/><polygon class="cls-20" points="624.43 19.26 620.44 15.26 656.58 15.26 652.6 19.26 624.43 19.26"/><polygon class="cls-10" points="700.82 19.26 704.76 15.26 705.77 83.1 701.71 79.1 700.82 19.26"/></g><g class="cls-15"><polygon class="cls-20" points="607.81 129.4 521.5 129.4 525.59 125.4 603.83 125.4 607.81 129.4"/><polygon class="cls-12" points="522.02 106.14 571.11 106.14 575.06 110.14 525.93 110.14 522.02 106.14"/><polygon class="cls-27" points="521.5 129.4 522.02 106.14 525.93 110.14 525.59 125.4 521.5 129.4"/><polygon class="cls-2" points="571.11 106.14 571.41 83.1 575.46 79.1 575.06 110.14 571.11 106.14"/><polygon class="cls-20" points="571.41 83.1 522.54 83.1 526.64 79.1 575.46 79.1 571.41 83.1"/><polygon class="cls-12" points="559.53 60.28 608.16 60.28 604.14 64.28 555.47 64.28 559.53 60.28"/><polygon class="cls-35" points="608.16 60.28 607.81 129.4 603.83 125.4 604.14 64.28 608.16 60.28"/><polygon class="cls-35" points="559.88 37.67 559.53 60.28 555.47 64.28 555.94 33.67 559.88 37.67"/><polygon class="cls-20" points="608.28 37.67 559.88 37.67 555.94 33.67 604.3 33.67 608.28 37.67"/><polygon class="cls-27" points="522.54 83.1 524.07 15.27 527.98 19.27 526.64 79.1 522.54 83.1"/><polygon class="cls-12" points="524.07 15.27 608.39 15.26 604.37 19.26 527.98 19.27 524.07 15.27"/><polygon class="cls-35" points="608.39 15.26 608.28 37.67 604.3 33.67 604.37 19.26 608.39 15.26"/><rect class="cls-38" x="521.5" y="129.4" width="86.31" height="0"/><rect class="cls-29" x="510.13" y="117.77" width="23.26" height="0" transform="translate(392.3 636.76) rotate(-88.71)"/><rect class="cls-38" x="546.56" y="81.6" width="0" height="49.09" transform="translate(-10.15 114.35) rotate(-11.84)"/><rect class="cls-29" x="559.74" y="94.62" width="23.04" height="0" transform="translate(469.27 664.61) rotate(-89.26)"/><rect class="cls-38" x="522.54" y="83.1" width="48.86" height="0"/><rect class="cls-28" x="573.42" y="94.84" width="69.12" height="0" transform="translate(510.06 702.33) rotate(-89.71)"/><rect class="cls-38" x="559.53" y="60.28" width="48.63" height="0" transform="translate(409.26 620.66) rotate(-78.59)"/><rect class="cls-38" x="559.88" y="37.67" width="48.4" height="0"/><rect class="cls-28" x="548.4" y="48.98" width="22.61" height="0" transform="translate(502.26 607.87) rotate(-89.13)"/><rect class="cls-29" x="489.38" y="49.19" width="67.85" height="0" transform="translate(462.33 571.25) rotate(-88.71)"/><rect class="cls-28" x="597.13" y="26.47" width="22.41" height="0" transform="translate(578.94 634.66) rotate(-89.72)"/><rect class="cls-38" x="566.23" y="-26.89" width="0" height="84.31" transform="translate(8.92 116.52) rotate(-11.84)"/><polygon class="cls-12" points="603.83 125.4 607.81 129.4 521.5 129.4 525.59 125.4 603.83 125.4"/><polygon class="cls-35" points="525.59 125.4 521.5 129.4 522.02 106.14 525.93 110.14 525.59 125.4"/><polygon class="cls-20" points="525.93 110.14 522.02 106.14 571.11 106.14 575.06 110.14 525.93 110.14"/><polygon class="cls-12" points="575.46 79.1 571.41 83.1 522.54 83.1 526.64 79.1 575.46 79.1"/><polygon class="cls-35" points="575.06 110.14 571.11 106.14 571.41 83.1 575.46 79.1 575.06 110.14"/><polygon class="cls-20" points="555.47 64.28 559.53 60.28 608.16 60.28 604.14 64.28 555.47 64.28"/><polygon class="cls-2" points="604.14 64.28 608.16 60.28 607.81 129.4 603.83 125.4 604.14 64.28"/><polygon class="cls-27" points="555.94 33.67 559.88 37.67 559.53 60.28 555.47 64.28 555.94 33.67"/><polygon class="cls-12" points="604.3 33.67 608.28 37.67 559.88 37.67 555.94 33.67 604.3 33.67"/><polygon class="cls-35" points="526.64 79.1 522.54 83.1 524.07 15.27 527.98 19.27 526.64 79.1"/><polygon class="cls-20" points="527.98 19.27 524.07 15.27 608.39 15.26 604.37 19.26 527.98 19.27"/><polygon class="cls-2" points="604.37 19.26 608.39 15.26 608.28 37.67 604.3 33.67 604.37 19.26"/></g><g class="cls-15"><polygon class="cls-20" points="459.85 129.4 422.85 129.4 427.02 125.4 455.99 125.4 459.85 129.4"/><polygon class="cls-20" points="509.17 129.4 472.18 129.4 476.31 125.4 505.27 125.4 509.17 129.4"/><polygon class="cls-27" points="472.18 129.4 473.69 83.1 477.82 79.1 476.31 125.4 472.18 129.4"/><polygon class="cls-20" points="473.69 83.1 461.47 83.1 457.61 79.1 477.82 79.1 473.69 83.1"/><polygon class="cls-35" points="461.47 83.1 459.85 129.4 455.99 125.4 457.61 79.1 461.47 83.1"/><polygon class="cls-12" points="462.27 60.28 474.43 60.28 478.3 64.28 458.13 64.28 462.27 60.28"/><polygon class="cls-27" points="474.43 60.28 475.17 37.67 479.3 33.67 478.3 64.28 474.43 60.28"/><polygon class="cls-20" points="475.17 37.67 463.06 37.67 459.2 33.67 479.3 33.67 475.17 37.67"/><polygon class="cls-35" points="463.06 37.67 462.27 60.28 458.13 64.28 459.2 33.67 463.06 37.67"/><polygon class="cls-35" points="512.03 15.27 509.17 129.4 505.27 125.4 507.93 19.27 512.03 15.27"/><polygon class="cls-12" points="427.71 15.27 512.03 15.27 507.93 19.27 431.54 19.27 427.71 15.27"/><polygon class="cls-16" points="422.85 129.4 427.71 15.27 431.54 19.27 427.02 125.4 422.85 129.4"/><rect class="cls-38" x="422.85" y="129.4" width="37" height="0"/><rect class="cls-38" x="472.18" y="129.4" width="36.99" height="0"/><rect class="cls-28" x="437.5" y="106.25" width="46.32" height="0" transform="translate(338.36 562.91) rotate(-88)"/><rect class="cls-38" x="461.47" y="83.1" width="12.22" height="0"/><rect class="cls-29" x="449.78" y="106.25" width="46.32" height="0" transform="translate(351.31 575.47) rotate(-88.13)"/><rect class="cls-38" x="462.27" y="60.28" width="12.16" height="0" transform="translate(318.32 508.02) rotate(-78.81)"/><rect class="cls-29" x="463.49" y="48.98" width="22.62" height="0" transform="translate(410.35 521.92) rotate(-88.13)"/><rect class="cls-28" x="451.36" y="48.98" width="22.62" height="0" transform="translate(397.53 509.64) rotate(-87.99)"/><rect class="cls-38" x="463.06" y="37.67" width="12.11" height="0"/><rect class="cls-28" x="453.52" y="72.33" width="114.17" height="0" transform="translate(425.49 580.96) rotate(-88.56)"/><rect class="cls-50" x="368.16" y="72.33" width="114.23" height="0" transform="translate(334.92 494.15) rotate(-87.56)"/><rect class="cls-38" x="469.87" y="-26.89" width="0" height="84.32" transform="translate(7.19 98.58) rotate(-12.07)"/><polygon class="cls-12" points="505.27 125.4 509.17 129.4 472.18 129.4 476.31 125.4 505.27 125.4"/><polygon class="cls-12" points="455.99 125.4 459.85 129.4 422.85 129.4 427.02 125.4 455.99 125.4"/><polygon class="cls-27" points="457.61 79.1 461.47 83.1 459.85 129.4 455.99 125.4 457.61 79.1"/><polygon class="cls-35" points="476.31 125.4 472.18 129.4 473.69 83.1 477.82 79.1 476.31 125.4"/><polygon class="cls-12" points="477.82 79.1 473.69 83.1 461.47 83.1 457.61 79.1 477.82 79.1"/><polygon class="cls-20" points="458.13 64.28 462.27 60.28 474.43 60.28 478.3 64.28 458.13 64.28"/><polygon class="cls-27" points="459.2 33.67 463.06 37.67 462.27 60.28 458.13 64.28 459.2 33.67"/><polygon class="cls-12" points="479.3 33.67 475.17 37.67 463.06 37.67 459.2 33.67 479.3 33.67"/><polygon class="cls-35" points="478.3 64.28 474.43 60.28 475.17 37.67 479.3 33.67 478.3 64.28"/><polygon class="cls-20" points="431.54 19.27 427.71 15.27 512.03 15.27 507.93 19.27 431.54 19.27"/><polygon class="cls-51" points="427.02 125.4 422.85 129.4 427.71 15.27 431.54 19.27 427.02 125.4"/><polygon class="cls-27" points="507.93 19.27 512.03 15.27 509.17 129.4 505.27 125.4 507.93 19.27"/></g><g class="cls-15"><polygon class="cls-20" points="385.86 129.4 348.87 129.4 353.11 125.4 382.06 125.4 385.86 129.4"/><polygon class="cls-16" points="348.87 129.4 354.15 37.67 358.39 33.67 353.11 125.4 348.87 129.4"/><polygon class="cls-51" points="390.46 37.67 385.86 129.4 382.06 125.4 386.66 33.67 390.46 37.67"/><polygon class="cls-20" points="414.66 37.67 390.46 37.67 386.66 33.67 410.84 33.67 414.66 37.67"/><polygon class="cls-20" points="354.15 37.67 329.95 37.67 334.21 33.67 358.39 33.67 354.15 37.67"/><polygon class="cls-51" points="415.67 15.27 414.66 37.67 410.84 33.67 411.48 19.27 415.67 15.27"/><polygon class="cls-12" points="331.36 15.27 415.67 15.27 411.48 19.27 335.11 19.27 331.36 15.27"/><polygon class="cls-44" points="329.95 37.67 331.36 15.27 335.11 19.27 334.21 33.67 329.95 37.67"/><rect class="cls-38" x="348.87" y="129.4" width="36.99" height="0"/><rect class="cls-50" x="305.57" y="83.54" width="91.88" height="0" transform="translate(247.9 429.66) rotate(-86.7)"/><rect class="cls-38" x="329.95" y="37.67" width="24.2" height="0"/><rect class="cls-38" x="390.46" y="37.67" width="24.2" height="0"/><rect class="cls-28" x="342.24" y="83.54" width="91.84" height="0" transform="translate(285.29 467.03) rotate(-87.13)"/><rect class="cls-50" x="319.43" y="26.47" width="22.44" height="0" transform="translate(283.55 354.82) rotate(-86.41)"/><rect class="cls-28" x="403.95" y="26.47" width="22.42" height="0" transform="translate(370.06 440.03) rotate(-87.42)"/><rect class="cls-38" x="373.51" y="-26.89" width="0" height="84.31" transform="translate(5.33 79.96) rotate(-12.31)"/><polygon class="cls-12" points="382.06 125.4 385.86 129.4 348.87 129.4 353.11 125.4 382.06 125.4"/><polygon class="cls-12" points="358.39 33.67 354.15 37.67 329.95 37.67 334.21 33.67 358.39 33.67"/><polygon class="cls-16" points="386.66 33.67 390.46 37.67 385.86 129.4 382.06 125.4 386.66 33.67"/><polygon class="cls-12" points="410.84 33.67 414.66 37.67 390.46 37.67 386.66 33.67 410.84 33.67"/><polygon class="cls-51" points="353.11 125.4 348.87 129.4 354.15 37.67 358.39 33.67 353.11 125.4"/><polygon class="cls-20" points="335.11 19.27 331.36 15.27 415.67 15.27 411.48 19.27 335.11 19.27"/><polygon class="cls-51" points="334.21 33.67 329.95 37.67 331.36 15.27 335.11 19.27 334.21 33.67"/><polygon class="cls-16" points="411.48 19.27 415.67 15.27 414.66 37.67 410.84 33.67 411.48 19.27"/></g><g class="cls-15"><polygon class="cls-20" points="311.88 129.4 274.89 129.4 279.19 125.4 308.13 125.4 311.88 129.4"/><polygon class="cls-20" points="250.23 129.4 213.24 129.4 217.6 125.4 246.53 125.4 250.23 129.4"/><polygon class="cls-20" points="277.42 94.6 265.18 94.6 269.49 90.6 281.72 90.6 277.42 94.6"/><polygon class="cls-44" points="274.89 129.4 277.42 94.6 281.72 90.6 279.19 125.4 274.89 129.4"/><polygon class="cls-20" points="266.9 71.66 254.71 71.66 251.01 67.66 271.21 67.66 266.9 71.66"/><polygon class="cls-44" points="265.18 94.6 266.9 71.66 271.21 67.66 269.49 90.6 265.18 94.6"/><polygon class="cls-51" points="254.71 71.66 250.23 129.4 246.53 125.4 251.01 67.66 254.71 71.66"/><polygon class="cls-12" points="267.75 60.29 279.91 60.29 283.63 64.29 263.44 64.29 267.75 60.29"/><polygon class="cls-12" points="257.35 37.67 269.45 37.67 265.14 41.67 253.03 41.67 257.35 37.67"/><polygon class="cls-51" points="269.45 37.67 267.75 60.29 263.44 64.29 265.14 41.67 269.45 37.67"/><polygon class="cls-51" points="259.09 15.27 257.35 37.67 253.03 41.67 254.76 19.27 259.09 15.27"/><polygon class="cls-12" points="222.95 15.27 259.09 15.27 254.76 19.27 226.63 19.27 222.95 15.27"/><polygon class="cls-44" points="213.24 129.4 222.95 15.27 226.63 19.27 217.6 125.4 213.24 129.4"/><polygon class="cls-51" points="319.31 15.27 311.88 129.4 308.13 125.4 315.05 19.27 319.31 15.27"/><polygon class="cls-12" points="283.18 15.27 319.31 15.27 315.05 19.27 286.9 19.27 283.18 15.27"/><polygon class="cls-44" points="279.91 60.29 283.18 15.27 286.9 19.27 283.63 64.29 279.91 60.29"/><rect class="cls-38" x="274.89" y="129.4" width="36.99" height="0"/><rect class="cls-38" x="213.24" y="129.4" width="36.99" height="0"/><rect class="cls-50" x="258.71" y="112" width="34.89" height="0" transform="translate(144.44 379.31) rotate(-85.84)"/><rect class="cls-38" x="265.18" y="94.6" width="12.24" height="0"/><rect class="cls-38" x="254.71" y="71.66" width="12.19" height="0"/><rect class="cls-28" x="223.52" y="100.53" width="57.91" height="0" transform="translate(132.7 344.47) rotate(-85.56)"/><rect class="cls-50" x="254.54" y="83.13" width="23" height="0" transform="translate(163.26 342.21) rotate(-85.71)"/><rect class="cls-38" x="267.75" y="60.29" width="12.16" height="0" transform="translate(163.47 318.05) rotate(-79.24)"/><rect class="cls-28" x="257.26" y="48.98" width="22.68" height="0" transform="translate(199.62 313.15) rotate(-85.7)"/><rect class="cls-38" x="257.35" y="37.67" width="12.1" height="0" transform="translate(177.32 289.44) rotate(-79.26)"/><rect class="cls-28" x="246.98" y="26.47" width="22.47" height="0" transform="translate(211.87 281.87) rotate(-85.57)"/><rect class="cls-21" x="160.83" y="72.33" width="114.54" height="0" transform="translate(127.53 283.51) rotate(-85.14)"/><rect class="cls-38" x="241.02" y="-2.8" width="0" height="36.13" transform="translate(2.46 52.84) rotate(-12.57)"/><rect class="cls-50" x="258.98" y="37.78" width="45.14" height="0" transform="translate(223.49 315.85) rotate(-85.85)"/><rect class="cls-28" x="258.41" y="72.33" width="114.37" height="0" transform="translate(222.9 382.56) rotate(-86.27)"/><rect class="cls-38" x="301.25" y="-2.8" width="0" height="36.13" transform="translate(3.77 65.17) rotate(-12.42)"/><polygon class="cls-12" points="246.53 125.4 250.23 129.4 213.24 129.4 217.6 125.4 246.53 125.4"/><polygon class="cls-12" points="308.13 125.4 311.88 129.4 274.89 129.4 279.19 125.4 308.13 125.4"/><polygon class="cls-51" points="279.19 125.4 274.89 129.4 277.42 94.6 281.72 90.6 279.19 125.4"/><polygon class="cls-12" points="281.72 90.6 277.42 94.6 265.18 94.6 269.49 90.6 281.72 90.6"/><polygon class="cls-51" points="269.49 90.6 265.18 94.6 266.9 71.66 271.21 67.66 269.49 90.6"/><polygon class="cls-12" points="271.21 67.66 266.9 71.66 254.71 71.66 251.01 67.66 271.21 67.66"/><polygon class="cls-44" points="251.01 67.66 254.71 71.66 250.23 129.4 246.53 125.4 251.01 67.66"/><polygon class="cls-20" points="263.44 64.29 267.75 60.29 279.91 60.29 283.63 64.29 263.44 64.29"/><polygon class="cls-44" points="265.14 41.67 269.45 37.67 267.75 60.29 263.44 64.29 265.14 41.67"/><polygon class="cls-20" points="253.03 41.67 257.35 37.67 269.45 37.67 265.14 41.67 253.03 41.67"/><polygon class="cls-44" points="254.76 19.27 259.09 15.27 257.35 37.67 253.03 41.67 254.76 19.27"/><polygon class="cls-20" points="226.63 19.27 222.95 15.27 259.09 15.27 254.76 19.27 226.63 19.27"/><polygon class="cls-51" points="217.6 125.4 213.24 129.4 222.95 15.27 226.63 19.27 217.6 125.4"/><polygon class="cls-44" points="315.05 19.27 319.31 15.27 311.88 129.4 308.13 125.4 315.05 19.27"/><polygon class="cls-20" points="286.9 19.27 283.18 15.27 319.31 15.27 315.05 19.27 286.9 19.27"/><polygon class="cls-51" points="283.63 64.29 279.91 60.29 283.18 15.27 286.9 19.27 283.63 64.29"/></g><g class="cls-15"><polygon class="cls-20" points="151.6 129.4 114.61 129.4 119.05 125.4 147.97 125.4 151.6 129.4"/><polygon class="cls-20" points="200.92 129.4 163.93 129.4 168.33 125.4 197.25 125.4 200.92 129.4"/><polygon class="cls-4" points="163.93 129.4 168.33 83.1 172.73 79.1 168.33 125.4 163.93 129.4"/><polygon class="cls-20" points="168.33 83.1 156.12 83.1 152.49 79.1 172.73 79.1 168.33 83.1"/><polygon class="cls-51" points="156.12 83.1 151.6 129.4 147.97 125.4 152.49 79.1 156.12 83.1"/><polygon class="cls-12" points="158.34 60.29 170.5 60.29 174.14 64.29 153.93 64.29 158.34 60.29"/><polygon class="cls-4" points="170.5 60.29 172.65 37.67 177.05 33.67 174.14 64.29 170.5 60.29"/><polygon class="cls-20" points="172.65 37.67 160.55 37.67 156.92 33.67 177.05 33.67 172.65 37.67"/><polygon class="cls-51" points="160.55 37.67 158.34 60.29 153.93 64.29 156.92 33.67 160.55 37.67"/><polygon class="cls-51" points="210.91 15.27 200.92 129.4 197.25 125.4 206.54 19.27 210.91 15.27"/><polygon class="cls-12" points="126.61 15.27 210.91 15.27 206.54 19.27 130.21 19.27 126.61 15.27"/><polygon class="cls-4" points="114.61 129.4 126.61 15.27 130.21 19.27 119.05 125.4 114.61 129.4"/><rect class="cls-38" x="114.61" y="129.4" width="36.99" height="0"/><rect class="cls-38" x="163.93" y="129.4" width="36.99" height="0"/><rect class="cls-28" x="130.6" y="106.25" width="46.52" height="0" transform="translate(33.17 249.06) rotate(-84.43)"/><rect class="cls-38" x="156.12" y="83.1" width="12.21" height="0"/><rect class="cls-21" x="142.88" y="106.25" width="46.5" height="0" transform="translate(44.63 261.58) rotate(-84.57)"/><rect class="cls-38" x="158.34" y="60.29" width="12.16" height="0" transform="translate(75.1 210.92) rotate(-79.47)"/><rect class="cls-21" x="160.22" y="48.98" width="22.72" height="0" transform="translate(106.57 215.15) rotate(-84.57)"/><rect class="cls-28" x="148.08" y="48.98" width="22.72" height="0" transform="translate(95.23 202.92) rotate(-84.43)"/><rect class="cls-38" x="160.55" y="37.67" width="12.11" height="0"/><rect class="cls-28" x="148.63" y="72.33" width="114.57" height="0" transform="translate(115.9 271.16) rotate(-85)"/><rect class="cls-21" x="63.23" y="72.33" width="114.76" height="0" transform="translate(36.06 184.72) rotate(-84)"/><rect class="cls-38" x="168.76" y="-26.88" width="0" height="84.3" transform="translate(.82 37.83) rotate(-12.82)"/><polygon class="cls-12" points="197.25 125.4 200.92 129.4 163.93 129.4 168.33 125.4 197.25 125.4"/><polygon class="cls-12" points="147.97 125.4 151.6 129.4 114.61 129.4 119.05 125.4 147.97 125.4"/><polygon class="cls-4" points="152.49 79.1 156.12 83.1 151.6 129.4 147.97 125.4 152.49 79.1"/><polygon class="cls-51" points="168.33 125.4 163.93 129.4 168.33 83.1 172.73 79.1 168.33 125.4"/><polygon class="cls-12" points="172.73 79.1 168.33 83.1 156.12 83.1 152.49 79.1 172.73 79.1"/><polygon class="cls-20" points="153.93 64.29 158.34 60.29 170.5 60.29 174.14 64.29 153.93 64.29"/><polygon class="cls-4" points="156.92 33.67 160.55 37.67 158.34 60.29 153.93 64.29 156.92 33.67"/><polygon class="cls-12" points="177.05 33.67 172.65 37.67 160.55 37.67 156.92 33.67 177.05 33.67"/><polygon class="cls-51" points="174.14 64.29 170.5 60.29 172.65 37.67 177.05 33.67 174.14 64.29"/><polygon class="cls-20" points="130.21 19.27 126.61 15.27 210.91 15.27 206.54 19.27 130.21 19.27"/><polygon class="cls-51" points="119.05 125.4 114.61 129.4 126.61 15.27 130.21 19.27 119.05 125.4"/><polygon class="cls-4" points="206.54 19.27 210.91 15.27 200.92 129.4 197.25 125.4 206.54 19.27"/></g><g class="cls-15"><polygon class="cls-20" points="52.96 129.4 15.98 129.4 20.51 125.4 49.4 125.4 52.96 129.4"/><polygon class="cls-20" points="107.26 83.1 58.41 83.1 54.85 79.1 103.66 79.1 107.26 83.1"/><polygon class="cls-51" points="58.41 83.1 52.96 129.4 49.4 125.4 54.85 79.1 58.41 83.1"/><polygon class="cls-12" points="61.09 60.29 109.71 60.29 105.26 64.29 56.59 64.29 61.09 60.29"/><polygon class="cls-51" points="109.71 60.29 107.26 83.1 103.66 79.1 105.26 64.29 109.71 60.29"/><polygon class="cls-51" points="63.74 37.67 61.09 60.29 56.59 64.29 60.18 33.67 63.74 37.67"/><polygon class="cls-20" points="112.14 37.67 63.74 37.67 60.18 33.67 108.55 33.67 112.14 37.67"/><polygon class="cls-12" points="30.24 15.27 114.56 15.27 110.1 19.27 33.78 19.27 30.24 15.27"/><polygon class="cls-26" points="15.98 129.4 30.24 15.27 33.78 19.27 20.51 125.4 15.98 129.4"/><polygon class="cls-51" points="114.56 15.27 112.14 37.67 108.55 33.67 110.1 19.27 114.56 15.27"/><rect class="cls-38" x="15.98" y="129.4" width="36.98" height="0"/><rect class="cls-38" x="58.41" y="83.1" width="48.85" height="0"/><rect class="cls-28" x="32.37" y="106.25" width="46.62" height="0" transform="translate(-56.35 149.14) rotate(-83.29)"/><rect class="cls-28" x="97.01" y="71.7" width="22.95" height="0" transform="translate(25.59 171.88) rotate(-83.85)"/><rect class="cls-38" x="61.09" y="60.29" width="48.63" height="0" transform="translate(10.78 133.5) rotate(-79.67)"/><rect class="cls-38" x="63.74" y="37.67" width="48.4" height="0"/><rect class="cls-28" x="51.03" y="48.98" width="22.77" height="0" transform="translate(6.49 105.26) rotate(-83.3)"/><rect class="cls-25" x="-34.4" y="72.33" width="115.02" height="0" transform="translate(-51.53 86.3) rotate(-82.88)"/><rect class="cls-28" x="102.08" y="26.47" width="22.53" height="0" transform="translate(74.9 136.34) rotate(-83.86)"/><rect class="cls-38" x="72.4" y="-26.89" width="0" height="84.31" transform="translate(-1.58 16.76) rotate(-13.07)"/><polygon class="cls-12" points="49.4 125.4 52.96 129.4 15.98 129.4 20.51 125.4 49.4 125.4"/><polygon class="cls-26" points="54.85 79.1 58.41 83.1 52.96 129.4 49.4 125.4 54.85 79.1"/><polygon class="cls-12" points="103.66 79.1 107.26 83.1 58.41 83.1 54.85 79.1 103.66 79.1"/><polygon class="cls-20" points="56.59 64.29 61.09 60.29 109.71 60.29 105.26 64.29 56.59 64.29"/><polygon class="cls-4" points="105.26 64.29 109.71 60.29 107.26 83.1 103.66 79.1 105.26 64.29"/><polygon class="cls-12" points="108.55 33.67 112.14 37.67 63.74 37.67 60.18 33.67 108.55 33.67"/><polygon class="cls-26" points="60.18 33.67 63.74 37.67 61.09 60.29 56.59 64.29 60.18 33.67"/><polygon class="cls-20" points="33.78 19.27 30.24 15.27 114.56 15.27 110.1 19.27 33.78 19.27"/><polygon class="cls-51" points="20.51 125.4 15.98 129.4 30.24 15.27 33.78 19.27 20.51 125.4"/><polygon class="cls-4" points="110.1 19.27 114.56 15.27 112.14 37.67 108.55 33.67 110.1 19.27"/></g></g></g><path id="Face-6" class="cls-32" d="M114.55,15.27l-2.41,22.4H63.75l-2.66,22.61h48.62l-2.45,22.82H58.41l-5.44,46.3H15.98L30.25,15.27H114.55Zm.06,114.13h36.99l4.52-46.3h12.21l-4.4,46.3h36.99l9.99-114.13H126.6l-11.99,114.13Zm55.89-69.11h-12.15l2.21-22.61h12.1l-2.15,22.61M283.18,15.27l-3.27,45.02h-12.15l1.7-22.61h-12.11l1.74-22.4h-36.13l-9.71,114.13h36.99l4.48-57.73h12.19l-1.72,22.93h12.24l-2.53,34.8h36.99l7.43-114.13h-36.13Zm48.18,0l-1.4,22.4h24.2l-5.28,91.73h36.99l4.59-91.73h24.2l1.01-22.4h-84.32Zm91.5,114.13h36.99l1.62-46.3h12.22l-1.51,46.3h36.99l2.86-114.13h-84.32l-4.86,114.13Zm51.58-69.12h-12.16l.79-22.61h12.11l-.74,22.61m49.64-45.02l-1.53,67.83h48.86l-.29,23.04h-49.09l-.52,23.26h86.31l.35-69.12h-48.63l.34-22.61h48.4l.11-22.4h-84.31Zm240.91,0l1.86,67.84h48.86l.86,23.04h-49.09l.64,23.26h86.31l-3.11-69.12h-48.63l-.79-22.61h48.4l-1.01-22.4h-84.32Zm-48.19,0l.39,22.4h12.11l.22,11.28h-12.14l.2,11.34h24.32l-.25-11.34h12.13l-.84-33.68h-36.14Zm-48.18,0l.33,45.02h-12.15l-.22-45.02h-36.14l-.17,67.84h24.42l.11,46.3h36.99l-.46-46.3h24.43l-1.01-67.84h-36.14Z"/></g></g></g></g></svg>