<?xml version="1.0" encoding="UTF-8"?><svg xmlns="http://www.w3.org/2000/svg" xmlns:xlink="http://www.w3.org/1999/xlink" viewBox="0 0 1771.5 175.17"><defs><style>.cls-1{fill:#6a6a6a;}.cls-2{fill:#979797;}.cls-3{fill:#3b0900;}.cls-4{fill:#9d9d9d;}.cls-5{fill:#939393;}.cls-6{fill:url(#linear-gradient-2);}.cls-7{fill:url(#New_Gradient_Swatch_3-2);opacity:.1;}.cls-7,.cls-8{mix-blend-mode:lighten;}.cls-9{fill:#741300;}.cls-10{fill:url(#New_Gradient_Swatch_4-7);}.cls-11{fill:#1e2169;}.cls-12{fill:#9c9c9c;}.cls-13{fill:#989898;}.cls-14{fill:#5c5c5c;}.cls-15{fill:#5f5f5f;}.cls-16{fill:url(#linear-gradient-6);}.cls-17{isolation:isolate;}.cls-18{fill:#959595;}.cls-19{fill:url(#New_Gradient_Swatch_4-2);}.cls-20{fill:url(#New_Gradient_Swatch_4-5);}.cls-21{fill:url(#New_Gradient_Swatch_4-6);}.cls-22{fill:#909090;}.cls-23{fill:#656565;}.cls-24{fill:url(#linear-gradient-11);}.cls-25{fill:#6b6b6b;}.cls-26{fill:#696969;}.cls-27{mix-blend-mode:color-burn;opacity:.45;}.cls-28{fill:#646464;}.cls-29{fill:url(#linear-gradient-10);}.cls-30{fill:#929292;}.cls-31{fill:#969696;}.cls-32{fill:#5a5a5a;}.cls-33{fill:url(#New_Gradient_Swatch_2);}.cls-34{fill:#676767;}.cls-35{fill:#5c5e9c;}.cls-36{fill:url(#New_Gradient_Swatch_4);}.cls-37{fill:url(#New_Gradient_Swatch_4-3);}.cls-38{fill:url(#linear-gradient-5);}.cls-39{fill:#5d5d5d;}.cls-40{fill:url(#New_Gradient_Swatch_4-8);}.cls-41{fill:url(#New_Gradient_Swatch_4-9);}.cls-42{fill:#636363;}.cls-43{fill:url(#New_Gradient_Swatch_4-11);}.cls-44{fill:#999;}.cls-45{fill:url(#linear-gradient-7);}.cls-46{fill:#9b9b9b;}.cls-47{fill:#9a9a9a;}.cls-48{fill:url(#linear-gradient-9);}.cls-49{fill:url(#linear-gradient-3);}.cls-8{fill:url(#New_Gradient_Swatch_3);opacity:.2;}.cls-50{fill:#949494;}.cls-51{fill:url(#linear-gradient);}.cls-52{fill:url(#New_Gradient_Swatch_4-10);}.cls-53{fill:#686868;}.cls-54{fill:#919191;}.cls-55{fill:url(#linear-gradient-4);}.cls-56{fill:url(#New_Gradient_Swatch_4-4);}.cls-57{fill:#666;}.cls-58{fill:url(#linear-gradient-8);}.cls-59{fill:#5e5e5e;}.cls-60{fill:url(#linear-gradient-12);}.cls-61{fill:url(#linear-gradient-13);}</style><linearGradient id="New_Gradient_Swatch_4" x1="56" y1="160.16" x2="56" y2="129.43" gradientTransform="matrix(1, 0, 0, 1, 0, 0)" gradientUnits="userSpaceOnUse"><stop offset=".28" stop-color="#a51300"/><stop offset=".89" stop-color="#741300" stop-opacity="0"/></linearGradient><linearGradient id="New_Gradient_Swatch_4-2" x1="152.13" y1="160.15" x2="152.13" y2="129.41" xlink:href="#New_Gradient_Swatch_4"/><linearGradient id="New_Gradient_Swatch_4-3" x1="200.2" y1="160.14" x2="200.2" y2="129.4" xlink:href="#New_Gradient_Swatch_4"/><linearGradient id="New_Gradient_Swatch_4-4" x1="248.26" y1="160.13" x2="248.26" y2="129.39" xlink:href="#New_Gradient_Swatch_4"/><linearGradient id="New_Gradient_Swatch_4-5" x1="308.35" y1="160.12" x2="308.35" y2="129.38" xlink:href="#New_Gradient_Swatch_4"/><linearGradient id="New_Gradient_Swatch_4-6" x1="380.46" y1="160.11" x2="380.46" y2="129.37" xlink:href="#New_Gradient_Swatch_4"/><linearGradient id="New_Gradient_Swatch_4-7" x1="452.56" y1="160.1" x2="452.56" y2="129.36" xlink:href="#New_Gradient_Swatch_4"/><linearGradient id="New_Gradient_Swatch_4-8" x1="500.64" y1="160.09" x2="500.64" y2="129.35" xlink:href="#New_Gradient_Swatch_4"/><linearGradient id="New_Gradient_Swatch_4-9" x1="572.12" y1="160.08" x2="572.12" y2="129.33" xlink:href="#New_Gradient_Swatch_4"/><linearGradient id="New_Gradient_Swatch_4-10" x1="668.88" y1="160.06" x2="668.88" y2="129.32" xlink:href="#New_Gradient_Swatch_4"/><linearGradient id="New_Gradient_Swatch_4-11" x1="812.48" y1="160.04" x2="812.48" y2="129.29" xlink:href="#New_Gradient_Swatch_4"/><linearGradient id="New_Gradient_Swatch_2" x1="435.99" y1="129.43" x2="435.99" y2="15.16" gradientTransform="matrix(1, 0, 0, 1, 0, 0)" gradientUnits="userSpaceOnUse"><stop offset="0" stop-color="#fc9701"/><stop offset=".5" stop-color="#fc9701"/><stop offset=".5" stop-color="#fefd69"/><stop offset="1" stop-color="#e9c300"/></linearGradient><linearGradient id="New_Gradient_Swatch_3" x1="313.64" y1="301.02" x2="572.9" y2="-148.03" gradientTransform="matrix(1, 0, 0, 1, 0, 0)" gradientUnits="userSpaceOnUse"><stop offset="0" stop-color="#fff"/><stop offset=".2" stop-color="#fff"/><stop offset=".2" stop-color="#000"/><stop offset=".45" stop-color="#000"/><stop offset=".45" stop-color="#fff"/><stop offset=".7" stop-color="#fff"/><stop offset=".7" stop-color="#000"/><stop offset=".85" stop-color="#000"/><stop offset=".85" stop-color="#fff"/></linearGradient><linearGradient id="linear-gradient" x1="1692.09" y1="159.9" x2="1692.09" y2="129.14" gradientTransform="matrix(1, 0, 0, 1, 0, 0)" gradientUnits="userSpaceOnUse"><stop offset=".28" stop-color="#55899c"/><stop offset=".89" stop-color="#5c5e9c"/></linearGradient><linearGradient id="linear-gradient-2" x1="1571.27" y1="159.92" x2="1571.27" y2="129.16" xlink:href="#linear-gradient"/><linearGradient id="linear-gradient-3" x1="1619.35" y1="159.91" x2="1619.35" y2="129.15" xlink:href="#linear-gradient"/><linearGradient id="linear-gradient-4" x1="1499.77" y1="159.93" x2="1499.77" y2="129.17" xlink:href="#linear-gradient"/><linearGradient id="linear-gradient-5" x1="1402.98" y1="159.94" x2="1402.98" y2="129.19" xlink:href="#linear-gradient"/><linearGradient id="linear-gradient-6" x1="1330.87" y1="159.96" x2="1330.87" y2="129.2" xlink:href="#linear-gradient"/><linearGradient id="linear-gradient-7" x1="1222.69" y1="159.97" x2="1222.69" y2="129.22" xlink:href="#linear-gradient"/><linearGradient id="linear-gradient-8" x1="1282.78" y1="159.96" x2="1282.78" y2="129.21" xlink:href="#linear-gradient"/><linearGradient id="linear-gradient-9" x1="1126.53" y1="159.99" x2="1126.53" y2="129.24" xlink:href="#linear-gradient"/><linearGradient id="linear-gradient-10" x1="1174.61" y1="159.98" x2="1174.61" y2="129.23" xlink:href="#linear-gradient"/><linearGradient id="linear-gradient-11" x1="1055.04" y1="160.01" x2="1055.04" y2="129.25" xlink:href="#linear-gradient"/><linearGradient id="linear-gradient-12" x1="934.23" y1="160.02" x2="934.23" y2="129.27" xlink:href="#linear-gradient"/><linearGradient id="linear-gradient-13" x1="1335.42" y1="129.28" x2="1335.42" y2="15" gradientTransform="matrix(1, 0, 0, 1, 0, 0)" gradientUnits="userSpaceOnUse"><stop offset="0" stop-color="#93ace6"/><stop offset=".5" stop-color="#93ace6"/><stop offset=".5" stop-color="#8eb2ce"/><stop offset="1" stop-color="#8cdbd3"/></linearGradient><linearGradient id="New_Gradient_Swatch_3-2" x1="1205.95" y1="296.39" x2="1460.05" y2="-143.71" xlink:href="#New_Gradient_Swatch_3"/></defs><g class="cls-17"><g id="Layer_2"><g id="F_Furnitiure"><polygon id="Fantasy_Stroke" class="cls-3" points="872.06 50.6 869.93 .16 625.03 .2 276.19 .27 275.69 4.28 272.24 .27 23.94 .31 0 136.25 55.73 175.17 108.37 175.16 112.88 146.79 148.89 175.15 296.13 175.12 296.55 171.63 300.07 175.12 354.82 175.11 356.46 160.11 369.72 175.11 425.24 175.1 426.8 158.71 439.29 175.1 636.53 175.07 637.79 151.26 647.23 175.07 706.97 175.06 708.69 130.81 731.96 130.81 732.7 108.98 754.01 108.97 753.5 130.57 762.11 175.05 871.34 175.03 871.81 93.66 871.53 87.32 871.85 87.32 872.06 50.6"/><g id="Fantasy"><g id="Bottom_Up"><polygon class="cls-9" points="117.28 37.69 155.51 72.44 109.52 72.45 68.89 37.7 117.28 37.69"/><polygon class="cls-9" points="110.07 83.13 149 115.91 102.6 115.92 61.22 83.14 110.07 83.13"/><polygon class="cls-9" points="177.78 37.68 213 72.43 201.5 72.43 165.69 37.68 177.78 37.68"/><polygon class="cls-9" points="171.14 83.12 207.01 115.9 195.41 115.9 158.93 83.12 171.14 83.12"/><polygon class="cls-9" points="270.3 71.66 301.12 104.94 289.54 104.94 258.1 71.66 270.3 71.66"/><polygon class="cls-9" points="279.64 94.59 310.13 126.87 298.51 126.87 267.4 94.59 279.64 94.59"/><polygon class="cls-9" points="359.28 37.65 385.47 72.4 362.47 72.4 335.08 37.65 359.28 37.65"/><polygon class="cls-9" points="419.78 37.64 442.97 72.39 419.97 72.39 395.58 37.64 419.78 37.64"/><polygon class="cls-9" points="480.29 37.63 500.47 72.38 488.96 72.38 468.18 37.63 480.29 37.63"/><polygon class="cls-9" points="476.49 83.06 497.04 115.85 485.43 115.85 464.27 83.07 476.49 83.06"/><polygon class="cls-9" points="613.39 37.6 626.95 72.36 580.96 72.37 564.99 37.61 613.39 37.6"/><polygon class="cls-9" points="574.2 83.05 589.84 115.83 543.44 115.84 525.34 83.06 574.2 83.05"/><polygon class="cls-9" points="647.48 83.03 659.45 115.82 636.25 115.83 623.06 83.04 647.48 83.03"/><polygon class="cls-9" points="708.56 83.02 717.46 115.81 694.26 115.82 684.12 83.03 708.56 83.02"/><polygon class="cls-9" points="734.4 37.58 741.95 72.34 730.44 72.34 722.3 37.58 734.4 37.58"/><polygon class="cls-9" points="758.3 48.86 764.67 83.13 753.15 83.13 746.18 48.86 758.3 48.86"/><polygon class="cls-9" points="745.85 60.19 752.86 93.97 729.75 93.98 721.54 60.2 745.85 60.19"/><polygon class="cls-9" points="855.41 37.56 856.94 72.32 810.94 72.33 807.01 37.57 855.41 37.56"/><polygon class="cls-9" points="818.49 83 821.88 115.79 775.48 115.8 769.63 83.01 818.49 83"/></g><g id="Bottom"><g><polygon class="cls-9" points="53.42 129.43 95.56 160.16 60.45 160.16 16.43 129.43 53.42 129.43"/><path class="cls-36" d="M51.79,134.43l28.43,20.73h-18.2l-29.7-20.73h19.47m1.63-5H16.43l44.02,30.74h35.11l-42.14-30.74h0Z"/></g><g><polygon class="cls-9" points="152.05 129.41 189.2 160.14 154.09 160.15 115.06 129.42 152.05 129.41"/><path class="cls-19" d="M150.25,134.41l25.07,20.74h-19.5l-26.33-20.73h20.76m1.8-5h-36.99l39.02,30.74h35.11l-37.15-30.74h0Z"/></g><g><polygon class="cls-9" points="201.36 129.4 236.02 160.13 200.91 160.14 164.38 129.41 201.36 129.4"/><path class="cls-37" d="M199.47,134.4l23.38,20.74h-20.12l-24.65-20.73h21.38m1.9-5h-36.99l36.53,30.74h35.12l-34.66-30.74h0Z"/></g><g><polygon class="cls-9" points="250.68 129.39 282.84 160.13 247.72 160.13 213.69 129.4 250.68 129.39"/><path class="cls-56" d="M248.67,134.39l21.7,20.74h-20.73l-22.96-20.73h21.99m2-5h-36.99l34.03,30.74h35.12l-32.16-30.74h0Z"/></g><g><polygon class="cls-9" points="312.33 129.38 341.37 160.12 306.25 160.12 275.34 129.39 312.33 129.38"/><path class="cls-20" d="M310.17,134.38l19.59,20.74h-21.45l-20.86-20.73h22.71m2.15-5h-36.99l30.91,30.74h35.12l-29.04-30.74h0Z"/></g><g><polygon class="cls-9" points="386.3 129.37 411.6 160.11 376.48 160.11 349.32 129.38 386.3 129.37"/><path class="cls-21" d="M383.94,134.37l17.07,20.74h-22.27l-18.33-20.73h23.54m2.36-5h-36.99l27.17,30.74h35.12l-25.3-30.74h0Z"/></g><g><polygon class="cls-9" points="460.28 129.36 481.83 160.09 446.72 160.1 423.29 129.36 460.28 129.36"/><path class="cls-10" d="M457.68,134.36l14.54,20.74h-23.03l-15.8-20.73h24.29m2.6-5h-36.99l23.43,30.74h35.12l-21.55-30.74h0Z"/></g><g><polygon class="cls-9" points="509.61 129.35 528.66 160.09 493.55 160.09 472.62 129.35 509.61 129.35"/><path class="cls-40" d="M506.82,134.35l12.86,20.74h-23.49l-14.12-20.73h24.75m2.78-5h-36.99l20.93,30.74h35.12l-19.06-30.74h0Z"/></g><g><polygon class="cls-9" points="608.24 129.33 622.3 160.07 540.37 160.08 521.93 129.35 608.24 129.33"/><path class="cls-41" d="M605.03,134.33l9.49,20.74h-71.32l-12.44-20.73h74.27m3.21-5.01h-86.31l18.43,30.75h81.94l-14.06-30.75h0Z"/></g><g><polygon class="cls-9" points="682.22 129.32 692.54 160.06 657.42 160.06 645.23 129.33 682.22 129.32"/><path class="cls-52" d="M678.62,134.32l6.96,20.74h-24.77l-8.23-20.74h26.03m3.6-5.01h-36.99l12.19,30.75h35.12l-10.32-30.75h0Z"/></g><g><polygon class="cls-9" points="854.85 129.29 856.43 160.03 774.49 160.04 768.54 129.3 854.85 129.29"/><path class="cls-43" d="M850.1,134.29l1.07,20.74h-72.55l-4.02-20.73h75.5m4.75-5.01h-86.31l5.95,30.76h81.94l-1.58-30.76h0Z"/></g></g><g id="Side"><polygon class="cls-9" points="120.83 15.3 158.71 51 155.51 72.44 117.28 37.69 120.83 15.3"/><polygon class="cls-9" points="68.89 37.7 109.52 72.45 106.07 94.09 65.07 60.31 68.89 37.7"/><polygon class="cls-9" points="113.69 60.3 152.27 94.08 149 115.91 110.07 83.13 113.69 60.3"/><polygon class="cls-9" points="61.22 83.14 102.6 115.92 95.56 160.16 53.42 129.43 61.22 83.14"/><polygon class="cls-9" points="165.69 37.68 201.5 72.43 198.47 94.07 162.32 60.29 165.69 37.68"/><polygon class="cls-9" points="158.93 83.12 195.41 115.9 189.2 160.14 152.05 129.41 158.93 83.12"/><polygon class="cls-9" points="217.19 15.28 250.3 50.99 236.02 160.13 201.36 129.4 217.19 15.28"/><polygon class="cls-9" points="265.36 15.27 296.09 50.98 293.48 72.42 262.48 37.66 265.36 15.27"/><polygon class="cls-9" points="274.58 37.66 304.99 72.41 302.41 94.05 271.73 60.28 274.58 37.66"/><polygon class="cls-9" points="258.1 71.66 289.54 104.94 282.84 160.13 250.68 129.39 258.1 71.66"/><polygon class="cls-9" points="325.58 15.26 353.33 50.97 341.37 160.12 312.33 129.38 325.58 15.26"/><polygon class="cls-9" points="421.94 15.24 444.91 50.95 442.97 72.39 419.78 37.64 421.94 15.24"/><polygon class="cls-9" points="395.58 37.64 419.97 72.39 411.6 160.11 386.3 129.37 395.58 37.64"/><polygon class="cls-9" points="468.18 37.63 488.96 72.38 487.2 94.02 466.23 60.24 468.18 37.63"/><polygon class="cls-9" points="464.27 83.07 485.43 115.85 481.83 160.09 460.28 129.36 464.27 83.07"/><polygon class="cls-9" points="518.3 15.22 536.5 50.93 528.66 160.09 509.61 129.35 518.3 15.22"/><polygon class="cls-9" points="614.65 15.21 628.08 50.92 626.95 72.36 613.39 37.6 614.65 15.21"/><polygon class="cls-9" points="564.99 37.61 580.96 72.37 579.61 94 563.49 60.22 564.99 37.61"/><polygon class="cls-9" points="612.12 60.21 625.8 94 622.3 160.07 608.24 129.33 612.12 60.21"/><polygon class="cls-9" points="662.83 15.2 673.88 50.91 672.01 93.99 660.75 60.21 662.83 15.2"/><polygon class="cls-9" points="711.01 15.19 719.68 50.9 717.46 115.81 708.56 83.02 711.01 15.19"/><polygon class="cls-9" points="684.12 83.03 694.26 115.82 692.54 160.06 682.22 129.32 684.12 83.03"/><polygon class="cls-9" points="759.18 15.18 765.47 50.89 764.67 83.13 758.3 48.86 759.18 15.18"/><polygon class="cls-9" points="746.18 48.86 753.15 83.13 752.86 93.97 745.85 60.19 746.18 48.86"/><polygon class="cls-9" points="855.55 15.16 857.06 50.88 856.94 72.32 855.41 37.56 855.55 15.16"/><polygon class="cls-9" points="807.01 37.57 810.94 72.33 810.61 93.96 806.64 60.18 807.01 37.57"/><polygon class="cls-9" points="855.27 60.17 856.81 93.96 856.43 160.03 854.85 129.29 855.27 60.17"/></g><path id="Face" class="cls-33" d="M120.83,15.3l-3.55,22.39h-48.39l-3.81,22.62h48.62l-3.62,22.82H61.22l-7.81,46.3H16.43L36.53,15.31l84.3-.02Zm-5.77,114.12h36.99l6.88-46.3h12.21l-6.76,46.29h36.99l15.82-114.13-84.3,.02-17.82,114.12Zm59.41-69.12h-12.15l3.36-22.61h12.1l-3.3,22.61M289.45,15.27l-5.56,45.01h-12.15l2.85-22.61h-12.11l2.88-22.39h-36.13l-15.54,114.13h36.99l7.43-57.74h12.19l-2.89,22.93h12.24l-4.3,34.8h36.99l13.25-114.13h-36.13Zm48.17,0l-2.54,22.4h24.2l-9.97,91.72h36.99l9.28-91.73h24.2l2.15-22.4-84.32,.02Zm85.67,114.11h36.99l3.99-46.3h12.22l-3.87,46.29h36.99l8.69-114.13-84.32,.02-10.69,114.12Zm55.11-69.12h-12.16l1.95-22.61h12.11l-1.89,22.61m51.94-45.02l-5,67.83h48.85l-1.47,23.02h-49.08l-1.71,23.27h86.31l3.88-69.13h-48.63l1.5-22.6h48.4l1.26-22.4-84.31,.02Zm144.54-.03l-1.96,45.01h-12.15l2.08-45.01h-36.13l-3.64,67.84h24.42l-2.25,46.29h36.99l1.9-46.3h24.43l2.45-67.84h-36.13Zm48.18,0l-.75,22.4h12.11l-.35,11.28h-12.14l-.38,11.33h24.32l.32-11.33h12.13l.88-33.68h-36.14Zm48.19,0l-1.6,67.83h48.86l-.31,23.02h-49.09l-.55,23.27h86.31l.42-69.13h-48.63l.36-22.6h48.4l.14-22.4-84.31,.02Z"/><g id="Face-2" class="cls-27"><g><g class="cls-17"><polygon class="cls-22" points="854.85 129.29 768.54 129.3 772.64 125.3 850.88 125.29 854.85 129.29"/><polygon class="cls-31" points="768.54 129.3 769.09 106.05 773 110.05 772.64 125.3 768.54 129.3"/><polygon class="cls-15" points="769.09 106.05 818.18 106.04 822.12 110.04 773 110.05 769.09 106.05"/><polygon class="cls-31" points="818.18 106.04 818.49 83.01 822.55 79.01 822.12 110.04 818.18 106.04"/><polygon class="cls-22" points="818.49 83.01 769.63 83.01 773.73 79.01 822.55 79.01 818.49 83.01"/><polygon class="cls-15" points="806.65 60.18 855.27 60.17 851.25 64.18 802.58 64.18 806.65 60.18"/><polygon class="cls-39" points="855.27 60.17 854.85 129.29 850.88 125.29 851.25 64.18 855.27 60.17"/><polygon class="cls-39" points="807.01 37.57 806.65 60.18 802.58 64.18 803.07 33.57 807.01 37.57"/><polygon class="cls-22" points="855.41 37.56 807.01 37.57 803.07 33.57 851.43 33.56 855.41 37.56"/><polygon class="cls-31" points="769.63 83.01 771.23 15.17 775.14 19.17 773.73 79.01 769.63 83.01"/><polygon class="cls-39" points="855.55 15.17 855.41 37.56 851.43 33.56 851.53 19.17 855.55 15.17"/><polygon class="cls-15" points="771.23 15.17 855.55 15.17 851.53 19.17 775.14 19.17 771.23 15.17"/><rect class="cls-42" x="768.54" y="129.29" width="86.31" height="0"/><rect class="cls-34" x="757.18" y="117.68" width="23.26" height="0" transform="translate(633.02 883.5) rotate(-88.65)"/><rect class="cls-42" x="793.63" y="81.5" width="0" height="49.09" transform="translate(-4.85 165.35) rotate(-11.86)"/><rect class="cls-34" x="806.82" y="94.52" width="23.03" height="0" transform="translate(712.62 911.49) rotate(-89.22)"/><rect class="cls-42" x="769.63" y="83.01" width="48.86" height="0"/><rect class="cls-32" x="820.51" y="94.73" width="69.11" height="0" transform="translate(755.1 949.2) rotate(-89.65)"/><rect class="cls-42" x="806.65" y="60.18" width="48.63" height="0" transform="translate(607.85 862.89) rotate(-78.61)"/><rect class="cls-32" x="795.52" y="48.88" width="22.62" height="0" transform="translate(745.13 854.82) rotate(-89.09)"/><rect class="cls-42" x="807.01" y="37.56" width="48.4" height="0"/><rect class="cls-34" x="736.51" y="49.09" width="67.85" height="0" transform="translate(703.16 818.15) rotate(-88.65)"/><rect class="cls-32" x="844.28" y="26.36" width="22.39" height="0" transform="translate(823.62 881.66) rotate(-89.63)"/><rect class="cls-42" x="813.39" y="-26.99" width="0" height="84.32" transform="translate(14.23 167.41) rotate(-11.85)"/><polygon class="cls-15" points="850.88 125.29 854.85 129.29 768.54 129.3 772.64 125.3 850.88 125.29"/><polygon class="cls-39" points="772.64 125.3 768.54 129.3 769.09 106.05 773 110.05 772.64 125.3"/><polygon class="cls-22" points="773 110.05 769.09 106.05 818.18 106.04 822.12 110.04 773 110.05"/><polygon class="cls-39" points="822.12 110.04 818.18 106.04 818.49 83.01 822.55 79.01 822.12 110.04"/><polygon class="cls-15" points="822.55 79.01 818.49 83.01 769.63 83.01 773.73 79.01 822.55 79.01"/><polygon class="cls-22" points="802.58 64.18 806.65 60.18 855.27 60.17 851.25 64.18 802.58 64.18"/><polygon class="cls-2" points="851.25 64.18 855.27 60.17 854.85 129.29 850.88 125.29 851.25 64.18"/><polygon class="cls-31" points="803.07 33.57 807.01 37.57 806.65 60.18 802.58 64.18 803.07 33.57"/><polygon class="cls-15" points="851.43 33.56 855.41 37.56 807.01 37.57 803.07 33.57 851.43 33.56"/><polygon class="cls-39" points="773.73 79.01 769.63 83.01 771.23 15.17 775.14 19.17 773.73 79.01"/><polygon class="cls-22" points="775.14 19.17 771.23 15.17 855.55 15.17 851.53 19.17 775.14 19.17"/><polygon class="cls-2" points="851.53 19.17 855.55 15.17 855.41 37.56 851.43 33.56 851.53 19.17"/></g><g class="cls-17"><polygon class="cls-22" points="745.85 60.19 721.53 60.19 725.67 56.19 741.96 56.19 745.85 60.19"/><polygon class="cls-15" points="721.91 48.86 734.05 48.86 737.93 52.86 725.78 52.86 721.91 48.86"/><polygon class="cls-31" points="721.53 60.19 721.91 48.86 725.78 52.86 725.67 56.19 721.53 60.19"/><polygon class="cls-22" points="758.31 48.86 746.18 48.86 742.29 44.86 754.41 44.86 758.31 48.86"/><polygon class="cls-39" points="746.18 48.86 745.85 60.19 741.96 56.19 742.29 44.86 746.18 48.86"/><polygon class="cls-22" points="734.4 37.58 722.3 37.59 726.44 33.58 738.53 33.57 734.4 37.58"/><polygon class="cls-31" points="734.05 48.86 734.4 37.58 738.53 33.57 737.93 52.86 734.05 48.86"/><polygon class="cls-15" points="723.05 15.18 759.18 15.18 755.08 19.18 726.92 19.18 723.05 15.18"/><polygon class="cls-31" points="722.3 37.59 723.05 15.18 726.92 19.18 726.44 33.58 722.3 37.59"/><polygon class="cls-39" points="759.18 15.18 758.31 48.86 754.41 44.86 755.08 19.18 759.18 15.18"/><rect class="cls-42" x="721.53" y="60.19" width="24.32" height="0"/><rect class="cls-34" x="716.05" y="54.53" width="11.34" height="0" transform="translate(643.14 774.03) rotate(-88.09)"/><rect class="cls-42" x="727.98" y="42.79" width="0" height="12.14" transform="translate(5.68 151.94) rotate(-11.96)"/><rect class="cls-42" x="746.18" y="48.86" width="12.13" height="0"/><rect class="cls-32" x="740.35" y="54.53" width="11.34" height="0" transform="translate(670.2 798.68) rotate(-88.36)"/><rect class="cls-34" x="728.58" y="43.22" width="11.29" height="0" transform="translate(668.19 775.75) rotate(-88.22)"/><rect class="cls-42" x="722.3" y="37.58" width="12.1" height="0"/><rect class="cls-34" x="711.47" y="26.38" width="22.41" height="0" transform="translate(672.22 747.78) rotate(-88.09)"/><rect class="cls-32" x="741.9" y="32.02" width="33.69" height="0" transform="translate(707.07 789.68) rotate(-88.52)"/><rect class="cls-42" x="741.11" y="-2.88" width="0" height="36.13" transform="translate(12.94 153.92) rotate(-11.96)"/><polygon class="cls-15" points="741.96 56.19 745.85 60.19 721.53 60.19 725.67 56.19 741.96 56.19"/><polygon class="cls-22" points="725.78 52.86 721.91 48.86 734.05 48.86 737.93 52.86 725.78 52.86"/><polygon class="cls-39" points="725.67 56.19 721.53 60.19 721.91 48.86 725.78 52.86 725.67 56.19"/><polygon class="cls-31" points="742.29 44.86 746.18 48.86 745.85 60.19 741.96 56.19 742.29 44.86"/><polygon class="cls-15" points="754.41 44.86 758.31 48.86 746.18 48.86 742.29 44.86 754.41 44.86"/><polygon class="cls-39" points="737.93 52.86 734.05 48.86 734.4 37.58 738.53 33.57 737.93 52.86"/><polygon class="cls-15" points="738.53 33.57 734.4 37.58 722.3 37.59 726.44 33.58 738.53 33.57"/><polygon class="cls-22" points="726.92 19.18 723.05 15.18 759.18 15.18 755.08 19.18 726.92 19.18"/><polygon class="cls-39" points="726.44 33.58 722.3 37.59 723.05 15.18 726.92 19.18 726.44 33.58"/><polygon class="cls-31" points="755.08 19.18 759.18 15.18 758.31 48.86 754.41 44.86 755.08 19.18"/></g><g class="cls-17"><polygon class="cls-22" points="682.22 129.32 645.23 129.32 649.43 125.32 678.38 125.32 682.22 129.32"/><polygon class="cls-18" points="645.23 129.32 647.48 83.03 651.68 79.03 649.43 125.32 645.23 129.32"/><polygon class="cls-22" points="647.48 83.03 623.06 83.03 627.28 79.03 651.68 79.03 647.48 83.03"/><polygon class="cls-22" points="708.56 83.03 684.12 83.03 680.28 79.03 704.7 79.03 708.56 83.03"/><polygon class="cls-39" points="684.12 83.03 682.22 129.32 678.38 125.32 680.28 79.03 684.12 83.03"/><polygon class="cls-15" points="660.76 60.2 672.91 60.2 676.74 64.2 656.57 64.2 660.76 60.2"/><polygon class="cls-18" points="623.06 83.03 626.69 15.2 630.48 19.2 627.28 79.03 623.06 83.03"/><polygon class="cls-59" points="662.83 15.19 660.76 60.2 656.57 64.2 658.64 19.19 662.83 15.19"/><polygon class="cls-18" points="672.91 60.2 674.87 15.19 678.7 19.19 676.74 64.2 672.91 60.2"/><polygon class="cls-15" points="626.69 15.2 662.83 15.19 658.64 19.19 630.48 19.2 626.69 15.2"/><polygon class="cls-15" points="674.87 15.19 711 15.18 706.86 19.19 678.7 19.19 674.87 15.19"/><polygon class="cls-39" points="711 15.18 708.56 83.03 704.7 79.03 706.86 19.19 711 15.18"/><rect class="cls-42" x="645.23" y="129.32" width="36.99" height="0"/><rect class="cls-57" x="623.19" y="106.18" width="46.34" height="0" transform="translate(508.92 746.62) rotate(-87.22)"/><rect class="cls-42" x="623.06" y="83.03" width="24.43" height="0"/><rect class="cls-32" x="660" y="106.17" width="46.34" height="0" transform="translate(549.08 784.42) rotate(-87.65)"/><rect class="cls-42" x="684.12" y="83.03" width="24.43" height="0"/><rect class="cls-42" x="660.76" y="60.2" width="12.15" height="0" transform="translate(479.69 703.06) rotate(-78.93)"/><rect class="cls-57" x="590.91" y="49.12" width="67.93" height="0" transform="translate(542.38 670.47) rotate(-86.93)"/><rect class="cls-57" x="651.36" y="37.7" width="45.05" height="0" transform="translate(606.88 709.31) rotate(-87.5)"/><rect class="cls-32" x="639.26" y="37.7" width="45.06" height="0" transform="translate(593.73 697.06) rotate(-87.37)"/><rect class="cls-42" x="644.76" y="-2.87" width="0" height="36.13" transform="translate(11.37 136.72) rotate(-12.21)"/><rect class="cls-32" x="675.84" y="49.1" width="67.89" height="0" transform="translate(635.11 756.65) rotate(-87.93)"/><rect class="cls-42" x="692.94" y="-2.88" width="0" height="36.14" transform="translate(12.2 145.51) rotate(-12.09)"/><polygon class="cls-15" points="678.38 125.32 682.22 129.32 645.23 129.32 649.43 125.32 678.38 125.32"/><polygon class="cls-59" points="649.43 125.32 645.23 129.32 647.48 83.03 651.68 79.03 649.43 125.32"/><polygon class="cls-15" points="651.68 79.03 647.48 83.03 623.06 83.03 627.28 79.03 651.68 79.03"/><polygon class="cls-18" points="680.28 79.03 684.12 83.03 682.22 129.32 678.38 125.32 680.28 79.03"/><polygon class="cls-15" points="704.7 79.03 708.56 83.03 684.12 83.03 680.28 79.03 704.7 79.03"/><polygon class="cls-22" points="656.57 64.2 660.76 60.2 672.91 60.2 676.74 64.2 656.57 64.2"/><polygon class="cls-59" points="627.28 79.03 623.06 83.03 626.69 15.2 630.48 19.2 627.28 79.03"/><polygon class="cls-18" points="658.64 19.19 662.83 15.19 660.76 60.2 656.57 64.2 658.64 19.19"/><polygon class="cls-22" points="630.48 19.2 626.69 15.2 662.83 15.19 658.64 19.19 630.48 19.2"/><polygon class="cls-59" points="676.74 64.2 672.91 60.2 674.87 15.19 678.7 19.19 676.74 64.2"/><polygon class="cls-22" points="678.7 19.19 674.87 15.19 711 15.18 706.86 19.19 678.7 19.19"/><polygon class="cls-31" points="706.86 19.19 711 15.18 708.56 83.03 704.7 79.03 706.86 19.19"/></g><g class="cls-17"><polygon class="cls-22" points="608.24 129.33 521.93 129.35 526.24 125.35 604.46 125.33 608.24 129.33"/><polygon class="cls-50" points="521.93 129.35 523.64 106.08 527.36 110.08 526.24 125.35 521.93 129.35"/><polygon class="cls-15" points="523.64 106.08 572.73 106.07 576.48 110.07 527.36 110.08 523.64 106.08"/><polygon class="cls-50" points="572.73 106.07 574.2 83.04 578.46 79.04 576.48 110.07 572.73 106.07"/><polygon class="cls-22" points="574.2 83.04 525.34 83.05 529.65 79.05 578.46 79.04 574.2 83.04"/><polygon class="cls-15" points="563.49 60.22 612.12 60.21 607.89 64.21 559.22 64.22 563.49 60.22"/><polygon class="cls-59" points="612.12 60.21 608.24 129.33 604.46 125.33 607.89 64.21 612.12 60.21"/><polygon class="cls-59" points="564.99 37.61 563.49 60.22 559.22 64.22 561.24 33.61 564.99 37.61"/><polygon class="cls-22" points="613.39 37.6 564.99 37.61 561.24 33.61 609.61 33.6 613.39 37.6"/><polygon class="cls-50" points="525.34 83.05 530.34 15.22 534.05 19.22 529.65 79.05 525.34 83.05"/><polygon class="cls-15" points="530.34 15.22 614.65 15.2 610.42 19.2 534.05 19.22 530.34 15.22"/><polygon class="cls-59" points="614.65 15.2 613.39 37.6 609.61 33.6 610.42 19.2 614.65 15.2"/><rect class="cls-42" x="521.93" y="129.34" width="86.31" height="0"/><rect class="cls-57" x="511.12" y="117.72" width="23.33" height="0" transform="translate(367.06 630.47) rotate(-85.8)"/><rect class="cls-42" x="548.19" y="81.54" width="0" height="49.09" transform="translate(-9.98 120.63) rotate(-12.45)"/><rect class="cls-57" x="561.92" y="94.56" width="23.08" height="0" transform="translate(442.64 660.85) rotate(-86.36)"/><rect class="cls-42" x="525.34" y="83.05" width="48.85" height="0"/><rect class="cls-32" x="575.57" y="94.77" width="69.23" height="0" transform="translate(481.37 698.68) rotate(-86.79)"/><rect class="cls-42" x="563.49" y="60.22" width="48.63" height="0" transform="translate(418.05 626.19) rotate(-79.15)"/><rect class="cls-32" x="552.91" y="48.92" width="22.66" height="0" transform="translate(478.23 608.7) rotate(-86.22)"/><rect class="cls-42" x="564.99" y="37.61" width="48.4" height="0"/><rect class="cls-57" x="493.83" y="49.14" width="68.02" height="0" transform="translate(440.07 571.94) rotate(-85.79)"/><rect class="cls-32" x="602.8" y="26.4" width="22.44" height="0" transform="translate(553.17 637.97) rotate(-86.78)"/><rect class="cls-42" x="572.49" y="-26.94" width="0" height="84.31" transform="translate(10.18 123.76) rotate(-12.45)"/><polygon class="cls-15" points="604.46 125.33 608.24 129.33 521.93 129.35 526.24 125.35 604.46 125.33"/><polygon class="cls-59" points="526.24 125.35 521.93 129.35 523.64 106.08 527.36 110.08 526.24 125.35"/><polygon class="cls-22" points="527.36 110.08 523.64 106.08 572.73 106.07 576.48 110.07 527.36 110.08"/><polygon class="cls-15" points="578.46 79.04 574.2 83.04 525.34 83.05 529.65 79.05 578.46 79.04"/><polygon class="cls-59" points="576.48 110.07 572.73 106.07 574.2 83.04 578.46 79.04 576.48 110.07"/><polygon class="cls-22" points="559.22 64.22 563.49 60.22 612.12 60.21 607.89 64.21 559.22 64.22"/><polygon class="cls-18" points="607.89 64.21 612.12 60.21 608.24 129.33 604.46 125.33 607.89 64.21"/><polygon class="cls-50" points="561.24 33.61 564.99 37.61 563.49 60.22 559.22 64.22 561.24 33.61"/><polygon class="cls-15" points="609.61 33.6 613.39 37.6 564.99 37.61 561.24 33.61 609.61 33.6"/><polygon class="cls-59" points="529.65 79.05 525.34 83.05 530.34 15.22 534.05 19.22 529.65 79.05"/><polygon class="cls-22" points="534.05 19.22 530.34 15.22 614.65 15.2 610.42 19.2 534.05 19.22"/><polygon class="cls-18" points="610.42 19.2 614.65 15.2 613.39 37.6 609.61 33.6 610.42 19.2"/></g><g class="cls-17"><polygon class="cls-22" points="460.28 129.36 423.29 129.37 427.68 125.37 456.61 125.36 460.28 129.36"/><polygon class="cls-22" points="509.6 129.35 472.61 129.36 476.96 125.36 505.9 125.35 509.6 129.35"/><polygon class="cls-50" points="472.61 129.36 476.49 83.06 480.84 79.06 476.96 125.36 472.61 129.36"/><polygon class="cls-22" points="476.49 83.06 464.27 83.06 460.6 79.06 480.84 79.06 476.49 83.06"/><polygon class="cls-59" points="464.27 83.06 460.28 129.36 456.61 125.36 460.6 79.06 464.27 83.06"/><polygon class="cls-15" points="466.23 60.24 478.4 60.24 482.08 64.24 461.87 64.24 466.23 60.24"/><polygon class="cls-59" points="468.18 37.63 466.23 60.24 461.87 64.24 464.51 33.63 468.18 37.63"/><polygon class="cls-22" points="480.29 37.62 468.18 37.63 464.51 33.63 484.64 33.62 480.29 37.62"/><polygon class="cls-50" points="478.4 60.24 480.29 37.62 484.64 33.62 482.08 64.24 478.4 60.24"/><polygon class="cls-5" points="423.29 129.37 433.98 15.24 437.62 19.24 427.68 125.37 423.29 129.37"/><polygon class="cls-15" points="433.98 15.24 518.3 15.22 513.98 19.22 437.62 19.24 433.98 15.24"/><polygon class="cls-59" points="518.3 15.22 509.6 129.35 505.9 125.35 513.98 19.22 518.3 15.22"/><rect class="cls-42" x="423.29" y="129.36" width="36.99" height="0"/><rect class="cls-42" x="472.61" y="129.35" width="36.99" height="0"/><rect class="cls-32" x="439.04" y="106.21" width="46.47" height="0" transform="translate(316.79 557.67) rotate(-85.08)"/><rect class="cls-42" x="464.27" y="83.06" width="12.22" height="0"/><polygon class="cls-15" points="505.9 125.35 509.6 129.35 472.61 129.36 476.96 125.36 505.9 125.35"/><rect class="cls-23" x="451.32" y="106.21" width="46.46" height="0" transform="translate(329.09 570.24) rotate(-85.21)"/><rect class="cls-42" x="466.23" y="60.24" width="12.17" height="0" transform="translate(325.87 513.3) rotate(-79.36)"/><rect class="cls-32" x="455.86" y="48.93" width="22.69" height="0" transform="translate(378.24 510.2) rotate(-85.06)"/><rect class="cls-42" x="468.18" y="37.63" width="12.1" height="0"/><rect class="cls-23" x="468" y="48.93" width="22.7" height="0" transform="translate(390.66 522.53) rotate(-85.22)"/><rect class="cls-23" x="371.32" y="72.3" width="114.63" height="0" transform="translate(316.7 492.33) rotate(-84.65)"/><rect class="cls-32" x="456.72" y="72.28" width="114.46" height="0" transform="translate(402.83 579.26) rotate(-85.64)"/><rect class="cls-42" x="476.14" y="-26.93" width="0" height="84.32" transform="translate(8.29 104.97) rotate(-12.69)"/><polygon class="cls-15" points="456.61 125.36 460.28 129.36 423.29 129.37 427.68 125.37 456.61 125.36"/><polygon class="cls-50" points="460.6 79.06 464.27 83.06 460.28 129.36 456.61 125.36 460.6 79.06"/><polygon class="cls-59" points="476.96 125.36 472.61 129.36 476.49 83.06 480.84 79.06 476.96 125.36"/><polygon class="cls-15" points="480.84 79.06 476.49 83.06 464.27 83.06 460.6 79.06 480.84 79.06"/><polygon class="cls-22" points="461.87 64.24 466.23 60.24 478.4 60.24 482.08 64.24 461.87 64.24"/><polygon class="cls-5" points="464.51 33.63 468.18 37.63 466.23 60.24 461.87 64.24 464.51 33.63"/><polygon class="cls-59" points="482.08 64.24 478.4 60.24 480.29 37.62 484.64 33.62 482.08 64.24"/><polygon class="cls-15" points="484.64 33.62 480.29 37.62 468.18 37.63 464.51 33.63 484.64 33.62"/><polygon class="cls-59" points="427.68 125.37 423.29 129.37 433.98 15.24 437.62 19.24 427.68 125.37"/><polygon class="cls-22" points="437.62 19.24 433.98 15.24 518.3 15.22 513.98 19.22 437.62 19.24"/><polygon class="cls-50" points="513.98 19.22 518.3 15.22 509.6 129.35 505.9 125.35 513.98 19.22"/></g><g class="cls-17"><polygon class="cls-22" points="386.3 129.37 349.31 129.38 353.77 125.37 382.69 125.37 386.3 129.37"/><polygon class="cls-5" points="349.31 129.38 359.28 37.65 363.74 33.65 353.77 125.37 349.31 129.38"/><polygon class="cls-22" points="359.28 37.65 335.07 37.65 339.55 33.65 363.74 33.65 359.28 37.65"/><polygon class="cls-22" points="419.78 37.64 395.58 37.64 391.97 33.64 416.15 33.64 419.78 37.64"/><polygon class="cls-59" points="395.58 37.64 386.3 129.37 382.69 125.37 391.97 33.64 395.58 37.64"/><polygon class="cls-30" points="335.07 37.65 337.62 15.26 341.19 19.26 339.55 33.65 335.07 37.65"/><polygon class="cls-15" points="337.62 15.26 421.93 15.24 417.53 19.24 341.19 19.26 337.62 15.26"/><polygon class="cls-59" points="421.93 15.24 419.78 37.64 416.15 33.64 417.53 19.24 421.93 15.24"/><rect class="cls-42" x="349.31" y="129.37" width="36.99" height="0"/><rect class="cls-23" x="308.16" y="83.51" width="92.27" height="0" transform="translate(232.98 426.71) rotate(-83.8)"/><rect class="cls-42" x="335.07" y="37.65" width="24.21" height="0"/><rect class="cls-42" x="395.58" y="37.64" width="24.2" height="0"/><rect class="cls-32" x="344.84" y="83.5" width="92.2" height="0" transform="translate(268.52 464.06) rotate(-84.22)"/><rect class="cls-23" x="325.08" y="26.45" width="22.54" height="0" transform="translate(272.05 357.65) rotate(-83.51)"/><rect class="cls-32" x="409.61" y="26.44" width="22.5" height="0" transform="translate(354.31 442.84) rotate(-84.51)"/><rect class="cls-42" x="379.78" y="-26.91" width="0" height="84.31" transform="translate(6.23 85.42) rotate(-12.94)"/><polygon class="cls-15" points="382.69 125.37 386.3 129.37 349.31 129.38 353.77 125.37 382.69 125.37"/><polygon class="cls-15" points="363.74 33.65 359.28 37.65 335.07 37.65 339.55 33.65 363.74 33.65"/><polygon class="cls-59" points="353.77 125.37 349.31 129.38 359.28 37.65 363.74 33.65 353.77 125.37"/><polygon class="cls-15" points="416.15 33.64 419.78 37.64 395.58 37.64 391.97 33.64 416.15 33.64"/><polygon class="cls-5" points="391.97 33.64 395.58 37.64 386.3 129.37 382.69 125.37 391.97 33.64"/><polygon class="cls-59" points="339.55 33.65 335.07 37.65 337.62 15.26 341.19 19.26 339.55 33.65"/><polygon class="cls-22" points="341.19 19.26 337.62 15.26 421.93 15.24 417.53 19.24 341.19 19.26"/><polygon class="cls-5" points="417.53 19.24 421.93 15.24 419.78 37.64 416.15 33.64 417.53 19.24"/></g><g class="cls-17"><polygon class="cls-22" points="53.42 129.43 16.43 129.43 21.2 125.43 50.04 125.43 53.42 129.43"/><polygon class="cls-22" points="152.05 129.41 115.06 129.41 119.73 125.41 148.6 125.41 152.05 129.41"/><polygon class="cls-22" points="201.36 129.4 164.38 129.4 169.01 125.4 197.88 125.4 201.36 129.4"/><polygon class="cls-22" points="250.68 129.39 213.69 129.4 218.27 125.4 247.16 125.39 250.68 129.39"/><polygon class="cls-22" points="312.33 129.38 275.34 129.38 279.87 125.38 308.77 125.38 312.33 129.38"/><polygon class="cls-22" points="279.64 94.59 267.4 94.59 271.94 90.59 284.17 90.59 279.64 94.59"/><polygon class="cls-30" points="275.34 129.38 279.64 94.59 284.17 90.59 279.87 125.38 275.34 129.38"/><polygon class="cls-15" points="61.22 83.13 53.42 129.43 50.04 125.43 57.84 79.13 61.22 83.13"/><polygon class="cls-22" points="110.07 83.12 61.22 83.13 57.84 79.13 106.66 79.13 110.07 83.12"/><polygon class="cls-15" points="158.93 83.12 152.05 129.41 148.6 125.41 155.49 79.12 158.93 83.12"/><polygon class="cls-54" points="164.38 129.4 171.14 83.12 175.77 79.12 169.01 125.4 164.38 129.4"/><polygon class="cls-22" points="171.14 83.12 158.93 83.12 155.49 79.12 175.77 79.12 171.14 83.12"/><polygon class="cls-30" points="267.4 94.59 270.29 71.66 274.83 67.66 271.94 90.59 267.4 94.59"/><polygon class="cls-15" points="258.11 71.66 250.68 129.39 247.16 125.39 254.59 67.66 258.11 71.66"/><polygon class="cls-22" points="270.29 71.66 258.11 71.66 254.59 67.66 274.83 67.66 270.29 71.66"/><polygon class="cls-15" points="113.69 60.3 110.07 83.12 106.66 79.13 109.01 64.3 113.69 60.3"/><polygon class="cls-15" points="65.07 60.31 113.69 60.3 109.01 64.3 60.34 64.31 65.07 60.31"/><polygon class="cls-15" points="162.33 60.29 174.48 60.29 177.94 64.29 157.69 64.29 162.33 60.29"/><polygon class="cls-15" points="271.73 60.27 283.88 60.27 287.42 64.27 267.2 64.27 271.73 60.27"/><polygon class="cls-15" points="68.88 37.7 65.07 60.31 60.34 64.31 65.5 33.7 68.88 37.7"/><polygon class="cls-22" points="117.28 37.69 68.88 37.7 65.5 33.7 113.87 33.69 117.28 37.69"/><polygon class="cls-15" points="165.68 37.68 162.33 60.29 157.69 64.29 162.23 33.68 165.68 37.68"/><polygon class="cls-22" points="177.78 37.68 165.68 37.68 162.23 33.68 182.41 33.68 177.78 37.68"/><polygon class="cls-54" points="174.48 60.29 177.78 37.68 182.41 33.68 177.94 64.29 174.48 60.29"/><polygon class="cls-15" points="262.48 37.67 274.59 37.67 270.05 41.67 257.93 41.67 262.48 37.67"/><polygon class="cls-59" points="274.59 37.67 271.73 60.27 267.2 64.27 270.05 41.67 274.59 37.67"/><polygon class="cls-22" points="16.43 129.43 36.54 15.31 39.89 19.31 21.2 125.43 16.43 129.43"/><polygon class="cls-15" points="120.83 15.29 117.28 37.69 113.87 33.69 116.15 19.29 120.83 15.29"/><polygon class="cls-54" points="115.06 129.41 132.88 15.29 136.3 19.29 119.73 125.41 115.06 129.41"/><polygon class="cls-15" points="36.54 15.31 120.83 15.29 116.15 19.29 39.89 19.31 36.54 15.31"/><polygon class="cls-15" points="132.88 15.29 217.18 15.27 212.59 19.27 136.3 19.29 132.88 15.29"/><polygon class="cls-54" points="213.69 129.4 229.23 15.27 232.72 19.27 218.27 125.4 213.69 129.4"/><polygon class="cls-15" points="217.18 15.27 201.36 129.4 197.88 125.4 212.59 19.27 217.18 15.27"/><polygon class="cls-30" points="283.88 60.27 289.44 15.26 292.98 19.26 287.42 64.27 283.88 60.27"/><polygon class="cls-15" points="265.36 15.26 262.48 37.67 257.93 41.67 260.81 19.27 265.36 15.26"/><polygon class="cls-15" points="229.23 15.27 265.36 15.26 260.81 19.27 232.72 19.27 229.23 15.27"/><polygon class="cls-15" points="289.44 15.26 325.58 15.26 321.09 19.26 292.98 19.26 289.44 15.26"/><polygon class="cls-59" points="325.58 15.26 312.33 129.38 308.77 125.38 321.09 19.26 325.58 15.26"/><rect class="cls-42" x="16.43" y="129.43" width="36.99" height="0"/><rect class="cls-42" x="115.06" y="129.41" width="36.99" height="0"/><rect class="cls-42" x="164.38" y="129.4" width="36.98" height="0"/><rect class="cls-42" x="213.69" y="129.4" width="36.99" height="0"/><rect class="cls-42" x="275.34" y="129.38" width="36.99" height="0"/><rect class="cls-28" x="259.96" y="111.99" width="35.06" height="0" transform="translate(132.3 373.64) rotate(-82.95)"/><rect class="cls-42" x="267.4" y="94.59" width="12.24" height="0"/><rect class="cls-32" x="33.85" y="106.28" width="46.95" height="0" transform="translate(-57.01 145.14) rotate(-80.43)"/><rect class="cls-42" x="61.22" y="83.13" width="48.85" height="0"/><rect class="cls-42" x="158.93" y="83.12" width="12.2" height="0"/><rect class="cls-32" x="132.09" y="106.26" width="46.81" height="0" transform="translate(27.51 244.43) rotate(-81.54)"/><rect class="cls-28" x="144.37" y="106.26" width="46.78" height="0" transform="translate(38.38 256.91) rotate(-81.69)"/><rect class="cls-28" x="257.29" y="83.12" width="23.11" height="0" transform="translate(152.77 339.47) rotate(-82.82)"/><rect class="cls-42" x="258.11" y="71.66" width="12.19" height="0"/><rect class="cls-32" x="225.29" y="100.53" width="58.21" height="0" transform="translate(122.24 340.02) rotate(-82.67)"/><rect class="cls-32" x="100.33" y="71.71" width="23.11" height="0" transform="translate(23.54 170.99) rotate(-80.99)"/><rect class="cls-42" x="65.07" y="60.31" width="48.62" height="0" transform="translate(14.72 138.09) rotate(-80.18)"/><rect class="cls-42" x="162.33" y="60.29" width="12.15" height="0" transform="translate(79.73 215.63) rotate(-79.98)"/><rect class="cls-42" x="271.73" y="60.27" width="12.15" height="0" transform="translate(169.1 322.94) rotate(-79.76)"/><rect class="cls-32" x="55.51" y="49.01" width="22.93" height="0" transform="translate(7.53 106.92) rotate(-80.44)"/><rect class="cls-42" x="68.88" y="37.7" width="48.4" height="0"/><rect class="cls-28" x="164.71" y="48.99" width="22.85" height="0" transform="translate(102.19 216.18) rotate(-81.69)"/><rect class="cls-32" x="152.58" y="48.99" width="22.86" height="0" transform="translate(91.46 204.02) rotate(-81.55)"/><rect class="cls-42" x="165.68" y="37.68" width="12.1" height="0"/><rect class="cls-32" x="261.77" y="48.97" width="22.79" height="0" transform="translate(190.37 313.85) rotate(-82.81)"/><rect class="cls-42" x="262.48" y="37.67" width="12.1" height="0" transform="translate(183.83 295.26) rotate(-79.78)"/><rect class="cls-42" x="-31.46" y="72.37" width="115.88" height="0" transform="translate(-49.39 85.89) rotate(-80.01)"/><rect class="cls-32" x="107.72" y="26.49" width="22.68" height="0" transform="translate(74.27 139.94) rotate(-81)"/><rect class="cls-42" x="78.68" y="-26.85" width="0" height="84.29" transform="translate(-1.38 19.11) rotate(-13.73)"/><rect class="cls-28" x="66.22" y="72.35" width="115.5" height="0" transform="translate(33.36 183.68) rotate(-81.12)"/><rect class="cls-28" x="163.87" y="72.34" width="115.18" height="0" transform="translate(119.91 282.02) rotate(-82.25)"/><rect class="cls-32" x="151.66" y="72.34" width="115.22" height="0" transform="translate(108.88 269.69) rotate(-82.11)"/><rect class="cls-42" x="175.03" y="-26.87" width="0" height="84.3" transform="translate(1.26 41.2) rotate(-13.47)"/><rect class="cls-32" x="252.63" y="26.47" width="22.59" height="0" transform="translate(204.02 284.86) rotate(-82.68)"/><rect class="cls-28" x="263.99" y="37.77" width="45.35" height="0" transform="translate(214.02 317.64) rotate(-82.96)"/><rect class="cls-42" x="247.29" y="-2.8" width="0" height="36.13" transform="translate(3.06 56.96) rotate(-13.22)"/><rect class="cls-32" x="261.51" y="72.32" width="114.9" height="0" transform="translate(210.34 380.81) rotate(-83.38)"/><rect class="cls-42" x="307.51" y="-2.81" width="0" height="36.14" transform="translate(4.51 69.9) rotate(-13.06)"/><polygon class="cls-15" points="50.04 125.43 53.42 129.43 16.43 129.43 21.2 125.43 50.04 125.43"/><polygon class="cls-15" points="148.6 125.41 152.05 129.41 115.06 129.41 119.73 125.41 148.6 125.41"/><polygon class="cls-15" points="197.88 125.4 201.36 129.4 164.38 129.4 169.01 125.4 197.88 125.4"/><polygon class="cls-15" points="247.16 125.39 250.68 129.39 213.69 129.4 218.27 125.4 247.16 125.39"/><polygon class="cls-15" points="308.77 125.38 312.33 129.38 275.34 129.38 279.87 125.38 308.77 125.38"/><polygon class="cls-59" points="279.87 125.38 275.34 129.38 279.64 94.59 284.17 90.59 279.87 125.38"/><polygon class="cls-15" points="284.17 90.59 279.64 94.59 267.4 94.59 271.94 90.59 284.17 90.59"/><polygon class="cls-22" points="57.84 79.13 61.22 83.13 53.42 129.43 50.04 125.43 57.84 79.13"/><polygon class="cls-15" points="106.66 79.13 110.07 83.12 61.22 83.13 57.84 79.13 106.66 79.13"/><polygon class="cls-15" points="169.01 125.4 164.38 129.4 171.14 83.12 175.77 79.12 169.01 125.4"/><polygon class="cls-54" points="155.49 79.12 158.93 83.12 152.05 129.41 148.6 125.41 155.49 79.12"/><polygon class="cls-15" points="175.77 79.12 171.14 83.12 158.93 83.12 155.49 79.12 175.77 79.12"/><polygon class="cls-15" points="274.83 67.66 270.29 71.66 258.11 71.66 254.59 67.66 274.83 67.66"/><polygon class="cls-59" points="271.94 90.59 267.4 94.59 270.29 71.66 274.83 67.66 271.94 90.59"/><polygon class="cls-30" points="254.59 67.66 258.11 71.66 250.68 129.39 247.16 125.39 254.59 67.66"/><polygon class="cls-22" points="60.34 64.31 65.07 60.31 113.69 60.3 109.01 64.3 60.34 64.31"/><polygon class="cls-22" points="109.01 64.3 113.69 60.3 110.07 83.12 106.66 79.13 109.01 64.3"/><polygon class="cls-22" points="157.69 64.29 162.33 60.29 174.48 60.29 177.94 64.29 157.69 64.29"/><polygon class="cls-22" points="267.2 64.27 271.73 60.27 283.88 60.27 287.42 64.27 267.2 64.27"/><polygon class="cls-30" points="270.05 41.67 274.59 37.67 271.73 60.27 267.2 64.27 270.05 41.67"/><polygon class="cls-22" points="257.93 41.67 262.48 37.67 274.59 37.67 270.05 41.67 257.93 41.67"/><polygon class="cls-22" points="65.5 33.7 68.88 37.7 65.07 60.31 60.34 64.31 65.5 33.7"/><polygon class="cls-15" points="113.87 33.69 117.28 37.69 68.88 37.7 65.5 33.7 113.87 33.69"/><polygon class="cls-54" points="162.23 33.68 165.68 37.68 162.33 60.29 157.69 64.29 162.23 33.68"/><polygon class="cls-15" points="177.94 64.29 174.48 60.29 177.78 37.68 182.41 33.68 177.94 64.29"/><polygon class="cls-15" points="182.41 33.68 177.78 37.68 165.68 37.68 162.23 33.68 182.41 33.68"/><polygon class="cls-15" points="21.2 125.43 16.43 129.43 36.54 15.31 39.89 19.31 21.2 125.43"/><polygon class="cls-22" points="39.89 19.31 36.54 15.31 120.83 15.29 116.15 19.29 39.89 19.31"/><polygon class="cls-22" points="116.15 19.29 120.83 15.29 117.28 37.69 113.87 33.69 116.15 19.29"/><polygon class="cls-15" points="119.73 125.41 115.06 129.41 132.88 15.29 136.3 19.29 119.73 125.41"/><polygon class="cls-54" points="212.59 19.27 217.18 15.27 201.36 129.4 197.88 125.4 212.59 19.27"/><polygon class="cls-22" points="136.3 19.29 132.88 15.29 217.18 15.27 212.59 19.27 136.3 19.29"/><polygon class="cls-15" points="218.27 125.4 213.69 129.4 229.23 15.27 232.72 19.27 218.27 125.4"/><polygon class="cls-30" points="260.81 19.27 265.36 15.26 262.48 37.67 257.93 41.67 260.81 19.27"/><polygon class="cls-22" points="232.72 19.27 229.23 15.27 265.36 15.26 260.81 19.27 232.72 19.27"/><polygon class="cls-59" points="287.42 64.27 283.88 60.27 289.44 15.26 292.98 19.26 287.42 64.27"/><polygon class="cls-22" points="292.98 19.26 289.44 15.26 325.58 15.26 321.09 19.26 292.98 19.26"/><polygon class="cls-30" points="321.09 19.26 325.58 15.26 312.33 129.38 308.77 125.38 321.09 19.26"/></g></g></g><path id="Face-3" class="cls-8" d="M120.83,15.3l-3.55,22.39h-48.39l-3.81,22.62h48.62l-3.62,22.82H61.22l-7.81,46.3H16.43L36.53,15.31l84.3-.02Zm-5.77,114.12h36.99l6.88-46.3h12.21l-6.76,46.29h36.99l15.82-114.13-84.3,.02-17.82,114.12Zm59.41-69.12h-12.15l3.36-22.61h12.1l-3.3,22.61M289.45,15.27l-5.56,45.01h-12.15l2.85-22.61h-12.11l2.88-22.39h-36.13l-15.54,114.13h36.99l7.43-57.74h12.19l-2.89,22.93h12.24l-4.3,34.8h36.99l13.25-114.13h-36.13Zm48.17,0l-2.54,22.4h24.2l-9.97,91.72h36.99l9.28-91.73h24.2l2.15-22.4-84.32,.02Zm85.67,114.11h36.99l3.99-46.3h12.22l-3.87,46.29h36.99l8.69-114.13-84.32,.02-10.69,114.12Zm55.11-69.12h-12.16l1.95-22.61h12.11l-1.89,22.61m51.94-45.02l-5,67.83h48.85l-1.47,23.02h-49.08l-1.71,23.27h86.31l3.88-69.13h-48.63l1.5-22.6h48.4l1.26-22.4-84.31,.02Zm144.54-.03l-1.96,45.01h-12.15l2.08-45.01h-36.13l-3.64,67.84h24.42l-2.25,46.29h36.99l1.9-46.3h24.43l2.45-67.84h-36.13Zm48.18,0l-.75,22.4h12.11l-.35,11.28h-12.14l-.38,11.33h24.32l.32-11.33h12.13l.88-33.68h-36.14Zm48.19,0l-1.6,67.83h48.86l-.31,23.02h-49.09l-.55,23.27h86.31l.42-69.13h-48.63l.36-22.6h48.4l.14-22.4-84.31,.02Z"/></g><polygon id="Furniture_Stroke" class="cls-11" points="1763.55 90.87 1761.13 90.87 1763.27 89.25 1755.46 45.01 1753.26 45.01 1755.19 43.44 1747.52 0 1256.04 .09 1255.08 1.9 1254.95 .09 1062.78 .12 901.38 .15 899.31 50.6 900.06 175.02 963.51 175.01 968.42 130.77 992.88 130.76 993.98 175.01 1239.56 174.97 1240.43 173.51 1240.54 174.97 1343.74 174.95 1356.36 158.79 1357.94 174.95 1413.34 174.94 1426.72 160.11 1428.38 174.94 1715.81 174.89 1771.5 135.95 1763.55 90.87"/><g id="Furniture"><g id="Bottom_Up-2"><polygon class="cls-35" points="1738.89 37.4 1696.48 72.17 1650.47 72.18 1690.47 37.41 1738.89 37.4"/><polygon class="cls-35" points="1746.9 82.84 1703.72 115.64 1657.3 115.65 1698.03 82.85 1746.9 82.84"/><polygon class="cls-35" points="1605.75 37.42 1569.96 72.19 1558.47 72.19 1593.65 37.43 1605.75 37.42"/><polygon class="cls-35" points="1645.6 60.03 1607.66 93.83 1596.11 93.83 1633.44 60.03 1645.6 60.03"/><polygon class="cls-35" points="1612.51 82.86 1576.07 115.66 1564.47 115.67 1600.3 82.87 1612.51 82.86"/><polygon class="cls-35" points="1387.9 37.46 1362.95 72.23 1339.94 72.23 1363.69 37.47 1387.9 37.46"/><polygon class="cls-35" points="1448.41 37.45 1420.45 72.22 1397.45 72.22 1424.21 37.46 1448.41 37.45"/><polygon class="cls-35" points="1257.37 71.48 1238.78 104.78 1227.21 104.78 1245.18 71.49 1257.37 71.48"/><polygon class="cls-35" points="1271.36 94.41 1251.99 126.7 1240.36 126.71 1259.12 94.42 1271.36 94.41"/><polygon class="cls-35" points="1157.95 37.5 1144.43 72.27 1132.94 72.27 1145.85 37.51 1157.95 37.5"/><polygon class="cls-35" points="1195.7 60.11 1180.24 93.9 1168.69 93.9 1183.54 60.11 1195.7 60.11"/><polygon class="cls-35" points="1160.51 82.94 1146.74 115.74 1135.14 115.74 1148.3 82.95 1160.51 82.94"/><polygon class="cls-35" points="1000.63 37.53 994.93 72.29 948.94 72.3 952.23 37.54 1000.63 37.53"/><polygon class="cls-35" points="1001.71 82.97 995.91 115.76 949.51 115.77 952.86 82.98 1001.71 82.97"/></g><g id="Sides"><polygon class="cls-35" points="1668.73 129.15 1629.12 159.9 1612.75 50.74 1650.6 15.02 1668.73 129.15"/><polygon class="cls-35" points="1609.12 60.04 1573 93.83 1569.96 72.19 1605.75 37.42 1609.12 60.04"/><polygon class="cls-35" points="1570.08 129.17 1535.46 159.92 1521.15 50.76 1554.23 15.04 1570.08 129.17"/><polygon class="cls-35" points="1619.41 129.16 1582.29 159.91 1576.07 115.66 1612.51 82.86 1619.41 129.16"/><polygon class="cls-35" points="1517.75 105.92 1485.92 137.7 1475.35 50.77 1506.04 15.04 1517.75 105.92"/><polygon class="cls-35" points="1471.42 129.18 1441.79 159.93 1429.55 50.78 1457.85 15.05 1471.42 129.18"/><polygon class="cls-35" points="1363.69 37.47 1339.94 72.23 1337.94 50.79 1361.48 15.07 1363.69 37.47"/><polygon class="cls-35" points="1397.43 129.2 1371.54 159.94 1362.95 72.23 1387.9 37.46 1397.43 129.2"/><polygon class="cls-35" points="1323.44 129.21 1301.3 159.96 1292.15 50.8 1313.29 15.08 1323.44 129.21"/><polygon class="cls-35" points="1268.65 60.1 1249.55 93.89 1246.34 50.81 1265.1 15.09 1268.65 60.1"/><polygon class="cls-35" points="1259.12 94.42 1240.36 126.71 1238.78 104.78 1257.37 71.48 1259.12 94.42"/><polygon class="cls-35" points="1212.45 129.23 1195.93 159.97 1189.1 50.82 1204.88 15.1 1212.45 129.23"/><polygon class="cls-35" points="1274.1 129.22 1254.46 159.96 1251.99 126.7 1271.36 94.41 1274.1 129.22"/><polygon class="cls-35" points="1159.22 60.12 1145.58 93.91 1144.43 72.27 1157.95 37.5 1159.22 60.12"/><polygon class="cls-35" points="1113.8 129.25 1102.27 159.99 1097.5 50.83 1108.51 15.12 1113.8 129.25"/><polygon class="cls-35" points="1163.12 129.24 1149.1 159.98 1146.74 115.74 1160.51 82.94 1163.12 129.24"/><polygon class="cls-35" points="1063.63 105.99 1054.68 137.77 1051.7 50.84 1060.33 15.13 1063.63 105.99"/><polygon class="cls-35" points="1015.15 129.26 1008.61 160.01 1005.9 50.85 1012.14 15.13 1015.15 129.26"/><polygon class="cls-35" points="916.5 129.28 914.97 160.02 914.31 50.87 915.78 15.15 916.5 129.28"/></g><g id="Bottom-2"><g><polygon class="cls-35" points="1755.07 129.14 1711.08 159.89 1629.12 159.9 1668.73 129.15 1755.07 129.14"/><path class="cls-51" d="M1739.19,134.14l-29.68,20.75h-65.79l26.73-20.74h68.74m15.88-5.01h-86.33l-39.62,30.77h81.96l43.99-30.77h0Z"/></g><g><polygon class="cls-35" points="1607.08 129.16 1570.58 159.91 1535.46 159.92 1570.08 129.17 1607.08 129.16"/><path class="cls-6" d="M1593.38,134.16l-24.62,20.75h-20.14l23.36-20.74h21.4m13.7-5.01h-37l-34.62,30.76h35.12l36.5-30.76h0Z"/></g><g><polygon class="cls-35" points="1656.4 129.15 1617.41 159.9 1582.29 159.91 1619.41 129.16 1656.4 129.15"/><path class="cls-49" d="M1641.99,134.16l-26.31,20.75h-19.51l25.05-20.74h20.78m14.42-5.01h-37l-37.12,30.76h35.12l38.99-30.76h0Z"/></g><g><polygon class="cls-35" points="1557.74 129.17 1523.74 159.92 1441.79 159.93 1471.42 129.18 1557.74 129.17"/><path class="cls-55" d="M1544.76,134.17l-22.94,20.75h-68.26l19.99-20.74h71.21m12.98-5.01h-86.32l-29.63,30.76h81.95l34-30.76h0Z"/></g><g><polygon class="cls-35" points="1434.42 129.19 1406.67 159.94 1371.54 159.94 1397.43 129.2 1434.42 129.19"/><path class="cls-38" d="M1423.17,134.19l-18.73,20.75h-22.15l17.46-20.74h23.42m11.25-5.01h-37l-25.88,30.75h35.12l27.76-30.75h0Z"/></g><g><polygon class="cls-35" points="1360.43 129.2 1336.42 159.95 1301.3 159.96 1323.44 129.21 1360.43 129.2"/><path class="cls-16" d="M1350.18,134.21l-16.2,20.75h-22.92l14.94-20.74h24.18m10.25-5.01h-37l-22.14,30.75h35.12l24.01-30.75h0Z"/></g><g><polygon class="cls-35" points="1249.45 129.22 1231.05 159.97 1195.93 159.97 1212.45 129.23 1249.45 129.22"/><path class="cls-45" d="M1240.63,134.22l-12.41,20.74h-23.92l11.15-20.74h25.19m8.82-5.01h-36.99l-16.52,30.75h35.12l18.39-30.75h0Z"/></g><g><polygon class="cls-35" points="1311.1 129.21 1289.59 159.96 1254.46 159.96 1274.1 129.22 1311.1 129.21"/><path class="cls-58" d="M1301.5,134.21l-14.52,20.75h-23.39l13.25-20.74h24.65m9.6-5.01h-37l-19.64,30.75h35.12l21.51-30.75h0Z"/></g><g><polygon class="cls-35" points="1150.79 129.24 1137.39 159.98 1102.27 159.99 1113.8 129.25 1150.79 129.24"/><path class="cls-48" d="M1143.16,134.24l-9.04,20.74h-24.63l7.78-20.74h25.89m7.63-5.01h-36.99l-11.53,30.75h35.12l13.4-30.75h0Z"/></g><g><polygon class="cls-35" points="1200.11 129.23 1184.22 159.98 1149.1 159.98 1163.12 129.24 1200.11 129.23"/><path class="cls-29" d="M1191.9,134.23l-10.72,20.74h-24.3l9.46-20.74h25.56m8.21-5.01h-36.99l-14.02,30.75h35.12l15.89-30.75h0Z"/></g><g><polygon class="cls-35" points="1101.47 129.25 1090.57 159.99 1008.61 160.01 1015.15 129.26 1101.47 129.25"/><path class="cls-24" d="M1094.39,134.25l-7.36,20.74h-72.25l4.41-20.73h75.2m7.08-5.01h-86.32l-6.53,30.76h81.95l10.9-30.76h0Z"/></g><g><polygon class="cls-35" points="953.5 129.27 950.09 160.02 914.97 160.02 916.5 129.28 953.5 129.27"/><path class="cls-60" d="M947.91,134.27l-2.3,20.74h-25.39l1.04-20.74h26.65m5.59-5.01h-36.99l-1.54,30.75h35.12l3.41-30.75h0Z"/></g></g><path id="Face-4" class="cls-61" d="M1734.94,15l3.95,22.4h-48.42l3.76,22.62h48.65l4.03,22.82h-48.87l3.83,23.04h49.1l4.1,23.25h-86.33l-18.13-114.12,84.34-.02Zm-96.38,.02l-84.33,.02,15.85,114.13h37l-6.78-46.3h12.21l6.89,46.29h37l-9.03-57.75h-12.19l-1.75-11.38h12.16l-7.04-45.01Zm-29.44,45.02h-12.16l-3.31-22.61h12.1l3.37,22.61m-103.08-44.99l11.71,90.87h-12.27l-11.48-90.87h-36.14l13.57,114.14h86.32l-15.56-114.15h-36.14Zm-144.56,.03l2.21,22.4h24.21l9.53,91.73h37l-10.22-91.74h24.2l-2.61-22.4-84.32,.02Zm-48.18,0l10.14,114.13h37l-11-114.14h-36.14Zm-48.19,.02l3.55,45.01h-12.16l-1.73-22.61h-12.1l-1.65-22.39h-36.14l7.57,114.14h36.99l-4.26-57.74h12.18l1.75,22.93h12.24l2.74,34.8h37l-9.86-114.14h-36.14Zm-72.28,.02l-84.32,.02,5.29,114.13h36.99l-2.49-46.3h12.21l2.61,46.29h36.99l-3.69-57.74h-12.18l-.7-11.38h12.16l-2.87-45.01Zm-33.6,45.02h-12.16l-1.22-22.61h12.1l1.27,22.61m-98.9-44.99l3.3,90.87h-12.28l-3.08-90.87h-36.14l3.01,114.13h86.32l-5.01-114.14h-36.14Zm-144.55,.03l.73,114.13h36.99l-.64-46.3h48.86l-.54-22.83h-48.63l-.31-22.61h48.4l-.53-22.4-84.32,.02Z"/><g id="Face-5" class="cls-27"><g><g class="cls-17"><polygon class="cls-22" points="1557.74 129.17 1471.42 129.19 1474.98 125.19 1553.16 125.17 1557.74 129.17"/><polygon class="cls-22" points="1607.08 129.16 1570.08 129.17 1573.56 125.17 1602.45 125.16 1607.08 129.16"/><polygon class="cls-22" points="1656.4 129.15 1619.41 129.16 1622.86 125.16 1651.73 125.15 1656.4 129.15"/><polygon class="cls-22" points="1755.07 129.13 1668.73 129.15 1672.15 125.15 1750.3 125.13 1755.07 129.13"/><polygon class="cls-15" points="1505.48 105.92 1517.75 105.91 1522.29 109.91 1501.95 109.92 1505.48 105.92"/><polygon class="cls-15" points="1701.86 105.89 1750.96 105.88 1747.61 109.88 1698.47 109.89 1701.86 105.89"/><polygon class="cls-14" points="1750.96 105.88 1755.07 129.13 1750.3 125.13 1747.61 109.88 1750.96 105.88"/><polygon class="cls-22" points="1612.52 82.86 1600.3 82.86 1595.67 78.86 1615.96 78.86 1612.52 82.86"/><polygon class="cls-12" points="1619.41 129.16 1612.52 82.86 1615.96 78.86 1622.86 125.16 1619.41 129.16"/><polygon class="cls-14" points="1600.3 82.86 1607.08 129.16 1602.45 125.16 1595.67 78.86 1600.3 82.86"/><polygon class="cls-14" points="1698.02 82.85 1701.86 105.89 1698.47 109.89 1693.3 78.85 1698.02 82.85"/><polygon class="cls-22" points="1746.9 82.84 1698.02 82.85 1693.3 78.85 1742.14 78.84 1746.9 82.84"/><polygon class="cls-14" points="1647.37 71.42 1656.4 129.15 1651.73 125.15 1643.95 75.42 1647.37 71.42"/><polygon class="cls-15" points="1635.19 71.42 1647.37 71.42 1643.95 75.42 1631.75 75.42 1635.19 71.42"/><polygon class="cls-15" points="1596.96 60.04 1609.11 60.04 1613.75 64.04 1593.5 64.04 1596.96 60.04"/><polygon class="cls-14" points="1633.44 60.03 1635.19 71.42 1631.75 75.42 1628.78 56.03 1633.44 60.03"/><polygon class="cls-22" points="1645.59 60.03 1633.44 60.03 1628.78 56.03 1640.92 56.03 1645.59 60.03"/><polygon class="cls-14" points="1742.88 60.01 1746.9 82.84 1742.14 78.84 1739.52 64.01 1742.88 60.01"/><polygon class="cls-15" points="1694.23 60.02 1742.88 60.01 1739.52 64.01 1690.84 64.02 1694.23 60.02"/><polygon class="cls-14" points="1593.65 37.42 1596.96 60.04 1593.5 64.04 1589.03 33.42 1593.65 37.42"/><polygon class="cls-12" points="1609.11 60.04 1605.75 37.42 1609.2 33.42 1613.75 64.04 1609.11 60.04"/><polygon class="cls-22" points="1605.75 37.42 1593.65 37.42 1589.03 33.42 1609.2 33.42 1605.75 37.42"/><polygon class="cls-14" points="1690.46 37.4 1694.23 60.02 1690.84 64.02 1685.74 33.41 1690.46 37.4"/><polygon class="cls-22" points="1738.89 37.4 1690.46 37.4 1685.74 33.41 1734.12 33.4 1738.89 37.4"/><polygon class="cls-15" points="1457.85 15.05 1493.99 15.05 1490.47 19.05 1462.35 19.05 1457.85 15.05"/><polygon class="cls-14" points="1493.99 15.05 1505.48 105.92 1501.95 109.92 1490.47 19.05 1493.99 15.05"/><polygon class="cls-46" points="1471.42 129.19 1457.85 15.05 1462.35 19.05 1474.98 125.19 1471.42 129.19"/><polygon class="cls-14" points="1542.18 15.04 1557.74 129.17 1553.16 125.17 1538.69 19.04 1542.18 15.04"/><polygon class="cls-15" points="1506.04 15.04 1542.18 15.04 1538.69 19.04 1510.59 19.04 1506.04 15.04"/><polygon class="cls-12" points="1517.75 105.91 1506.04 15.04 1510.59 19.04 1522.29 109.91 1517.75 105.91"/><polygon class="cls-12" points="1570.08 129.17 1554.23 15.03 1558.83 19.03 1573.56 125.17 1570.08 129.17"/><polygon class="cls-4" points="1668.73 129.15 1650.6 15.02 1655.29 19.02 1672.15 125.15 1668.73 129.15"/><polygon class="cls-15" points="1554.23 15.03 1638.55 15.02 1635.13 19.02 1558.83 19.03 1554.23 15.03"/><polygon class="cls-14" points="1638.55 15.02 1645.59 60.03 1640.92 56.03 1635.13 19.02 1638.55 15.02"/><polygon class="cls-15" points="1650.6 15.02 1734.93 15 1731.58 19 1655.29 19.02 1650.6 15.02"/><polygon class="cls-14" points="1734.93 15 1738.89 37.4 1734.12 33.4 1731.58 19 1734.93 15"/><rect class="cls-42" x="1471.42" y="129.18" width="86.32" height="0"/><rect class="cls-42" x="1570.08" y="129.16" width="37" height="0"/><rect class="cls-42" x="1619.41" y="129.16" width="36.99" height="0"/><rect class="cls-42" x="1668.73" y="129.14" width="86.34" height="0"/><rect class="cls-42" x="1505.48" y="105.92" width="12.27" height="0" transform="translate(1067.22 1554.61) rotate(-76.95)"/><rect class="cls-32" x="1753.01" y="105.7" width="0" height="23.62" transform="translate(6.25 306.42) rotate(-10.01)"/><rect class="cls-42" x="1701.86" y="105.88" width="49.1" height="0" transform="translate(1218 1759.13) rotate(-76.42)"/><rect class="cls-42" x="1600.3" y="82.86" width="12.21" height="0"/><rect class="cls-32" x="1603.69" y="82.62" width="0" height="46.79" transform="translate(1.56 233.4) rotate(-8.33)"/><rect class="cls-25" x="1615.96" y="82.61" width="0" height="46.81" transform="translate(2.01 239.18) rotate(-8.47)"/><rect class="cls-32" x="1699.94" y="82.69" width="0" height="23.36" transform="translate(7.57 280.36) rotate(-9.45)"/><rect class="cls-42" x="1698.02" y="82.84" width="48.88" height="0"/><rect class="cls-32" x="1651.89" y="71.07" width="0" height="58.44" transform="translate(4.34 256.38) rotate(-8.89)"/><rect class="cls-42" x="1635.19" y="71.42" width="12.19" height="0" transform="translate(1190.72 1651.26) rotate(-76.57)"/><rect class="cls-42" x="1596.96" y="60.04" width="12.16" height="0" transform="translate(1174.94 1606.02) rotate(-76.67)"/><rect class="cls-42" x="1633.44" y="60.03" width="12.15" height="0"/><rect class="cls-32" x="1634.31" y="59.96" width="0" height="11.52" transform="translate(8.93 248.56) rotate(-8.72)"/><rect class="cls-32" x="1744.89" y="59.84" width="0" height="23.18" transform="translate(14.1 304) rotate(-10)"/><rect class="cls-42" x="1694.23" y="60.02" width="48.65" height="0" transform="translate(1256.6 1716.41) rotate(-76.42)"/><rect class="cls-25" x="1607.43" y="37.3" width="0" height="22.87" transform="translate(10.34 237.17) rotate(-8.47)"/><rect class="cls-32" x="1595.3" y="37.3" width="0" height="22.86" transform="translate(9.71 231.07) rotate(-8.31)"/><rect class="cls-42" x="1593.65" y="37.42" width="12.1" height="0"/><rect class="cls-32" x="1692.35" y="37.25" width="0" height="22.93" transform="translate(14.94 278.33) rotate(-9.44)"/><rect class="cls-42" x="1690.46" y="37.4" width="48.42" height="0"/><rect class="cls-1" x="1464.64" y="14.65" width="0" height="114.94" transform="translate(1.73 173.44) rotate(-6.78)"/><rect class="cls-32" x="1499.74" y="14.69" width="0" height="91.6" transform="translate(4.25 188.52) rotate(-7.2)"/><rect class="cls-42" x="1475.92" y="-3.02" width="0" height="36.14" transform="translate(21.15 264.48) rotate(-10.31)"/><rect class="cls-32" x="1549.96" y="14.51" width="0" height="115.18" transform="translate(4.47 210.05) rotate(-7.76)"/><rect class="cls-1" x="1511.89" y="14.66" width="0" height="91.62" transform="translate(4.67 193.7) rotate(-7.34)"/><rect class="cls-42" x="1524.11" y="-3.03" width="0" height="36.14" transform="translate(21.49 270.51) rotate(-10.21)"/><rect class="cls-1" x="1562.16" y="14.48" width="0" height="115.23" transform="translate(4.93 215.54) rotate(-7.91)"/><rect class="cls-32" x="1642.07" y="14.75" width="0" height="45.56" transform="translate(13.92 254.15) rotate(-8.89)"/><rect class="cls-42" x="1596.39" y="-27.13" width="0" height="84.32" transform="translate(22.2 280.78) rotate(-10.12)"/><rect class="cls-25" x="1659.67" y="14.31" width="0" height="115.56" transform="translate(9.24 261.23) rotate(-9.02)"/><rect class="cls-32" x="1736.91" y="14.83" width="0" height="22.74" transform="translate(21.87 302.2) rotate(-10.01)"/><rect class="cls-42" x="1692.77" y="-27.15" width="0" height="84.33" transform="translate(22.79 292.25) rotate(-9.93)"/><polygon class="cls-15" points="1553.16 125.17 1557.74 129.17 1471.42 129.19 1474.98 125.19 1553.16 125.17"/><polygon class="cls-15" points="1602.45 125.16 1607.08 129.16 1570.08 129.17 1573.56 125.17 1602.45 125.16"/><polygon class="cls-15" points="1651.73 125.15 1656.4 129.15 1619.41 129.16 1622.86 125.16 1651.73 125.15"/><polygon class="cls-15" points="1750.3 125.13 1755.07 129.13 1668.73 129.15 1672.15 125.15 1750.3 125.13"/><polygon class="cls-22" points="1501.95 109.92 1505.48 105.92 1517.75 105.91 1522.29 109.91 1501.95 109.92"/><polygon class="cls-4" points="1747.61 109.88 1750.96 105.88 1755.07 129.13 1750.3 125.13 1747.61 109.88"/><polygon class="cls-22" points="1698.47 109.89 1701.86 105.89 1750.96 105.88 1747.61 109.88 1698.47 109.89"/><polygon class="cls-15" points="1615.96 78.86 1612.52 82.86 1600.3 82.86 1595.67 78.86 1615.96 78.86"/><polygon class="cls-12" points="1595.67 78.86 1600.3 82.86 1607.08 129.16 1602.45 125.16 1595.67 78.86"/><polygon class="cls-14" points="1622.86 125.16 1619.41 129.16 1612.52 82.86 1615.96 78.86 1622.86 125.16"/><polygon class="cls-4" points="1693.3 78.85 1698.02 82.85 1701.86 105.89 1698.47 109.89 1693.3 78.85"/><polygon class="cls-15" points="1742.14 78.84 1746.9 82.84 1698.02 82.85 1693.3 78.85 1742.14 78.84"/><polygon class="cls-22" points="1631.75 75.42 1635.19 71.42 1647.37 71.42 1643.95 75.42 1631.75 75.42"/><polygon class="cls-4" points="1643.95 75.42 1647.37 71.42 1656.4 129.15 1651.73 125.15 1643.95 75.42"/><polygon class="cls-22" points="1593.5 64.04 1596.96 60.04 1609.11 60.04 1613.75 64.04 1593.5 64.04"/><polygon class="cls-22" points="1690.84 64.02 1694.23 60.02 1742.88 60.01 1739.52 64.01 1690.84 64.02"/><polygon class="cls-4" points="1739.52 64.01 1742.88 60.01 1746.9 82.84 1742.14 78.84 1739.52 64.01"/><polygon class="cls-15" points="1640.92 56.03 1645.59 60.03 1633.44 60.03 1628.78 56.03 1640.92 56.03"/><polygon class="cls-4" points="1628.78 56.03 1633.44 60.03 1635.19 71.42 1631.75 75.42 1628.78 56.03"/><polygon class="cls-12" points="1589.03 33.42 1593.65 37.42 1596.96 60.04 1593.5 64.04 1589.03 33.42"/><polygon class="cls-15" points="1609.2 33.42 1605.75 37.42 1593.65 37.42 1589.03 33.42 1609.2 33.42"/><polygon class="cls-14" points="1613.75 64.04 1609.11 60.04 1605.75 37.42 1609.2 33.42 1613.75 64.04"/><polygon class="cls-4" points="1685.74 33.41 1690.46 37.4 1694.23 60.02 1690.84 64.02 1685.74 33.41"/><polygon class="cls-15" points="1734.12 33.4 1738.89 37.4 1690.46 37.4 1685.74 33.41 1734.12 33.4"/><polygon class="cls-14" points="1474.98 125.19 1471.42 129.19 1457.85 15.05 1462.35 19.05 1474.98 125.19"/><polygon class="cls-22" points="1462.35 19.05 1457.85 15.05 1493.99 15.05 1490.47 19.05 1462.35 19.05"/><polygon class="cls-12" points="1490.47 19.05 1493.99 15.05 1505.48 105.92 1501.95 109.92 1490.47 19.05"/><polygon class="cls-22" points="1510.59 19.04 1506.04 15.04 1542.18 15.04 1538.69 19.04 1510.59 19.04"/><polygon class="cls-12" points="1538.69 19.04 1542.18 15.04 1557.74 129.17 1553.16 125.17 1538.69 19.04"/><polygon class="cls-14" points="1522.29 109.91 1517.75 105.91 1506.04 15.04 1510.59 19.04 1522.29 109.91"/><polygon class="cls-14" points="1573.56 125.17 1570.08 129.17 1554.23 15.03 1558.83 19.03 1573.56 125.17"/><polygon class="cls-4" points="1635.13 19.02 1638.55 15.02 1645.59 60.03 1640.92 56.03 1635.13 19.02"/><polygon class="cls-22" points="1558.83 19.03 1554.23 15.03 1638.55 15.02 1635.13 19.02 1558.83 19.03"/><polygon class="cls-14" points="1672.15 125.15 1668.73 129.15 1650.6 15.02 1655.29 19.02 1672.15 125.15"/><polygon class="cls-22" points="1655.29 19.02 1650.6 15.02 1734.93 15 1731.58 19 1655.29 19.02"/><polygon class="cls-4" points="1731.58 19 1734.93 15 1738.89 37.4 1734.12 33.4 1731.58 19"/></g><g class="cls-17"><polygon class="cls-22" points="1434.42 129.19 1397.43 129.2 1401.03 125.2 1429.95 125.19 1434.42 129.19"/><polygon class="cls-22" points="1387.9 37.46 1363.69 37.47 1367.32 33.47 1391.51 33.46 1387.9 37.46"/><polygon class="cls-46" points="1397.43 129.2 1387.9 37.46 1391.51 33.46 1401.03 125.2 1397.43 129.2"/><polygon class="cls-14" points="1424.21 37.46 1434.42 129.19 1429.95 125.19 1419.74 33.46 1424.21 37.46"/><polygon class="cls-22" points="1448.41 37.45 1424.21 37.46 1419.74 33.46 1443.92 33.45 1448.41 37.45"/><polygon class="cls-46" points="1363.69 37.47 1361.48 15.07 1365.89 19.07 1367.32 33.47 1363.69 37.47"/><polygon class="cls-15" points="1361.48 15.07 1445.8 15.06 1442.24 19.06 1365.89 19.07 1361.48 15.07"/><polygon class="cls-14" points="1445.8 15.06 1448.41 37.45 1443.92 33.45 1442.24 19.06 1445.8 15.06"/><rect class="cls-42" x="1397.43" y="129.19" width="37" height="0"/><rect class="cls-32" x="1429.32" y="37.18" width="0" height="92.29" transform="translate(-.44 158.71) rotate(-6.35)"/><rect class="cls-1" x="1392.66" y="37.21" width="0" height="92.23" transform="translate(-1.16 144.23) rotate(-5.93)"/><rect class="cls-42" x="1363.69" y="37.46" width="24.21" height="0"/><rect class="cls-42" x="1424.21" y="37.45" width="24.2" height="0"/><rect class="cls-1" x="1362.59" y="15.01" width="0" height="22.51" transform="translate(4.02 134.15) rotate(-5.64)"/><rect class="cls-32" x="1447.11" y="14.98" width="0" height="22.54" transform="translate(6.69 167.74) rotate(-6.65)"/><rect class="cls-42" x="1403.64" y="-27.1" width="0" height="84.32" transform="translate(20.86 256.6) rotate(-10.52)"/><polygon class="cls-15" points="1429.95 125.19 1434.42 129.19 1397.43 129.2 1401.03 125.2 1429.95 125.19"/><polygon class="cls-46" points="1419.74 33.46 1424.21 37.46 1434.42 129.19 1429.95 125.19 1419.74 33.46"/><polygon class="cls-15" points="1391.51 33.46 1387.9 37.46 1363.69 37.47 1367.32 33.47 1391.51 33.46"/><polygon class="cls-14" points="1401.03 125.2 1397.43 129.2 1387.9 37.46 1391.51 33.46 1401.03 125.2"/><polygon class="cls-15" points="1443.92 33.45 1448.41 37.45 1424.21 37.46 1419.74 33.46 1443.92 33.45"/><polygon class="cls-14" points="1367.32 33.47 1363.69 37.47 1361.48 15.07 1365.89 19.07 1367.32 33.47"/><polygon class="cls-46" points="1442.24 19.06 1445.8 15.06 1448.41 37.45 1443.92 33.45 1442.24 19.06"/><polygon class="cls-22" points="1365.89 19.07 1361.48 15.07 1445.8 15.06 1442.24 19.06 1365.89 19.07"/></g><g class="cls-17"><polygon class="cls-22" points="1360.43 129.2 1323.44 129.2 1327.1 125.2 1356.03 125.2 1360.43 129.2"/><polygon class="cls-14" points="1349.44 15.08 1360.43 129.2 1356.03 125.2 1345.8 19.08 1349.44 15.08"/><polygon class="cls-15" points="1313.29 15.08 1349.44 15.08 1345.8 19.08 1317.66 19.08 1313.29 15.08"/><polygon class="cls-47" points="1323.44 129.2 1313.29 15.08 1317.66 19.08 1327.1 125.2 1323.44 129.2"/><rect class="cls-42" x="1323.44" y="129.2" width="37" height="0"/><rect class="cls-26" x="1318.36" y="14.85" width="0" height="114.58" transform="translate(-1.21 116.99) rotate(-5.08)"/><rect class="cls-32" x="1354.94" y="14.81" width="0" height="114.66" transform="translate(-.67 130.29) rotate(-5.5)"/><rect class="cls-42" x="1331.37" y="-3" width="0" height="36.14" transform="translate(20.02 245.6) rotate(-10.62)"/><polygon class="cls-15" points="1356.03 125.2 1360.43 129.2 1323.44 129.2 1327.1 125.2 1356.03 125.2"/><polygon class="cls-46" points="1345.8 19.08 1349.44 15.08 1360.43 129.2 1356.03 125.2 1345.8 19.08"/><polygon class="cls-22" points="1317.66 19.08 1313.29 15.08 1349.44 15.08 1345.8 19.08 1317.66 19.08"/><polygon class="cls-14" points="1327.1 125.2 1323.44 129.2 1313.29 15.08 1317.66 19.08 1327.1 125.2"/></g><g class="cls-17"><polygon class="cls-22" points="1249.45 129.22 1212.45 129.23 1216.19 125.23 1245.14 125.22 1249.45 129.22"/><polygon class="cls-22" points="1311.1 129.21 1274.11 129.21 1277.8 125.21 1306.74 125.21 1311.1 129.21"/><polygon class="cls-22" points="1271.36 94.41 1259.11 94.42 1262.82 90.42 1275.06 90.41 1271.36 94.41"/><polygon class="cls-47" points="1274.11 129.21 1271.36 94.41 1275.06 90.41 1277.8 125.21 1274.11 129.21"/><polygon class="cls-14" points="1245.18 71.49 1249.45 129.22 1245.14 125.22 1240.88 67.49 1245.18 71.49"/><polygon class="cls-47" points="1259.11 94.42 1257.37 71.48 1261.07 67.48 1262.82 90.42 1259.11 94.42"/><polygon class="cls-22" points="1257.37 71.48 1245.18 71.49 1240.88 67.49 1261.07 67.48 1257.37 71.48"/><polygon class="cls-15" points="1256.49 60.1 1268.65 60.09 1272.98 64.09 1252.79 64.11 1256.49 60.1"/><polygon class="cls-14" points="1254.77 37.49 1256.49 60.1 1252.79 64.11 1251.06 41.49 1254.77 37.49"/><polygon class="cls-15" points="1242.67 37.49 1254.77 37.49 1251.06 41.49 1238.95 41.49 1242.67 37.49"/><polygon class="cls-47" points="1212.45 129.23 1204.88 15.1 1209.15 19.1 1216.19 125.23 1212.45 129.23"/><polygon class="cls-14" points="1241.01 15.09 1242.67 37.49 1238.95 41.49 1237.3 19.09 1241.01 15.09"/><polygon class="cls-15" points="1204.88 15.1 1241.01 15.09 1237.3 19.09 1209.15 19.1 1204.88 15.1"/><polygon class="cls-47" points="1268.65 60.09 1265.1 15.09 1269.43 19.09 1272.98 64.09 1268.65 60.09"/><polygon class="cls-14" points="1301.24 15.09 1311.1 129.21 1306.74 125.21 1297.57 19.09 1301.24 15.09"/><polygon class="cls-15" points="1265.1 15.09 1301.24 15.09 1297.57 19.09 1269.43 19.09 1265.1 15.09"/><rect class="cls-42" x="1212.45" y="129.23" width="37" height="0"/><rect class="cls-42" x="1274.11" y="129.21" width="36.99" height="0"/><rect class="cls-26" x="1272.73" y="94.36" width="0" height="34.91" transform="translate(-4.85 100.4) rotate(-4.51)"/><rect class="cls-42" x="1259.11" y="94.42" width="12.25" height="0"/><rect class="cls-32" x="1247.31" y="71.41" width="0" height="57.89" transform="translate(-4 92.18) rotate(-4.23)"/><rect class="cls-42" x="1245.18" y="71.48" width="12.19" height="0"/><rect class="cls-26" x="1258.24" y="71.45" width="0" height="23.01" transform="translate(-2.67 95.71) rotate(-4.35)"/><rect class="cls-42" x="1256.49" y="60.1" width="12.16" height="0" transform="translate(932.11 1280.14) rotate(-77.57)"/><rect class="cls-32" x="1255.63" y="37.45" width="0" height="22.68" transform="translate(-.07 95.79) rotate(-4.37)"/><rect class="cls-42" x="1242.67" y="37.49" width="12.1" height="0" transform="translate(943.11 1248.81) rotate(-77.56)"/><rect class="cls-26" x="1208.66" y="14.98" width="0" height="114.38" transform="translate(-2.13 80.14) rotate(-3.79)"/><rect class="cls-32" x="1241.84" y="15.06" width="0" height="22.45" transform="translate(1.44 91.65) rotate(-4.23)"/><rect class="cls-42" x="1222.95" y="-2.97" width="0" height="36.13" transform="translate(19.09 230.87) rotate(-10.87)"/><rect class="cls-32" x="1306.17" y="14.87" width="0" height="114.55" transform="translate(-1.36 112.64) rotate(-4.94)"/><rect class="cls-26" x="1266.88" y="15.01" width="0" height="45.15" transform="translate(.97 99.87) rotate(-4.52)"/><rect class="cls-42" x="1283.17" y="-2.99" width="0" height="36.14" transform="translate(19.6 238.99) rotate(-10.72)"/><polygon class="cls-15" points="1245.14 125.22 1249.45 129.22 1212.45 129.23 1216.19 125.23 1245.14 125.22"/><polygon class="cls-15" points="1306.74 125.21 1311.1 129.21 1274.11 129.21 1277.8 125.21 1306.74 125.21"/><polygon class="cls-15" points="1275.06 90.41 1271.36 94.41 1259.11 94.42 1262.82 90.42 1275.06 90.41"/><polygon class="cls-14" points="1277.8 125.21 1274.11 129.21 1271.36 94.41 1275.06 90.41 1277.8 125.21"/><polygon class="cls-47" points="1240.88 67.49 1245.18 71.49 1249.45 129.22 1245.14 125.22 1240.88 67.49"/><polygon class="cls-14" points="1262.82 90.42 1259.11 94.42 1257.37 71.48 1261.07 67.48 1262.82 90.42"/><polygon class="cls-15" points="1261.07 67.48 1257.37 71.48 1245.18 71.49 1240.88 67.49 1261.07 67.48"/><polygon class="cls-22" points="1252.79 64.11 1256.49 60.1 1268.65 60.09 1272.98 64.09 1252.79 64.11"/><polygon class="cls-47" points="1251.06 41.49 1254.77 37.49 1256.49 60.1 1252.79 64.11 1251.06 41.49"/><polygon class="cls-22" points="1238.95 41.49 1242.67 37.49 1254.77 37.49 1251.06 41.49 1238.95 41.49"/><polygon class="cls-14" points="1216.19 125.23 1212.45 129.23 1204.88 15.1 1209.15 19.1 1216.19 125.23"/><polygon class="cls-47" points="1237.3 19.09 1241.01 15.09 1242.67 37.49 1238.95 41.49 1237.3 19.09"/><polygon class="cls-22" points="1209.15 19.1 1204.88 15.1 1241.01 15.09 1237.3 19.09 1209.15 19.1"/><polygon class="cls-14" points="1272.98 64.09 1268.65 60.09 1265.1 15.09 1269.43 19.09 1272.98 64.09"/><polygon class="cls-47" points="1297.57 19.09 1301.24 15.09 1311.1 129.21 1306.74 125.21 1297.57 19.09"/><polygon class="cls-22" points="1269.43 19.09 1265.1 15.09 1301.24 15.09 1297.57 19.09 1269.43 19.09"/></g><g class="cls-17"><polygon class="cls-22" points="1150.79 129.24 1113.8 129.24 1117.62 125.24 1146.57 125.24 1150.79 129.24"/><polygon class="cls-22" points="1200.12 129.23 1163.12 129.24 1166.9 125.24 1195.85 125.23 1200.12 129.23"/><polygon class="cls-22" points="1160.51 82.94 1148.3 82.94 1144.07 78.94 1164.29 78.94 1160.51 82.94"/><polygon class="cls-39" points="1148.3 82.94 1150.79 129.24 1146.57 125.24 1144.07 78.94 1148.3 82.94"/><polygon class="cls-44" points="1163.12 129.24 1160.51 82.94 1164.29 78.94 1166.9 125.24 1163.12 129.24"/><polygon class="cls-15" points="1184.24 71.5 1196.43 71.5 1192.68 75.5 1180.48 75.5 1184.24 71.5"/><polygon class="cls-39" points="1196.43 71.5 1200.12 129.23 1195.85 125.23 1192.68 75.5 1196.43 71.5"/><polygon class="cls-15" points="1147.07 60.12 1159.22 60.12 1163.45 64.12 1143.28 64.12 1147.07 60.12"/><polygon class="cls-39" points="1183.54 60.11 1184.24 71.5 1180.48 75.5 1179.29 56.11 1183.54 60.11"/><polygon class="cls-22" points="1195.7 60.11 1183.54 60.11 1179.29 56.11 1191.44 56.11 1195.7 60.11"/><polygon class="cls-22" points="1157.95 37.5 1145.85 37.5 1141.63 33.5 1161.74 33.5 1157.95 37.5"/><polygon class="cls-44" points="1159.22 60.12 1157.95 37.5 1161.74 33.5 1163.45 64.12 1159.22 60.12"/><polygon class="cls-39" points="1145.85 37.5 1147.07 60.12 1143.28 64.12 1141.63 33.5 1145.85 37.5"/><polygon class="cls-44" points="1113.8 129.24 1108.51 15.11 1112.7 19.11 1117.62 125.24 1113.8 129.24"/><rect class="cls-32" x="1194.26" y="15.06" width="0" height="45.1" transform="translate(.03 76.1) rotate(-3.65)"/><polygon class="cls-39" points="1192.83 15.1 1195.7 60.11 1191.44 56.11 1189.08 19.1 1192.83 15.1"/><polygon class="cls-15" points="1108.51 15.11 1192.83 15.1 1189.08 19.1 1112.7 19.11 1108.51 15.11"/><rect class="cls-42" x="1113.8" y="129.24" width="36.99" height="0"/><rect class="cls-42" x="1163.12" y="129.24" width="37" height="0"/><rect class="cls-32" x="1149.54" y="82.91" width="0" height="46.36" transform="translate(-4.04 61.98) rotate(-3.08)"/><rect class="cls-42" x="1148.3" y="82.94" width="12.21" height="0"/><rect class="cls-26" x="1161.81" y="82.91" width="0" height="46.37" transform="translate(-4.13 65.56) rotate(-3.23)"/><rect class="cls-32" x="1198.27" y="71.44" width="0" height="57.85" transform="translate(-3.96 76.63) rotate(-3.66)"/><rect class="cls-42" x="1184.24" y="71.5" width="12.19" height="0" transform="translate(867.03 1219.31) rotate(-77.71)"/><rect class="cls-42" x="1147.07" y="60.12" width="12.15" height="0" transform="translate(850.61 1174.5) rotate(-77.8)"/><rect class="cls-42" x="1183.54" y="60.11" width="12.16" height="0"/><rect class="cls-32" x="1183.89" y="60.1" width="0" height="11.41" transform="translate(-1.81 72.99) rotate(-3.53)"/><rect class="cls-26" x="1158.59" y="37.49" width="0" height="22.65" transform="translate(-.92 64.96) rotate(-3.21)"/><rect class="cls-42" x="1145.85" y="37.5" width="12.11" height="0"/><rect class="cls-32" x="1146.46" y="37.49" width="0" height="22.65" transform="translate(-.96 62.04) rotate(-3.1)"/><rect class="cls-53" x="1111.15" y="15.05" width="0" height="114.25" transform="translate(-2.15 51.55) rotate(-2.66)"/><rect class="cls-42" x="1150.67" y="-27.05" width="0" height="84.32" transform="translate(18.52 221.3) rotate(-11.07)"/><polygon class="cls-15" points="1146.57 125.24 1150.79 129.24 1113.8 129.24 1117.62 125.24 1146.57 125.24"/><polygon class="cls-15" points="1195.85 125.23 1200.12 129.23 1163.12 129.24 1166.9 125.24 1195.85 125.23"/><polygon class="cls-15" points="1164.29 78.94 1160.51 82.94 1148.3 82.94 1144.07 78.94 1164.29 78.94"/><polygon class="cls-39" points="1166.9 125.24 1163.12 129.24 1160.51 82.94 1164.29 78.94 1166.9 125.24"/><polygon class="cls-44" points="1144.07 78.94 1148.3 82.94 1150.79 129.24 1146.57 125.24 1144.07 78.94"/><polygon class="cls-44" points="1192.68 75.5 1196.43 71.5 1200.12 129.23 1195.85 125.23 1192.68 75.5"/><polygon class="cls-22" points="1180.48 75.5 1184.24 71.5 1196.43 71.5 1192.68 75.5 1180.48 75.5"/><polygon class="cls-22" points="1143.28 64.12 1147.07 60.12 1159.22 60.12 1163.45 64.12 1143.28 64.12"/><polygon class="cls-44" points="1179.29 56.11 1183.54 60.11 1184.24 71.5 1180.48 75.5 1179.29 56.11"/><polygon class="cls-15" points="1191.44 56.11 1195.7 60.11 1183.54 60.11 1179.29 56.11 1191.44 56.11"/><polygon class="cls-44" points="1141.63 33.5 1145.85 37.5 1147.07 60.12 1143.28 64.12 1141.63 33.5"/><polygon class="cls-39" points="1163.45 64.12 1159.22 60.12 1157.95 37.5 1161.74 33.5 1163.45 64.12"/><polygon class="cls-15" points="1161.74 33.5 1157.95 37.5 1145.85 37.5 1141.63 33.5 1161.74 33.5"/><polygon class="cls-39" points="1117.62 125.24 1113.8 129.24 1108.51 15.11 1112.7 19.11 1117.62 125.24"/><polygon class="cls-22" points="1112.7 19.11 1108.51 15.11 1192.83 15.1 1189.08 19.1 1112.7 19.11"/><polygon class="cls-44" points="1189.08 19.1 1192.83 15.1 1195.7 60.11 1191.44 56.11 1189.08 19.1"/></g><g class="cls-17"><polygon class="cls-22" points="1101.47 129.25 1015.15 129.26 1019.05 125.26 1097.29 125.25 1101.47 129.25"/><polygon class="cls-15" points="1051.35 105.99 1063.63 105.99 1067.78 109.99 1047.48 109.99 1051.35 105.99"/><polygon class="cls-15" points="1012.14 15.13 1048.27 15.13 1044.4 19.13 1016.24 19.13 1012.14 15.13"/><polygon class="cls-13" points="1015.15 129.26 1012.14 15.13 1016.24 19.13 1019.05 125.26 1015.15 129.26"/><polygon class="cls-39" points="1048.27 15.13 1051.35 105.99 1047.48 109.99 1044.4 19.13 1048.27 15.13"/><polygon class="cls-13" points="1063.63 105.99 1060.33 15.12 1064.48 19.12 1067.78 109.99 1063.63 105.99"/><polygon class="cls-39" points="1096.46 15.12 1101.47 129.25 1097.29 125.25 1092.64 19.12 1096.46 15.12"/><polygon class="cls-15" points="1060.33 15.12 1096.46 15.12 1092.64 19.12 1064.48 19.12 1060.33 15.12"/><rect class="cls-42" x="1015.15" y="129.25" width="86.32" height="0"/><rect class="cls-42" x="1051.35" y="105.99" width="12.29" height="0" transform="translate(734.53 1118.53) rotate(-78.03)"/><rect class="cls-32" x="1049.81" y="15.1" width="0" height="90.92" transform="translate(-1.45 35.58) rotate(-1.94)"/><rect class="cls-53" x="1013.64" y="15.11" width="0" height="114.17" transform="translate(-1.55 26.79) rotate(-1.51)"/><rect class="cls-42" x="1030.2" y="-2.94" width="0" height="36.13" transform="translate(16.96 201.9) rotate(-11.29)"/><rect class="cls-53" x="1061.98" y="15.09" width="0" height="90.93" transform="translate(-1.5 38.62) rotate(-2.08)"/><rect class="cls-32" x="1098.97" y="15.07" width="0" height="114.24" transform="translate(-2.11 48.21) rotate(-2.51)"/><rect class="cls-42" x="1078.4" y="-2.95" width="0" height="36.13" transform="translate(17.52 209.32) rotate(-11.18)"/><polygon class="cls-15" points="1097.29 125.25 1101.47 129.25 1015.15 129.26 1019.05 125.26 1097.29 125.25"/><polygon class="cls-22" points="1047.48 109.99 1051.35 105.99 1063.63 105.99 1067.78 109.99 1047.48 109.99"/><polygon class="cls-13" points="1044.4 19.13 1048.27 15.13 1051.35 105.99 1047.48 109.99 1044.4 19.13"/><polygon class="cls-22" points="1016.24 19.13 1012.14 15.13 1048.27 15.13 1044.4 19.13 1016.24 19.13"/><polygon class="cls-39" points="1019.05 125.26 1015.15 129.26 1012.14 15.13 1016.24 19.13 1019.05 125.26"/><polygon class="cls-44" points="1092.64 19.12 1096.46 15.12 1101.47 129.25 1097.29 125.25 1092.64 19.12"/><polygon class="cls-22" points="1064.48 19.12 1060.33 15.12 1096.46 15.12 1092.64 19.12 1064.48 19.12"/><polygon class="cls-39" points="1067.78 109.99 1063.63 105.99 1060.33 15.12 1064.48 19.12 1067.78 109.99"/></g><g class="cls-17"><polygon class="cls-22" points="953.5 129.28 916.5 129.28 920.48 125.28 949.44 125.28 953.5 129.28"/><polygon class="cls-39" points="952.85 82.98 953.5 129.28 949.44 125.28 948.8 78.98 952.85 82.98"/><polygon class="cls-22" points="1001.71 82.97 952.85 82.98 948.8 78.98 997.62 78.97 1001.71 82.97"/><polygon class="cls-15" points="952.54 60.16 1001.16 60.15 997.26 64.15 948.59 64.16 952.54 60.16"/><polygon class="cls-39" points="1001.16 60.15 1001.71 82.97 997.62 78.97 997.26 64.15 1001.16 60.15"/><polygon class="cls-39" points="952.22 37.54 952.54 60.16 948.59 64.16 948.17 33.54 952.22 37.54"/><polygon class="cls-22" points="1000.63 37.53 952.22 37.54 948.17 33.54 996.54 33.53 1000.63 37.53"/><polygon class="cls-2" points="916.5 129.28 915.78 15.15 919.81 19.15 920.48 125.28 916.5 129.28"/><polygon class="cls-15" points="915.78 15.15 1000.09 15.14 996.19 19.14 919.81 19.15 915.78 15.15"/><rect class="cls-32" x="1000.36" y="15.14" width="0" height="22.4" transform="translate(-.34 24.13) rotate(-1.38)"/><polygon class="cls-39" points="1000.09 15.14 1000.63 37.53 996.54 33.53 996.19 19.14 1000.09 15.14"/><rect class="cls-42" x="916.5" y="129.28" width="37" height="0"/><rect class="cls-32" x="953.18" y="82.98" width="0" height="46.3" transform="translate(-1.39 13.35) rotate(-.8)"/><rect class="cls-42" x="952.85" y="82.98" width="48.86" height="0"/><rect class="cls-32" x="1001.44" y="60.14" width="0" height="22.83" transform="translate(-1.43 24.11) rotate(-1.38)"/><rect class="cls-42" x="952.54" y="60.15" width="48.63" height="0" transform="translate(719.4 1004.39) rotate(-78.27)"/><rect class="cls-32" x="952.38" y="37.54" width="0" height="22.62" transform="translate(-.59 13.28) rotate(-.8)"/><rect class="cls-42" x="952.22" y="37.54" width="48.41" height="0"/><rect class="cls-34" x="916.14" y="15.15" width="0" height="114.13" transform="translate(-.44 5.78) rotate(-.36)"/><rect class="cls-42" x="957.94" y="-27.01" width="0" height="84.31" transform="translate(16.26 191.52) rotate(-11.51)"/><polygon class="cls-15" points="949.44 125.28 953.5 129.28 916.5 129.28 920.48 125.28 949.44 125.28"/><polygon class="cls-13" points="948.8 78.98 952.85 82.98 953.5 129.28 949.44 125.28 948.8 78.98"/><polygon class="cls-15" points="997.62 78.97 1001.71 82.97 952.85 82.98 948.8 78.98 997.62 78.97"/><polygon class="cls-22" points="948.59 64.16 952.54 60.16 1001.16 60.15 997.26 64.15 948.59 64.16"/><polygon class="cls-13" points="997.26 64.15 1001.16 60.15 1001.71 82.97 997.62 78.97 997.26 64.15"/><polygon class="cls-13" points="948.17 33.54 952.22 37.54 952.54 60.16 948.59 64.16 948.17 33.54"/><polygon class="cls-15" points="996.54 33.53 1000.63 37.53 952.22 37.54 948.17 33.54 996.54 33.53"/><polygon class="cls-39" points="920.48 125.28 916.5 129.28 915.78 15.15 919.81 19.15 920.48 125.28"/><polygon class="cls-13" points="996.19 19.14 1000.09 15.14 1000.63 37.53 996.54 33.53 996.19 19.14"/><polygon class="cls-22" points="919.81 19.15 915.78 15.15 1000.09 15.14 996.19 19.14 919.81 19.15"/></g></g></g><path id="Face-6" class="cls-7" d="M1734.94,15l3.95,22.4h-48.42l3.76,22.62h48.65l4.03,22.82h-48.87l3.83,23.04h49.1l4.1,23.25h-86.33l-18.13-114.12,84.34-.02Zm-96.38,.02l-84.33,.02,15.85,114.13h37l-6.78-46.3h12.21l6.89,46.29h37l-9.03-57.75h-12.19l-1.75-11.38h12.16l-7.04-45.01Zm-29.44,45.02h-12.16l-3.31-22.61h12.1l3.37,22.61m-103.08-44.99l11.71,90.87h-12.27l-11.48-90.87h-36.14l13.57,114.14h86.32l-15.56-114.15h-36.14Zm-144.56,.03l2.21,22.4h24.21l9.53,91.73h37l-10.22-91.74h24.2l-2.61-22.4-84.32,.02Zm-48.18,0l10.14,114.13h37l-11-114.14h-36.14Zm-48.19,.02l3.55,45.01h-12.16l-1.73-22.61h-12.1l-1.65-22.39h-36.14l7.57,114.14h36.99l-4.26-57.74h12.18l1.75,22.93h12.24l2.74,34.8h37l-9.86-114.14h-36.14Zm-72.28,.02l-84.32,.02,5.29,114.13h36.99l-2.49-46.3h12.21l2.61,46.29h36.99l-3.69-57.74h-12.18l-.7-11.38h12.16l-2.87-45.01Zm-33.6,45.02h-12.16l-1.22-22.61h12.1l1.27,22.61m-98.9-44.99l3.3,90.87h-12.28l-3.08-90.87h-36.14l3.01,114.13h86.32l-5.01-114.14h-36.14Zm-144.55,.03l.73,114.13h36.99l-.64-46.3h48.86l-.54-22.83h-48.63l-.31-22.61h48.4l-.53-22.4-84.32,.02Z"/></g></g></g></g></svg>