<?xml version="1.0" encoding="UTF-8"?><svg xmlns="http://www.w3.org/2000/svg" xmlns:xlink="http://www.w3.org/1999/xlink" viewBox="0 0 1215.24 175.08"><defs><style>.cls-1{fill:#6a6a6a;}.cls-2{fill:#979797;}.cls-3{fill:#939393;}.cls-4{fill:url(#linear-gradient-2);}.cls-5{fill:#6a4296;}.cls-6{fill:#4f3170;}.cls-7{fill:#989898;}.cls-8{fill:#5c5c5c;}.cls-9{fill:#5f5f5f;}.cls-10{fill:url(#linear-gradient-14);}.cls-11{fill:url(#linear-gradient-6);}.cls-12{isolation:isolate;}.cls-13{fill:#959595;}.cls-14{fill:#909090;}.cls-15{fill:#656565;}.cls-16{fill:url(#linear-gradient-11);}.cls-17{fill:#696969;}.cls-18{mix-blend-mode:color-burn;opacity:.45;}.cls-19{fill:url(#linear-gradient-10);}.cls-20{fill:#929292;}.cls-21{fill:#969696;}.cls-22{fill:#5a5a5a;}.cls-23{fill:#676767;}.cls-24{fill:url(#New_Gradient_Swatch_3);mix-blend-mode:lighten;opacity:.15;}.cls-25{fill:url(#linear-gradient-5);}.cls-26{fill:#5d5d5d;}.cls-27{fill:#636363;}.cls-28{fill:#999;}.cls-29{fill:url(#linear-gradient-7);}.cls-30{fill:#9b9b9b;}.cls-31{fill:#9a9a9a;}.cls-32{fill:url(#linear-gradient-9);}.cls-33{fill:url(#linear-gradient-3);}.cls-34{fill:#949494;}.cls-35{fill:url(#linear-gradient);}.cls-36{fill:#686868;}.cls-37{fill:url(#linear-gradient-4);}.cls-38{fill:#666;}.cls-39{fill:url(#linear-gradient-8);}.cls-40{fill:#5e5e5e;}.cls-41{fill:url(#linear-gradient-12);}.cls-42{fill:url(#linear-gradient-13);}</style><linearGradient id="linear-gradient" x1="48.29" y1="160.08" x2="48.29" y2="129.34" gradientTransform="matrix(1, 0, 0, 1, 0, 0)" gradientUnits="userSpaceOnUse"><stop offset=".28" stop-color="#bb4abb" stop-opacity=".8"/><stop offset=".89" stop-color="#6a4296"/></linearGradient><linearGradient id="linear-gradient-2" x1="96.36" y1="160.07" x2="96.36" y2="129.33" xlink:href="#linear-gradient"/><linearGradient id="linear-gradient-3" x1="156.45" y1="160.06" x2="156.45" y2="129.32" xlink:href="#linear-gradient"/><linearGradient id="linear-gradient-4" x1="204.52" y1="160.05" x2="204.52" y2="129.31" xlink:href="#linear-gradient"/><linearGradient id="linear-gradient-5" x1="324.07" y1="160.04" x2="324.07" y2="129.29" xlink:href="#linear-gradient"/><linearGradient id="linear-gradient-6" x1="420.22" y1="160.02" x2="420.22" y2="129.27" xlink:href="#linear-gradient"/><linearGradient id="linear-gradient-7" x1="516.37" y1="160.01" x2="516.37" y2="129.25" xlink:href="#linear-gradient"/><linearGradient id="linear-gradient-8" x1="1143.55" y1="159.91" x2="1143.55" y2="129.14" xlink:href="#linear-gradient"/><linearGradient id="linear-gradient-9" x1="1041.22" y1="159.92" x2="1041.22" y2="129.16" xlink:href="#linear-gradient"/><linearGradient id="linear-gradient-10" x1="951.23" y1="159.94" x2="951.23" y2="129.18" xlink:href="#linear-gradient"/><linearGradient id="linear-gradient-11" x1="855.08" y1="159.95" x2="855.08" y2="129.19" xlink:href="#linear-gradient"/><linearGradient id="linear-gradient-12" x1="734.26" y1="159.97" x2="734.26" y2="129.22" xlink:href="#linear-gradient"/><linearGradient id="linear-gradient-13" x1="607.59" y1="159.99" x2="607.59" y2="129.24" xlink:href="#linear-gradient"/><linearGradient id="linear-gradient-14" x1="607.62" y1="129.34" x2="607.62" y2="15" gradientTransform="matrix(1, 0, 0, 1, 0, 0)" gradientUnits="userSpaceOnUse"><stop offset="0" stop-color="#7a4daf"/><stop offset=".5" stop-color="#7a4daf"/><stop offset=".5" stop-color="#bd4aba"/><stop offset="1" stop-color="#a74ec7"/></linearGradient><linearGradient id="New_Gradient_Swatch_3" x1="440.03" y1="374.3" x2="782.05" y2="-218.09" gradientTransform="matrix(1, 0, 0, 1, 0, 0)" gradientUnits="userSpaceOnUse"><stop offset="0" stop-color="#fff"/><stop offset=".2" stop-color="#fff"/><stop offset=".2" stop-color="#000"/><stop offset=".45" stop-color="#000"/><stop offset=".45" stop-color="#fff"/><stop offset=".7" stop-color="#fff"/><stop offset=".7" stop-color="#000"/><stop offset=".85" stop-color="#000"/><stop offset=".85" stop-color="#fff"/></linearGradient></defs><g class="cls-12"><g id="Layer_2"><g id="F_Infused_Foods"><g id="Infused_Food_Stroke"><polygon class="cls-6" points="658.68 11.28 658.6 .1 124.22 .2 123.9 3.49 121.64 .2 16.12 .21 0 134.68 39.4 175.08 141.28 175.06 141.56 172.2 143.82 175.06 246.92 175.05 250.26 130.8 259.53 130.79 259.41 132.67 282.66 175.04 656.85 174.98 657.52 163.84 668.19 163.83 671.79 118.09 670.72 11.28 658.68 11.28"/><polygon class="cls-6" points="1204.5 45.02 1201.65 45.02 1204.14 42.03 1199.09 0 1093.55 .02 1091.29 3.31 1090.97 .02 703.06 .09 695.61 49.85 698.28 174.97 759.88 174.96 770.61 130.79 770.61 130.71 790.44 130.7 792.22 174.95 1071.44 174.91 1073.71 172.05 1073.98 174.91 1175.89 174.89 1215.24 134.47 1204.5 45.02"/></g><g id="Infused_Foods"><g id="Side"><polygon class="cls-5" points="65.56 15.21 92.41 50.92 80.84 160.07 52.73 129.34 65.56 15.21"/><polygon class="cls-5" points="113.74 15.2 138.2 50.91 136.13 72.35 111.44 37.6 113.74 15.2"/><polygon class="cls-5" points="123.54 37.6 147.63 72.35 145.59 93.99 121.28 60.21 123.54 37.6"/><polygon class="cls-5" points="107.96 71.6 132.99 104.88 127.66 160.07 102.05 129.33 107.96 71.6"/><polygon class="cls-5" points="173.96 15.19 195.45 50.9 186.19 160.06 163.7 129.32 173.96 15.19"/><polygon class="cls-5" points="270.31 15.17 287.03 50.88 285.61 72.33 268.74 37.57 270.31 15.17"/><polygon class="cls-5" points="220.34 37.58 239.62 72.34 237.99 93.97 218.54 60.2 220.34 37.58"/><polygon class="cls-5" points="267.16 60.19 284.19 93.97 282.75 115.79 265.57 83 267.16 60.19"/><polygon class="cls-5" points="216.71 83.01 236.34 115.8 233.01 160.05 213.02 129.31 216.71 83.01"/><polygon class="cls-5" points="318.49 15.16 332.83 50.87 327.91 137.81 313.05 106.04 318.49 15.16"/><polygon class="cls-5" points="366.67 15.15 378.62 50.86 373.48 160.02 360.98 129.29 366.67 15.15"/><polygon class="cls-5" points="463.03 15.13 470.21 50.85 469.6 72.3 462.36 37.54 463.03 15.13"/><polygon class="cls-5" points="413.95 37.55 423.6 72.3 422.79 93.94 413.05 60.16 413.95 37.55"/><polygon class="cls-5" points="461.69 60.15 468.99 93.93 467.13 160.01 459.62 129.27 461.69 60.15"/><polygon class="cls-5" points="559.4 15.12 561.8 50.83 561.6 72.28 559.17 37.52 559.4 15.12"/><polygon class="cls-5" points="510.76 37.53 515.6 72.29 515.19 93.93 510.31 60.14 510.76 37.53"/><polygon class="cls-5" points="558.95 60.13 561.4 93.92 561.2 115.74 558.72 82.95 558.95 60.13"/><polygon class="cls-5" points="509.86 82.96 514.78 115.75 514.37 137.78 509.4 106 509.86 82.96"/><polygon class="cls-5" points="558.5 105.99 560.99 137.77 560.78 159.99 558.27 129.25 558.5 105.99"/><polygon class="cls-5" points="1108.42 82.86 1083.32 115.65 1077.03 50.74 1101.46 15.02 1108.42 82.86"/><polygon class="cls-5" points="1159.88 105.89 1132.07 137.67 1129.73 115.64 1157.28 82.85 1159.88 105.89"/><polygon class="cls-5" points="1113.17 129.16 1087.6 159.91 1085.45 137.68 1110.79 105.9 1113.17 129.16"/><polygon class="cls-5" points="1061.69 105.91 1038.82 137.69 1033.1 72.2 1055.34 37.43 1061.69 105.91"/><polygon class="cls-5" points="1014.52 129.17 993.94 159.92 985.43 50.76 1005.09 15.04 1014.52 129.17"/><polygon class="cls-5" points="963.5 105.92 945.59 137.7 941.1 72.21 958.53 37.45 963.5 105.92"/><polygon class="cls-5" points="915.86 129.19 900.28 159.94 893.83 50.77 908.71 15.05 915.86 129.19"/><polygon class="cls-5" points="865.31 105.94 852.35 137.72 849.1 72.23 861.71 37.47 865.31 105.94"/><polygon class="cls-5" points="817.22 129.21 806.63 159.95 802.24 50.79 812.35 15.07 817.22 129.21"/><polygon class="cls-5" points="718.56 129.23 712.97 159.97 710.64 50.81 715.98 15.09 718.56 129.23"/><polygon class="cls-5" points="607.58 37.51 607.6 72.27 607.61 137.76 607.58 105.98 607.58 37.51"/><polygon class="cls-5" points="619.85 105.98 619.26 137.76 619.1 72.27 619.67 37.51 619.85 105.98"/></g><g id="Bottom_Up"><polygon class="cls-5" points="120.14 71.59 144.56 104.88 132.99 104.88 107.96 71.6 120.14 71.59"/><polygon class="cls-5" points="130.1 94.52 154.13 126.8 142.5 126.81 117.85 94.53 130.1 94.52"/><polygon class="cls-5" points="268.74 37.57 285.61 72.33 239.62 72.34 220.34 37.58 268.74 37.57"/><polygon class="cls-5" points="265.57 83 282.75 115.79 236.34 115.8 216.71 83.01 265.57 83"/><polygon class="cls-5" points="462.36 37.54 469.6 72.3 423.6 72.3 413.95 37.55 462.36 37.54"/><polygon class="cls-5" points="424.36 82.98 433.57 115.76 387.16 115.77 375.5 82.98 424.36 82.98"/><polygon class="cls-5" points="559.17 37.52 561.6 72.28 515.6 72.29 510.76 37.53 559.17 37.52"/><polygon class="cls-5" points="558.72 82.95 561.2 115.74 514.78 115.75 509.86 82.96 558.72 82.95"/><polygon class="cls-5" points="1188.48 37.41 1159.61 72.17 1113.61 72.18 1140.07 37.42 1188.48 37.41"/><polygon class="cls-5" points="1157.28 82.85 1129.73 115.64 1083.32 115.65 1108.42 82.86 1157.28 82.85"/><polygon class="cls-5" points="1055.34 37.43 1033.1 72.2 1021.6 72.2 1043.24 37.43 1055.34 37.43"/><polygon class="cls-5" points="1099.67 117.5 1074.84 148.77 1063.16 148.77 1087.37 117.5 1099.67 117.5"/><polygon class="cls-5" points="958.53 37.45 941.1 72.21 929.6 72.22 946.42 37.45 958.53 37.45"/><polygon class="cls-5" points="861.71 37.47 849.1 72.23 837.6 72.23 849.61 37.47 861.71 37.47"/><polygon class="cls-5" points="801.2 37.48 791.59 72.24 745.6 72.25 752.79 37.49 801.2 37.48"/><polygon class="cls-5" points="803.02 82.91 793.24 115.7 746.83 115.71 754.16 82.92 803.02 82.91"/><polygon class="cls-5" points="619.67 37.51 619.1 72.27 607.6 72.27 607.58 37.51 619.67 37.51"/><polygon class="cls-5" points="656.79 117.57 654.33 148.84 642.65 148.84 644.49 117.58 656.79 117.57"/></g><g id="Bottom"><g><polygon class="cls-5" points="52.73 129.34 80.84 160.07 45.72 160.08 15.75 129.34 52.73 129.34"/><path class="cls-35" d="M50.53,134.34l18.96,20.74h-21.66l-20.23-20.73h22.93m2.2-5H15.75l29.98,30.74h35.12l-28.11-30.74h0Z"/></g><g><polygon class="cls-5" points="102.05 129.33 127.66 160.07 92.54 160.07 65.06 129.34 102.05 129.33"/><path class="cls-4" d="M99.71,134.33l17.28,20.74h-22.21l-18.54-20.73h23.47m2.34-5h-36.99l27.48,30.74h35.12l-25.61-30.74h0Z"/></g><g><polygon class="cls-5" points="163.7 129.32 186.19 160.06 151.07 160.06 126.71 129.33 163.7 129.32"/><path class="cls-33" d="M161.16,134.32l15.17,20.74h-22.85l-16.44-20.73h24.11m2.54-5h-36.99l24.36,30.74h35.12l-22.49-30.74h0Z"/></g><g><polygon class="cls-5" points="213.02 129.31 233.01 160.05 197.89 160.05 176.03 129.32 213.02 129.31"/><path class="cls-37" d="M210.3,134.31l13.49,20.74h-23.32l-14.75-20.73h24.59m2.71-5h-36.99l21.87,30.74h35.12l-19.99-30.74h0Z"/></g><g><polygon class="cls-5" points="360.98 129.29 373.48 160.02 291.54 160.04 274.67 129.3 360.98 129.29"/><path class="cls-25" d="M357.61,134.29l8.44,20.74h-71.55l-11.38-20.73h74.5m3.36-5.01h-86.31l16.87,30.75h81.94l-12.5-30.75h0Z"/></g><g><polygon class="cls-5" points="459.62 129.27 467.13 160.01 385.18 160.02 373.3 129.28 459.62 129.27"/><path class="cls-11" d="M455.69,134.27l5.07,20.74h-72.15l-8.02-20.73h75.1m3.93-5.01h-86.32l11.88,30.75h81.95l-7.51-30.75h0Z"/></g><g><polygon class="cls-5" points="558.27 129.25 560.78 159.99 478.83 160.01 471.95 129.27 558.27 129.25"/><path class="cls-29" d="M553.66,134.25l1.7,20.74h-72.52l-4.65-20.73h75.47m4.61-5.01h-86.32l6.89,30.75h81.95l-2.52-30.75h0Z"/></g><g><polygon class="cls-5" points="1199.49 129.14 1169.55 159.89 1087.6 159.91 1113.17 129.16 1199.49 129.14"/><path class="cls-39" d="M1187.65,134.15l-20.2,20.75h-69.18l17.25-20.73h72.13m11.85-5.01h-86.32l-25.57,30.76h81.95l29.94-30.76h0Z"/></g><g><polygon class="cls-5" points="1088.51 129.16 1064.18 159.91 993.94 159.92 1014.52 129.17 1088.51 129.16"/><path class="cls-32" d="M1078.17,134.16l-16.41,20.75h-58.46l13.88-20.74h60.99m10.33-5.01h-73.99l-20.58,30.76h70.25l24.32-30.76h0Z"/></g><g><polygon class="cls-5" points="1002.19 129.18 982.23 159.92 900.28 159.94 915.86 129.19 1002.19 129.18"/><path class="cls-19" d="M992.98,134.18l-13.46,20.74h-71.1l10.51-20.73h74.05m9.21-5.01h-86.33l-15.58,30.76h81.96l19.95-30.76h0Z"/></g><g><polygon class="cls-5" points="903.53 129.19 888.57 159.94 806.63 159.95 817.22 129.21 903.53 129.19"/><path class="cls-16" d="M895.54,134.19l-10.09,20.74h-71.81l7.14-20.73h74.76m7.99-5.01h-86.32l-10.59,30.76h81.95l14.96-30.76h0Z"/></g><g><polygon class="cls-5" points="755.56 129.22 748.09 159.96 712.97 159.97 718.56 129.23 755.56 129.22"/><path class="cls-41" d="M749.2,134.22l-5.04,20.74h-25.2l3.78-20.74h26.46m6.36-5.01h-36.99l-5.6,30.75h35.12l7.47-30.75h0Z"/></g><g><polygon class="cls-5" points="644.58 129.24 642.73 159.98 572.49 159.99 570.59 129.25 644.58 129.24"/><path class="cls-42" d="M639.27,134.24l-1.25,20.74h-60.83l-1.28-20.73h63.36m5.31-5.01h-73.98l1.89,30.75h70.24l1.85-30.75h0Z"/></g></g><path id="Face" class="cls-10" d="M65.56,15.21l-12.83,114.13H15.75L29.43,15.21h36.13Zm72.26-.02l-4.38,45.02h-12.16l2.26-22.61h-12.1l2.29-22.4h-36.13l-12.54,114.14h36.99l5.91-57.74h12.18l-2.29,22.93h12.25l-3.39,34.8h36.99l10.26-114.14h-36.13Zm48.17,0l-9.97,114.13h36.99l3.7-46.31h48.85l1.59-22.83h-48.63l1.81-22.6h48.4l1.57-22.41-84.31,.02Zm144.53-.03l-5.22,90.87h-12.27l5.44-90.87h-36.13l-7.69,114.14h86.31l5.69-114.15h-36.13Zm48.18,0l-3.21,67.83h48.86l-.86,23.03h-49.09l-1.1,23.27h86.32l2.07-69.13h-48.64l.9-22.6h48.41l.67-22.41-84.32,.02Zm96.36-.02l-3.13,114.13h86.32l.23-23.27h-49.1l.46-23.03h48.87l.23-22.83h-48.64l.45-22.6h48.41l.22-22.41-84.32,.02Zm626.39-.11l6.96,67.84h48.86l2.59,23.03h-49.09l2.39,23.27h86.32l-8.3-69.14h-48.63l-2.49-22.61h48.41l-2.69-22.41-84.32,.02Zm-24.1,0h-72.28l9.43,114.15h73.99l-1.14-11.67h12.3l-9.14-91.3h-12.07l-1.09-11.18Zm-15.68,90.88h-12.27l-6.17-68.47h12.1l6.34,68.47m-145.83,23.29h86.33l-9.14-114.15-84.33,.02,7.15,114.14Zm47.64-23.27h-12.28l-4.8-68.47h12.11l4.97,68.47m-146.29,23.29h86.32l-6.86-114.15-84.32,.02,4.86,114.14Zm48.1-23.27h-12.27l-3.43-68.47h12.1l3.6,68.47M715.98,15.09l2.58,114.14h36.99l-1.39-46.31h48.86l-.92-22.83h-48.63l-.68-22.61h48.4l-.9-22.41-84.32,.02Zm-72.27,.01h-72.27l-.84,114.15h73.98l-.09-11.67h12.3l-.92-91.3h-12.07l-.09-11.18Zm-23.86,90.88h-12.27V37.51h12.09l.18,68.47"/><path id="Face-2" class="cls-24" d="M65.56,15.21l-12.83,114.13H15.75L29.43,15.21h36.13Zm72.26-.02l-4.38,45.02h-12.16l2.26-22.61h-12.1l2.29-22.4h-36.13l-12.54,114.14h36.99l5.91-57.74h12.18l-2.29,22.93h12.25l-3.39,34.8h36.99l10.26-114.14h-36.13Zm48.17,0l-9.97,114.13h36.99l3.7-46.31h48.85l1.59-22.83h-48.63l1.81-22.6h48.4l1.57-22.41-84.31,.02Zm144.53-.03l-5.22,90.87h-12.27l5.44-90.87h-36.13l-7.69,114.14h86.31l5.69-114.15h-36.13Zm48.18,0l-3.21,67.83h48.86l-.86,23.03h-49.09l-1.1,23.27h86.32l2.07-69.13h-48.64l.9-22.6h48.41l.67-22.41-84.32,.02Zm96.36-.02l-3.13,114.13h86.32l.23-23.27h-49.1l.46-23.03h48.87l.23-22.83h-48.64l.45-22.6h48.41l.22-22.41-84.32,.02Zm626.39-.11l6.96,67.84h48.86l2.59,23.03h-49.09l2.39,23.27h86.32l-8.3-69.14h-48.63l-2.49-22.61h48.41l-2.69-22.41-84.32,.02Zm-24.1,0h-72.28l9.43,114.15h73.99l-1.14-11.67h12.3l-9.14-91.3h-12.07l-1.09-11.18Zm-15.68,90.88h-12.27l-6.17-68.47h12.1l6.34,68.47m-145.83,23.29h86.33l-9.14-114.15-84.33,.02,7.15,114.14Zm47.64-23.27h-12.28l-4.8-68.47h12.11l4.97,68.47m-146.29,23.29h86.32l-6.86-114.15-84.32,.02,4.86,114.14Zm48.1-23.27h-12.27l-3.43-68.47h12.1l3.6,68.47M715.98,15.09l2.58,114.14h36.99l-1.39-46.31h48.86l-.92-22.83h-48.63l-.68-22.61h48.4l-.9-22.41-84.32,.02Zm-72.27,.01h-72.27l-.84,114.15h73.98l-.09-11.67h12.3l-.92-91.3h-12.07l-.09-11.18Zm-23.86,90.88h-12.27V37.51h12.09l.18,68.47"/><g id="Face-3" class="cls-18"><g><g class="cls-12"><polygon class="cls-14" points="1199.49 129.14 1113.17 129.16 1116.79 125.16 1194.98 125.14 1199.49 129.14"/><polygon class="cls-30" points="1113.17 129.16 1110.79 105.9 1115.22 109.9 1116.79 125.16 1113.17 129.16"/><polygon class="cls-9" points="1110.79 105.9 1159.88 105.89 1164.35 109.89 1115.22 109.9 1110.79 105.9"/><polygon class="cls-30" points="1159.88 105.89 1157.28 82.85 1160.86 78.85 1164.35 109.89 1159.88 105.89"/><polygon class="cls-14" points="1157.28 82.85 1108.42 82.86 1112.03 78.86 1160.86 78.85 1157.28 82.85"/><polygon class="cls-8" points="1191.19 60.02 1199.49 129.14 1194.98 125.14 1187.64 64.02 1191.19 60.02"/><polygon class="cls-9" points="1142.56 60.03 1191.19 60.02 1187.64 64.02 1138.98 64.03 1142.56 60.03"/><polygon class="cls-8" points="1140.07 37.41 1142.56 60.03 1138.98 64.03 1135.6 33.42 1140.07 37.41"/><polygon class="cls-14" points="1188.48 37.41 1140.07 37.41 1135.6 33.42 1183.97 33.41 1188.48 37.41"/><polygon class="cls-30" points="1108.42 82.86 1101.46 15.01 1105.89 19.01 1112.03 78.86 1108.42 82.86"/><polygon class="cls-8" points="1185.79 15.01 1188.48 37.41 1183.97 33.41 1182.24 19.01 1185.79 15.01"/><polygon class="cls-9" points="1101.46 15.01 1185.79 15.01 1182.24 19.01 1105.89 19.01 1101.46 15.01"/><rect class="cls-27" x="1113.17" y="129.15" width="86.32" height="0"/><rect class="cls-1" x="1111.98" y="105.83" width="0" height="23.39" transform="translate(-6.19 114.01) rotate(-5.85)"/><rect class="cls-27" x="1135.33" y="81.35" width="0" height="49.09" transform="translate(-.3 208.47) rotate(-10.49)"/><rect class="cls-1" x="1158.58" y="82.77" width="0" height="23.19" transform="translate(-3.29 130.13) rotate(-6.42)"/><rect class="cls-27" x="1108.42" y="82.85" width="48.86" height="0"/><rect class="cls-22" x="1195.34" y="59.77" width="0" height="69.62" transform="translate(-2.75 143.31) rotate(-6.85)"/><rect class="cls-27" x="1142.56" y="60.03" width="48.63" height="0" transform="translate(848.39 1184.2) rotate(-77.13)"/><rect class="cls-22" x="1141.31" y="37.35" width="0" height="22.75" transform="translate(1.53 125.35) rotate(-6.29)"/><rect class="cls-27" x="1140.07" y="37.41" width="48.41" height="0"/><rect class="cls-1" x="1104.94" y="14.84" width="0" height="68.2" transform="translate(.78 113.12) rotate(-5.86)"/><rect class="cls-22" x="1187.13" y="14.92" width="0" height="22.56" transform="translate(5.35 141.79) rotate(-6.85)"/><rect class="cls-27" x="1143.62" y="-27.16" width="0" height="84.33" transform="translate(16.36 208.33) rotate(-10.48)"/><polygon class="cls-9" points="1194.98 125.14 1199.49 129.14 1113.17 129.16 1116.79 125.16 1194.98 125.14"/><polygon class="cls-8" points="1116.79 125.16 1113.17 129.16 1110.79 105.9 1115.22 109.9 1116.79 125.16"/><polygon class="cls-14" points="1115.22 109.9 1110.79 105.9 1159.88 105.89 1164.35 109.89 1115.22 109.9"/><polygon class="cls-8" points="1164.35 109.89 1159.88 105.89 1157.28 82.85 1160.86 78.85 1164.35 109.89"/><polygon class="cls-9" points="1160.86 78.85 1157.28 82.85 1108.42 82.86 1112.03 78.86 1160.86 78.85"/><polygon class="cls-30" points="1187.64 64.02 1191.19 60.02 1199.49 129.14 1194.98 125.14 1187.64 64.02"/><polygon class="cls-14" points="1138.98 64.03 1142.56 60.03 1191.19 60.02 1187.64 64.02 1138.98 64.03"/><polygon class="cls-30" points="1135.6 33.42 1140.07 37.41 1142.56 60.03 1138.98 64.03 1135.6 33.42"/><polygon class="cls-9" points="1183.97 33.41 1188.48 37.41 1140.07 37.41 1135.6 33.42 1183.97 33.41"/><polygon class="cls-8" points="1112.03 78.86 1108.42 82.86 1101.46 15.01 1105.89 19.01 1112.03 78.86"/><polygon class="cls-30" points="1182.24 19.01 1185.79 15.01 1188.48 37.41 1183.97 33.41 1182.24 19.01"/><polygon class="cls-14" points="1105.89 19.01 1101.46 15.01 1185.79 15.01 1182.24 19.01 1105.89 19.01"/></g><g class="cls-12"><polygon class="cls-14" points="1088.51 129.16 1014.52 129.17 1018.2 125.17 1084.1 125.16 1088.51 129.16"/><polygon class="cls-14" points="1099.67 117.5 1087.37 117.5 1082.96 113.5 1095.25 113.5 1099.67 117.5"/><rect class="cls-22" x="1087.94" y="117.47" width="0" height="11.72" transform="translate(-6.83 105.82) rotate(-5.55)"/><polygon class="cls-8" points="1087.37 117.5 1088.51 129.16 1084.1 125.16 1082.96 113.5 1087.37 117.5"/><polygon class="cls-9" points="1049.42 105.9 1061.69 105.9 1066.07 109.9 1045.76 109.9 1049.42 105.9"/><polygon class="cls-8" points="1043.24 37.43 1049.42 105.9 1045.76 109.9 1038.87 33.43 1043.24 37.43"/><polygon class="cls-30" points="1061.69 105.9 1055.34 37.43 1058.99 33.43 1066.07 109.9 1061.69 105.9"/><polygon class="cls-14" points="1055.34 37.43 1043.24 37.43 1038.87 33.43 1058.99 33.43 1055.34 37.43"/><rect class="cls-22" x="1095.1" y="25.97" width="0" height="91.75" transform="translate(-1.71 109.38) rotate(-5.71)"/><polygon class="cls-8" points="1090.53 26.2 1099.67 117.5 1095.25 113.5 1086.91 30.2 1090.53 26.2"/><polygon class="cls-9" points="1078.45 26.2 1090.53 26.2 1086.91 30.2 1074.82 30.2 1078.45 26.2"/><polygon class="cls-31" points="1014.52 129.17 1005.09 15.03 1009.43 19.03 1018.2 125.17 1014.52 129.17"/><polygon class="cls-8" points="1077.36 15.02 1078.45 26.2 1074.82 30.2 1073.73 19.02 1077.36 15.02"/><polygon class="cls-9" points="1005.09 15.03 1077.36 15.02 1073.73 19.02 1009.43 19.03 1005.09 15.03"/><rect class="cls-27" x="1014.52" y="129.17" width="73.99" height="0"/><rect class="cls-27" x="1087.37" y="117.5" width="12.29" height="0"/><rect class="cls-27" x="1049.42" y="105.9" width="12.27" height="0" transform="translate(721.29 1112.72) rotate(-77.36)"/><rect class="cls-17" x="1058.51" y="37.29" width="0" height="68.76" transform="translate(-2.1 97.98) rotate(-5.29)"/><rect class="cls-27" x="1043.24" y="37.43" width="12.1" height="0"/><rect class="cls-22" x="1046.33" y="37.29" width="0" height="68.75" transform="translate(-2.21 94.25) rotate(-5.15)"/><rect class="cls-27" x="1078.45" y="26.2" width="12.08" height="0" transform="translate(820.03 1078.28) rotate(-77.27)"/><rect class="cls-17" x="1009.8" y="14.84" width="0" height="114.53" transform="translate(-2.51 83.4) rotate(-4.72)"/><rect class="cls-22" x="1077.91" y="15" width="0" height="11.23" transform="translate(3.09 104.68) rotate(-5.57)"/><rect class="cls-27" x="1041.22" y="-21.11" width="0" height="72.28" transform="translate(15.29 193.42) rotate(-10.69)"/><polygon class="cls-9" points="1084.1 125.16 1088.51 129.16 1014.52 129.17 1018.2 125.17 1084.1 125.16"/><polygon class="cls-30" points="1082.96 113.5 1087.37 117.5 1088.51 129.16 1084.1 125.16 1082.96 113.5"/><polygon class="cls-9" points="1095.25 113.5 1099.67 117.5 1087.37 117.5 1082.96 113.5 1095.25 113.5"/><polygon class="cls-14" points="1045.76 109.9 1049.42 105.9 1061.69 105.9 1066.07 109.9 1045.76 109.9"/><polygon class="cls-9" points="1058.99 33.43 1055.34 37.43 1043.24 37.43 1038.87 33.43 1058.99 33.43"/><polygon class="cls-8" points="1066.07 109.9 1061.69 105.9 1055.34 37.43 1058.99 33.43 1066.07 109.9"/><polygon class="cls-31" points="1038.87 33.43 1043.24 37.43 1049.42 105.9 1045.76 109.9 1038.87 33.43"/><polygon class="cls-14" points="1074.82 30.2 1078.45 26.2 1090.53 26.2 1086.91 30.2 1074.82 30.2"/><polygon class="cls-30" points="1086.91 30.2 1090.53 26.2 1099.67 117.5 1095.25 113.5 1086.91 30.2"/><polygon class="cls-8" points="1018.2 125.17 1014.52 129.17 1005.09 15.03 1009.43 19.03 1018.2 125.17"/><polygon class="cls-30" points="1073.73 19.02 1077.36 15.02 1078.45 26.2 1074.82 30.2 1073.73 19.02"/><polygon class="cls-14" points="1009.43 19.03 1005.09 15.03 1077.36 15.02 1073.73 19.02 1009.43 19.03"/></g><g class="cls-12"><polygon class="cls-14" points="1002.19 129.18 915.86 129.19 919.62 125.19 997.85 125.18 1002.19 129.18"/><polygon class="cls-9" points="951.22 105.92 963.5 105.92 967.81 109.92 947.49 109.92 951.22 105.92"/><polygon class="cls-31" points="963.5 105.92 958.53 37.45 962.25 33.45 967.81 109.92 963.5 105.92"/><polygon class="cls-14" points="958.53 37.45 946.42 37.45 942.13 33.45 962.25 33.45 958.53 37.45"/><polygon class="cls-8" points="946.42 37.45 951.22 105.92 947.49 109.92 942.13 33.45 946.42 37.45"/><polygon class="cls-28" points="915.86 129.19 908.71 15.05 912.97 19.05 919.62 125.19 915.86 129.19"/><polygon class="cls-8" points="993.04 15.04 1002.19 129.18 997.85 125.18 989.35 19.04 993.04 15.04"/><polygon class="cls-9" points="908.71 15.05 993.04 15.04 989.35 19.04 912.97 19.05 908.71 15.05"/><rect class="cls-27" x="915.86" y="129.18" width="86.33" height="0"/><rect class="cls-27" x="951.22" y="105.92" width="12.29" height="0" transform="translate(648.43 1018.24) rotate(-77.61)"/><rect class="cls-27" x="946.42" y="37.45" width="12.1" height="0"/><rect class="cls-22" x="948.82" y="37.37" width="0" height="68.64" transform="translate(-2.69 66.48) rotate(-4.01)"/><rect class="cls-17" x="961.02" y="37.36" width="0" height="68.65" transform="translate(-2.67 69.86) rotate(-4.16)"/><rect class="cls-17" x="912.29" y="14.94" width="0" height="114.36" transform="translate(-2.72 57.15) rotate(-3.58)"/><rect class="cls-22" x="997.61" y="14.86" width="0" height="114.5" transform="translate(-2.57 79.9) rotate(-4.58)"/><rect class="cls-27" x="950.88" y="-27.12" width="0" height="84.33" transform="translate(14.31 180.09) rotate(-10.9)"/><polygon class="cls-9" points="997.85 125.18 1002.19 129.18 915.86 129.19 919.62 125.19 997.85 125.18"/><polygon class="cls-14" points="947.49 109.92 951.22 105.92 963.5 105.92 967.81 109.92 947.49 109.92"/><polygon class="cls-9" points="962.25 33.45 958.53 37.45 946.42 37.45 942.13 33.45 962.25 33.45"/><polygon class="cls-8" points="967.81 109.92 963.5 105.92 958.53 37.45 962.25 33.45 967.81 109.92"/><polygon class="cls-31" points="942.13 33.45 946.42 37.45 951.22 105.92 947.49 109.92 942.13 33.45"/><polygon class="cls-26" points="919.62 125.19 915.86 129.19 908.71 15.05 912.97 19.05 919.62 125.19"/><polygon class="cls-14" points="912.97 19.05 908.71 15.05 993.04 15.04 989.35 19.04 912.97 19.05"/><polygon class="cls-31" points="989.35 19.04 993.04 15.04 1002.19 129.18 997.85 125.18 989.35 19.04"/></g><g class="cls-12"><polygon class="cls-14" points="903.53 129.2 817.22 129.21 821.05 125.21 899.28 125.2 903.53 129.2"/><polygon class="cls-9" points="853.05 105.94 865.32 105.94 869.53 109.94 849.24 109.94 853.05 105.94"/><polygon class="cls-28" points="865.32 105.94 861.71 37.47 865.51 33.47 869.53 109.94 865.32 105.94"/><polygon class="cls-14" points="861.71 37.47 849.61 37.47 845.4 33.47 865.51 33.47 861.71 37.47"/><polygon class="cls-26" points="849.61 37.47 853.05 105.94 849.24 109.94 845.4 33.47 849.61 37.47"/><polygon class="cls-28" points="817.22 129.21 812.35 15.07 816.52 19.07 821.05 125.21 817.22 129.21"/><polygon class="cls-26" points="896.67 15.06 903.53 129.2 899.28 125.2 892.9 19.06 896.67 15.06"/><polygon class="cls-9" points="812.35 15.07 896.67 15.06 892.9 19.06 816.52 19.07 812.35 15.07"/><rect class="cls-27" x="817.22" y="129.2" width="86.31" height="0"/><rect class="cls-27" x="853.05" y="105.94" width="12.27" height="0" transform="translate(574.66 923.54) rotate(-77.84)"/><rect class="cls-27" x="849.61" y="37.47" width="12.1" height="0"/><rect class="cls-22" x="851.33" y="37.43" width="0" height="68.56" transform="translate(-2.52 42.78) rotate(-2.87)"/><rect class="cls-17" x="863.51" y="37.42" width="0" height="68.57" transform="translate(-2.57 45.45) rotate(-3.01)"/><rect class="cls-36" x="814.78" y="15.02" width="0" height="114.24" transform="translate(-2.33 34.79) rotate(-2.44)"/><rect class="cls-22" x="900.1" y="14.96" width="0" height="114.34" transform="translate(-2.71 54.11) rotate(-3.44)"/><rect class="cls-27" x="854.51" y="-27.1" width="0" height="84.32" transform="translate(13.12 165) rotate(-11.11)"/><polygon class="cls-9" points="899.28 125.2 903.53 129.2 817.22 129.21 821.05 125.21 899.28 125.2"/><polygon class="cls-14" points="849.24 109.94 853.05 105.94 865.32 105.94 869.53 109.94 849.24 109.94"/><polygon class="cls-9" points="865.51 33.47 861.71 37.47 849.61 37.47 845.4 33.47 865.51 33.47"/><polygon class="cls-26" points="869.53 109.94 865.32 105.94 861.71 37.47 865.51 33.47 869.53 109.94"/><polygon class="cls-28" points="845.4 33.47 849.61 37.47 853.05 105.94 849.24 109.94 845.4 33.47"/><polygon class="cls-26" points="821.05 125.21 817.22 129.21 812.35 15.07 816.52 19.07 821.05 125.21"/><polygon class="cls-14" points="816.52 19.07 812.35 15.07 896.67 15.06 892.9 19.06 816.52 19.07"/><polygon class="cls-28" points="892.9 19.06 896.67 15.06 903.53 129.2 899.28 125.2 892.9 19.06"/></g><g class="cls-12"><polygon class="cls-14" points="755.56 129.21 718.56 129.22 722.47 125.22 751.44 125.22 755.56 129.21"/><polygon class="cls-26" points="754.16 82.92 755.56 129.21 751.44 125.22 750.04 78.92 754.16 82.92"/><polygon class="cls-14" points="803.02 82.91 754.16 82.92 750.04 78.92 798.85 78.91 803.02 82.91"/><polygon class="cls-9" points="753.47 60.1 802.11 60.09 798.26 64.1 749.59 64.1 753.47 60.1"/><polygon class="cls-26" points="802.11 60.09 803.02 82.91 798.85 78.91 798.26 64.1 802.11 60.09"/><polygon class="cls-26" points="752.8 37.49 753.47 60.1 749.59 64.1 748.68 33.49 752.8 37.49"/><polygon class="cls-14" points="801.2 37.48 752.8 37.49 748.68 33.49 797.03 33.48 801.2 37.48"/><polygon class="cls-7" points="718.56 129.22 715.99 15.09 720.08 19.09 722.47 125.22 718.56 129.22"/><polygon class="cls-9" points="715.99 15.09 800.3 15.08 796.46 19.08 720.08 19.09 715.99 15.09"/><polygon class="cls-26" points="800.3 15.08 801.2 37.48 797.03 33.48 796.46 19.08 800.3 15.08"/><rect class="cls-27" x="718.56" y="129.22" width="37" height="0"/><rect class="cls-22" x="754.86" y="82.91" width="0" height="46.32" transform="translate(-2.85 22.78) rotate(-1.73)"/><rect class="cls-27" x="754.16" y="82.91" width="48.85" height="0"/><rect class="cls-22" x="802.56" y="60.09" width="0" height="22.83" transform="translate(-2.21 31.99) rotate(-2.28)"/><rect class="cls-27" x="753.47" y="60.1" width="48.64" height="0" transform="translate(558.47 808.74) rotate(-78.09)"/><rect class="cls-22" x="753.13" y="37.48" width="0" height="22.63" transform="translate(-1.12 22.49) rotate(-1.71)"/><rect class="cls-27" x="752.8" y="37.48" width="48.4" height="0"/><rect class="cls-36" x="717.27" y="15.07" width="0" height="114.17" transform="translate(-1.44 16.19) rotate(-1.29)"/><rect class="cls-22" x="800.75" y="15.07" width="0" height="22.42" transform="translate(-.41 32.14) rotate(-2.3)"/><rect class="cls-27" x="758.14" y="-27.07" width="0" height="84.31" transform="translate(11.82 149.28) rotate(-11.33)"/><polygon class="cls-9" points="751.44 125.22 755.56 129.21 718.56 129.22 722.47 125.22 751.44 125.22"/><polygon class="cls-7" points="750.04 78.92 754.16 82.92 755.56 129.21 751.44 125.22 750.04 78.92"/><polygon class="cls-9" points="798.85 78.91 803.02 82.91 754.16 82.92 750.04 78.92 798.85 78.91"/><polygon class="cls-14" points="749.59 64.1 753.47 60.1 802.11 60.09 798.26 64.1 749.59 64.1"/><polygon class="cls-28" points="798.26 64.1 802.11 60.09 803.02 82.91 798.85 78.91 798.26 64.1"/><polygon class="cls-7" points="748.68 33.49 752.8 37.49 753.47 60.1 749.59 64.1 748.68 33.49"/><polygon class="cls-9" points="797.03 33.48 801.2 37.48 752.8 37.49 748.68 33.49 797.03 33.48"/><polygon class="cls-26" points="722.47 125.22 718.56 129.22 715.99 15.09 720.08 19.09 722.47 125.22"/><polygon class="cls-28" points="796.46 19.08 800.3 15.08 801.2 37.48 797.03 33.48 796.46 19.08"/><polygon class="cls-14" points="720.08 19.09 715.99 15.09 800.3 15.08 796.46 19.08 720.08 19.09"/></g><g class="cls-12"><polygon class="cls-14" points="644.58 129.23 570.59 129.25 574.62 125.25 640.55 125.23 644.58 129.23"/><polygon class="cls-14" points="656.78 117.58 644.49 117.58 640.46 113.58 652.74 113.58 656.78 117.58"/><polygon class="cls-26" points="644.49 117.58 644.58 129.23 640.55 125.23 640.46 113.58 644.49 117.58"/><polygon class="cls-9" points="607.58 105.99 619.85 105.99 623.86 109.99 603.58 109.99 607.58 105.99"/><polygon class="cls-26" points="607.57 37.51 607.58 105.99 603.58 109.99 603.57 33.51 607.57 37.51"/><polygon class="cls-2" points="619.85 105.99 619.68 37.51 623.67 33.51 623.86 109.99 619.85 105.99"/><polygon class="cls-14" points="619.68 37.51 607.57 37.51 603.57 33.51 623.67 33.51 619.68 37.51"/><polygon class="cls-26" points="655.87 26.28 656.78 117.58 652.74 113.58 651.91 30.28 655.87 26.28"/><polygon class="cls-9" points="643.8 26.28 655.87 26.28 651.91 30.28 639.83 30.28 643.8 26.28"/><polygon class="cls-2" points="570.59 129.25 571.44 15.11 575.41 19.11 574.62 125.25 570.59 129.25"/><polygon class="cls-26" points="643.71 15.1 643.8 26.28 639.83 30.28 639.74 19.1 643.71 15.1"/><polygon class="cls-9" points="571.44 15.11 643.71 15.1 639.74 19.1 575.41 19.11 571.44 15.11"/><rect class="cls-27" x="570.59" y="129.24" width="73.99" height="0"/><rect class="cls-22" x="644.54" y="117.58" width="0" height="11.66" transform="translate(-.93 4.96) rotate(-.44)"/><rect class="cls-27" x="644.49" y="117.58" width="12.29" height="0"/><rect class="cls-27" x="607.58" y="105.99" width="12.27" height="0" transform="translate(386.68 685.93) rotate(-78.42)"/><rect class="cls-23" x="619.76" y="37.51" width="0" height="68.47" transform="translate(-.18 1.55) rotate(-.14)"/><rect class="cls-27" x="607.57" y="37.51" width="12.11" height="0"/><rect class="cls-22" x="607.58" y="37.51" width="0" height="68.47"/><rect class="cls-22" x="656.33" y="26.28" width="0" height="91.3" transform="translate(-.69 6.6) rotate(-.58)"/><rect class="cls-27" x="643.8" y="26.28" width="12.07" height="0" transform="translate(492.65 657.36) rotate(-78.33)"/><rect class="cls-23" x="513.94" y="72.18" width="114.14" height="0" transform="translate(494.6 642.65) rotate(-89.58)"/><rect class="cls-22" x="643.75" y="15.1" width="0" height="11.18" transform="translate(-.15 5.17) rotate(-.46)"/><rect class="cls-27" x="607.57" y="-21.03" width="0" height="72.27" transform="translate(9.5 123.2) rotate(-11.67)"/><polygon class="cls-9" points="640.55 125.23 644.58 129.23 570.59 129.25 574.62 125.25 640.55 125.23"/><polygon class="cls-2" points="640.46 113.58 644.49 117.58 644.58 129.23 640.55 125.23 640.46 113.58"/><polygon class="cls-9" points="652.74 113.58 656.78 117.58 644.49 117.58 640.46 113.58 652.74 113.58"/><polygon class="cls-14" points="603.58 109.99 607.58 105.99 619.85 105.99 623.86 109.99 603.58 109.99"/><polygon class="cls-2" points="603.57 33.51 607.57 37.51 607.58 105.99 603.58 109.99 603.57 33.51"/><polygon class="cls-26" points="623.86 109.99 619.85 105.99 619.68 37.51 623.67 33.51 623.86 109.99"/><polygon class="cls-9" points="623.67 33.51 619.68 37.51 607.57 37.51 603.57 33.51 623.67 33.51"/><polygon class="cls-14" points="639.83 30.28 643.8 26.28 655.87 26.28 651.91 30.28 639.83 30.28"/><polygon class="cls-2" points="651.91 30.28 655.87 26.28 656.78 117.58 652.74 113.58 651.91 30.28"/><polygon class="cls-26" points="574.62 125.25 570.59 129.25 571.44 15.11 575.41 19.11 574.62 125.25"/><polygon class="cls-2" points="639.74 19.1 643.71 15.1 643.8 26.28 639.83 30.28 639.74 19.1"/><polygon class="cls-14" points="575.41 19.11 571.44 15.11 643.71 15.1 639.74 19.1 575.41 19.11"/></g><g class="cls-12"><polygon class="cls-14" points="558.27 129.25 471.94 129.27 476.05 125.27 554.31 125.25 558.27 129.25"/><polygon class="cls-9" points="509.4 106 558.5 105.99 554.46 110 505.32 110 509.4 106"/><polygon class="cls-26" points="558.5 105.99 558.27 129.25 554.31 125.25 554.46 110 558.5 105.99"/><polygon class="cls-26" points="509.86 82.96 509.4 106 505.32 110 505.94 78.96 509.86 82.96"/><polygon class="cls-14" points="558.72 82.96 509.86 82.96 505.94 78.96 554.76 78.96 558.72 82.96"/><polygon class="cls-9" points="510.31 60.14 558.95 60.13 554.91 64.13 506.23 64.14 510.31 60.14"/><polygon class="cls-26" points="558.95 60.13 558.72 82.96 554.76 78.96 554.91 64.13 558.95 60.13"/><polygon class="cls-26" points="510.76 37.53 510.31 60.14 506.23 64.14 506.84 33.53 510.76 37.53"/><polygon class="cls-14" points="559.17 37.52 510.76 37.53 506.84 33.53 555.21 33.52 559.17 37.52"/><polygon class="cls-21" points="471.94 129.27 475.07 15.13 478.97 19.13 476.05 125.27 471.94 129.27"/><polygon class="cls-9" points="475.07 15.13 559.4 15.11 555.36 19.11 478.97 19.13 475.07 15.13"/><polygon class="cls-26" points="559.4 15.11 559.17 37.52 555.21 33.52 555.36 19.11 559.4 15.11"/><rect class="cls-27" x="471.94" y="129.26" width="86.33" height="0"/><rect class="cls-22" x="546.76" y="117.62" width="23.26" height="0" transform="translate(435.36 674.84) rotate(-89.45)"/><rect class="cls-27" x="509.4" y="106" width="49.1" height="0" transform="translate(324.96 608.65) rotate(-78.65)"/><rect class="cls-22" x="498.11" y="94.48" width="23.04" height="0" transform="translate(405.01 602.13) rotate(-88.86)"/><rect class="cls-27" x="509.86" y="82.96" width="48.86" height="0"/><rect class="cls-22" x="547.42" y="71.54" width="22.83" height="0" transform="translate(481.78 629.64) rotate(-89.44)"/><rect class="cls-27" x="510.31" y="60.14" width="48.64" height="0" transform="translate(370.48 572.48) rotate(-78.65)"/><rect class="cls-22" x="499.23" y="48.84" width="22.61" height="0" transform="translate(451.55 558.3) rotate(-88.86)"/><rect class="cls-27" x="510.76" y="37.53" width="48.41" height="0"/><rect class="cls-23" x="416.42" y="72.2" width="114.18" height="0" transform="translate(388.35 543.55) rotate(-88.43)"/><rect class="cls-22" x="548.08" y="26.32" width="22.41" height="0" transform="translate(527.35 585.31) rotate(-89.42)"/><rect class="cls-27" x="517.24" y="-27.04" width="0" height="84.32" transform="translate(8 107.02) rotate(-11.9)"/><polygon class="cls-9" points="554.31 125.25 558.27 129.25 471.94 129.27 476.05 125.27 554.31 125.25"/><polygon class="cls-14" points="505.32 110 509.4 106 558.5 105.99 554.46 110 505.32 110"/><polygon class="cls-2" points="554.46 110 558.5 105.99 558.27 129.25 554.31 125.25 554.46 110"/><polygon class="cls-21" points="505.94 78.96 509.86 82.96 509.4 106 505.32 110 505.94 78.96"/><polygon class="cls-9" points="554.76 78.96 558.72 82.96 509.86 82.96 505.94 78.96 554.76 78.96"/><polygon class="cls-14" points="506.23 64.14 510.31 60.14 558.95 60.13 554.91 64.13 506.23 64.14"/><polygon class="cls-2" points="554.91 64.13 558.95 60.13 558.72 82.96 554.76 78.96 554.91 64.13"/><polygon class="cls-21" points="506.84 33.53 510.76 37.53 510.31 60.14 506.23 64.14 506.84 33.53"/><polygon class="cls-9" points="555.21 33.52 559.17 37.52 510.76 37.53 506.84 33.53 555.21 33.52"/><polygon class="cls-26" points="476.05 125.27 471.94 129.27 475.07 15.13 478.97 19.13 476.05 125.27"/><polygon class="cls-14" points="478.97 19.13 475.07 15.13 559.4 15.11 555.36 19.11 478.97 19.13"/><polygon class="cls-2" points="555.36 19.11 559.4 15.11 559.17 37.52 555.21 33.52 555.36 19.11"/></g><g class="cls-12"><polygon class="cls-14" points="459.62 129.27 373.3 129.29 377.5 125.29 455.74 125.27 459.62 129.27"/><polygon class="cls-13" points="373.3 129.29 374.4 106.02 378.22 110.02 377.5 125.29 373.3 129.29"/><polygon class="cls-9" points="374.4 106.02 423.5 106.01 427.35 110.01 378.22 110.02 374.4 106.02"/><polygon class="cls-21" points="423.5 106.01 424.36 82.97 428.51 78.97 427.35 110.01 423.5 106.01"/><polygon class="cls-14" points="424.36 82.97 375.5 82.98 379.69 78.98 428.51 78.97 424.36 82.97"/><polygon class="cls-9" points="413.05 60.16 461.68 60.15 457.56 64.15 408.88 64.16 413.05 60.16"/><polygon class="cls-26" points="461.68 60.15 459.62 129.27 455.74 125.27 457.56 64.15 461.68 60.15"/><polygon class="cls-26" points="413.96 37.55 413.05 60.16 408.88 64.16 410.11 33.55 413.96 37.55"/><polygon class="cls-14" points="462.36 37.54 413.96 37.55 410.11 33.55 458.48 33.54 462.36 37.54"/><polygon class="cls-13" points="375.5 82.98 378.71 15.15 382.53 19.15 379.69 78.98 375.5 82.98"/><polygon class="cls-9" points="378.71 15.15 463.03 15.13 458.91 19.13 382.53 19.15 378.71 15.15"/><polygon class="cls-26" points="463.03 15.13 462.36 37.54 458.48 33.54 458.91 19.13 463.03 15.13"/><rect class="cls-27" x="373.3" y="129.28" width="86.32" height="0"/><rect class="cls-38" x="362.21" y="117.65" width="23.29" height="0" transform="translate(238.7 485.54) rotate(-87.3)"/><rect class="cls-27" x="398.95" y="81.47" width="0" height="49.1" transform="translate(-13.37 86.22) rotate(-12.13)"/><rect class="cls-38" x="412.4" y="94.49" width="23.06" height="0" transform="translate(313.62 514.58) rotate(-87.85)"/><rect class="cls-27" x="375.5" y="82.98" width="48.86" height="0"/><rect class="cls-22" x="426.08" y="94.71" width="69.15" height="0" transform="translate(352.25 552.33) rotate(-88.29)"/><rect class="cls-27" x="413.05" y="60.15" width="48.64" height="0" transform="translate(293.96 477.69) rotate(-78.88)"/><rect class="cls-22" x="402.19" y="48.85" width="22.63" height="0" transform="translate(348.08 460.06) rotate(-87.7)"/><rect class="cls-27" x="413.96" y="37.55" width="48.4" height="0"/><rect class="cls-38" x="343.15" y="49.07" width="67.91" height="0" transform="translate(310.25 423.43) rotate(-87.29)"/><rect class="cls-22" x="451.49" y="26.34" width="22.42" height="0" transform="translate(422.44 488.03) rotate(-88.27)"/><rect class="cls-27" x="420.87" y="-27.02" width="0" height="84.32" transform="translate(6.22 88.82) rotate(-12.14)"/><polygon class="cls-9" points="455.74 125.27 459.62 129.27 373.3 129.29 377.5 125.29 455.74 125.27"/><polygon class="cls-40" points="377.5 125.29 373.3 129.29 374.4 106.02 378.22 110.02 377.5 125.29"/><polygon class="cls-14" points="378.22 110.02 374.4 106.02 423.5 106.01 427.35 110.01 378.22 110.02"/><polygon class="cls-9" points="428.51 78.97 424.36 82.97 375.5 82.98 379.69 78.98 428.51 78.97"/><polygon class="cls-26" points="427.35 110.01 423.5 106.01 424.36 82.97 428.51 78.97 427.35 110.01"/><polygon class="cls-14" points="408.88 64.16 413.05 60.16 461.68 60.15 457.56 64.15 408.88 64.16"/><polygon class="cls-21" points="457.56 64.15 461.68 60.15 459.62 129.27 455.74 125.27 457.56 64.15"/><polygon class="cls-13" points="410.11 33.55 413.96 37.55 413.05 60.16 408.88 64.16 410.11 33.55"/><polygon class="cls-9" points="458.48 33.54 462.36 37.54 413.96 37.55 410.11 33.55 458.48 33.54"/><polygon class="cls-40" points="379.69 78.98 375.5 82.98 378.71 15.15 382.53 19.15 379.69 78.98"/><polygon class="cls-14" points="382.53 19.15 378.71 15.15 463.03 15.13 458.91 19.13 382.53 19.15"/><polygon class="cls-21" points="458.91 19.13 463.03 15.13 462.36 37.54 458.48 33.54 458.91 19.13"/></g><g class="cls-12"><polygon class="cls-14" points="360.97 129.29 274.67 129.3 278.95 125.3 357.17 125.29 360.97 129.29"/><polygon class="cls-9" points="313.05 106.03 325.32 106.03 329.1 110.03 308.8 110.03 313.05 106.03"/><polygon class="cls-34" points="274.67 129.3 282.36 15.17 286.1 19.17 278.95 125.3 274.67 129.3"/><polygon class="cls-9" points="282.36 15.17 318.49 15.16 314.25 19.16 286.1 19.17 282.36 15.17"/><polygon class="cls-13" points="325.32 106.03 330.54 15.16 334.31 19.16 329.1 110.03 325.32 106.03"/><polygon class="cls-40" points="318.49 15.16 313.05 106.03 308.8 110.03 314.25 19.16 318.49 15.16"/><polygon class="cls-9" points="330.54 15.16 366.67 15.15 362.46 19.15 334.31 19.16 330.54 15.16"/><polygon class="cls-40" points="366.67 15.15 360.97 129.29 357.17 125.29 362.46 19.15 366.67 15.15"/><rect class="cls-27" x="274.67" y="129.3" width="86.3" height="0"/><rect class="cls-27" x="313.05" y="106.03" width="12.28" height="0" transform="translate(154.59 399.34) rotate(-79.08)"/><rect class="cls-38" x="221.32" y="72.24" width="114.4" height="0" transform="translate(187.73 345.27) rotate(-86.15)"/><rect class="cls-22" x="270.25" y="60.59" width="91.04" height="0" transform="translate(236.4 372.18) rotate(-86.57)"/><rect class="cls-27" x="300.43" y="-2.91" width="0" height="36.14" transform="translate(3.73 64.73) rotate(-12.37)"/><rect class="cls-38" x="282.42" y="60.59" width="91.02" height="0" transform="translate(248.66 384.52) rotate(-86.72)"/><rect class="cls-22" x="306.68" y="72.22" width="114.28" height="0" transform="translate(273.56 431.99) rotate(-87.14)"/><rect class="cls-27" x="348.6" y="-2.91" width="0" height="36.13" transform="translate(4.73 74.35) rotate(-12.26)"/><polygon class="cls-9" points="357.17 125.29 360.97 129.29 274.67 129.3 278.95 125.3 357.17 125.29"/><polygon class="cls-14" points="308.8 110.03 313.05 106.03 325.32 106.03 329.1 110.03 308.8 110.03"/><polygon class="cls-40" points="278.95 125.3 274.67 129.3 282.36 15.17 286.1 19.17 278.95 125.3"/><polygon class="cls-14" points="286.1 19.17 282.36 15.17 318.49 15.16 314.25 19.16 286.1 19.17"/><polygon class="cls-13" points="314.25 19.16 318.49 15.16 313.05 106.03 308.8 110.03 314.25 19.16"/><polygon class="cls-40" points="329.1 110.03 325.32 106.03 330.54 15.16 334.31 19.16 329.1 110.03"/><polygon class="cls-14" points="334.31 19.16 330.54 15.16 366.67 15.15 362.46 19.15 334.31 19.16"/><polygon class="cls-13" points="362.46 19.15 366.67 15.15 360.97 129.29 357.17 125.29 362.46 19.15"/></g><g class="cls-12"><polygon class="cls-14" points="213.01 129.31 176.02 129.31 180.39 125.31 209.32 125.31 213.01 129.31"/><polygon class="cls-40" points="216.71 83.01 213.01 129.31 209.32 125.31 213.02 79.01 216.71 83.01"/><polygon class="cls-14" points="265.56 83 216.71 83.01 213.02 79.01 261.83 79 265.56 83"/><polygon class="cls-9" points="218.54 60.19 267.17 60.18 262.87 64.19 214.21 64.19 218.54 60.19"/><polygon class="cls-40" points="267.17 60.18 265.56 83 261.83 79 262.87 64.19 267.17 60.18"/><polygon class="cls-40" points="220.35 37.59 218.54 60.19 214.21 64.19 216.66 33.59 220.35 37.59"/><polygon class="cls-14" points="268.74 37.58 220.35 37.59 216.66 33.59 265.01 33.58 268.74 37.58"/><polygon class="cls-3" points="176.02 129.31 186 15.18 189.67 19.18 180.39 125.31 176.02 129.31"/><polygon class="cls-9" points="186 15.18 270.31 15.17 266.02 19.17 189.67 19.18 186 15.18"/><polygon class="cls-40" points="270.31 15.17 268.74 37.58 265.01 33.58 266.02 19.17 270.31 15.17"/><rect class="cls-27" x="176.02" y="129.31" width="36.99" height="0"/><rect class="cls-22" x="191.64" y="106.16" width="46.45" height="0" transform="translate(91.93 311.89) rotate(-85.43)"/><rect class="cls-27" x="216.71" y="83" width="48.85" height="0"/><rect class="cls-22" x="254.93" y="71.59" width="22.87" height="0" transform="translate(176.3 332.29) rotate(-85.98)"/><rect class="cls-27" x="218.54" y="60.19" width="48.63" height="0" transform="translate(138.62 287.64) rotate(-79.3)"/><rect class="cls-22" x="208.1" y="48.89" width="22.68" height="0" transform="translate(153.2 263.73) rotate(-85.42)"/><rect class="cls-27" x="220.35" y="37.58" width="48.39" height="0"/><rect class="cls-15" x="123.73" y="72.25" width="114.57" height="0" transform="translate(93.27 246.28) rotate(-85)"/><rect class="cls-22" x="258.29" y="26.37" width="22.46" height="0" transform="translate(224.43 293.4) rotate(-86)"/><rect class="cls-27" x="228.16" y="-26.98" width="0" height="84.3" transform="translate(2.19 50.2) rotate(-12.62)"/><polygon class="cls-9" points="209.32 125.31 213.01 129.31 176.02 129.31 180.39 125.31 209.32 125.31"/><polygon class="cls-34" points="213.02 79.01 216.71 83.01 213.01 129.31 209.32 125.31 213.02 79.01"/><polygon class="cls-9" points="261.83 79 265.56 83 216.71 83.01 213.02 79.01 261.83 79"/><polygon class="cls-14" points="214.21 64.19 218.54 60.19 267.17 60.18 262.87 64.19 214.21 64.19"/><polygon class="cls-34" points="262.87 64.19 267.17 60.18 265.56 83 261.83 79 262.87 64.19"/><polygon class="cls-34" points="216.66 33.59 220.35 37.59 218.54 60.19 214.21 64.19 216.66 33.59"/><polygon class="cls-9" points="265.01 33.58 268.74 37.58 220.35 37.59 216.66 33.59 265.01 33.58"/><polygon class="cls-40" points="180.39 125.31 176.02 129.31 186 15.18 189.67 19.18 180.39 125.31"/><polygon class="cls-14" points="189.67 19.18 186 15.18 270.31 15.17 266.02 19.17 189.67 19.18"/><polygon class="cls-34" points="266.02 19.17 270.31 15.17 268.74 37.58 265.01 33.58 266.02 19.17"/></g><g class="cls-12"><polygon class="cls-14" points="52.73 129.34 15.75 129.34 20.26 125.34 49.16 125.34 52.73 129.34"/><polygon class="cls-14" points="102.05 129.33 65.06 129.33 69.53 125.33 98.44 125.33 102.05 129.33"/><polygon class="cls-14" points="163.7 129.32 126.71 129.32 131.12 125.32 160.05 125.32 163.7 129.32"/><polygon class="cls-14" points="130.1 94.52 117.86 94.53 122.27 90.53 134.51 90.52 130.1 94.52"/><polygon class="cls-3" points="126.71 129.32 130.1 94.52 134.51 90.52 131.12 125.32 126.71 129.32"/><polygon class="cls-40" points="107.96 71.6 102.05 129.33 98.44 125.33 104.35 67.6 107.96 71.6"/><polygon class="cls-3" points="117.86 94.53 120.14 71.6 124.56 67.6 122.27 90.53 117.86 94.53"/><polygon class="cls-14" points="120.14 71.6 107.96 71.6 104.35 67.6 124.56 67.6 120.14 71.6"/><polygon class="cls-9" points="121.28 60.21 133.44 60.21 137.07 64.21 116.86 64.21 121.28 60.21"/><polygon class="cls-9" points="111.44 37.6 123.54 37.59 119.12 41.6 107.01 41.61 111.44 37.6"/><polygon class="cls-40" points="123.54 37.59 121.28 60.21 116.86 64.21 119.12 41.6 123.54 37.59"/><polygon class="cls-20" points="15.75 129.34 29.43 15.21 32.98 19.21 20.26 125.34 15.75 129.34"/><polygon class="cls-40" points="65.56 15.2 52.73 129.34 49.16 125.34 61.08 19.2 65.56 15.2"/><polygon class="cls-9" points="29.43 15.21 65.56 15.2 61.08 19.2 32.98 19.21 29.43 15.21"/><polygon class="cls-3" points="65.06 129.33 77.6 15.2 81.18 19.2 69.53 125.33 65.06 129.33"/><polygon class="cls-3" points="133.44 60.21 137.83 15.19 141.46 19.19 137.07 64.21 133.44 60.21"/><polygon class="cls-40" points="113.73 15.19 111.44 37.6 107.01 41.61 109.3 19.19 113.73 15.19"/><polygon class="cls-9" points="77.6 15.2 113.73 15.19 109.3 19.19 81.18 19.2 77.6 15.2"/><polygon class="cls-40" points="173.96 15.18 163.7 129.32 160.05 125.32 169.59 19.19 173.96 15.18"/><polygon class="cls-9" points="137.83 15.19 173.96 15.18 169.59 19.19 141.46 19.19 137.83 15.19"/><rect class="cls-27" x="15.75" y="129.34" width="36.98" height="0"/><rect class="cls-27" x="65.06" y="129.33" width="36.99" height="0"/><rect class="cls-27" x="126.71" y="129.32" width="36.99" height="0"/><rect class="cls-27" x="117.86" y="94.52" width="12.25" height="0"/><rect class="cls-15" x="110.92" y="111.92" width="34.97" height="0" transform="translate(4.56 228.87) rotate(-84.43)"/><rect class="cls-27" x="107.96" y="71.6" width="12.18" height="0"/><rect class="cls-15" x="107.48" y="83.06" width="23.05" height="0" transform="translate(24.54 193.24) rotate(-84.31)"/><rect class="cls-22" x="75.99" y="100.46" width="58.04" height="0" transform="translate(-5.63 194.69) rotate(-84.15)"/><rect class="cls-27" x="121.28" y="60.21" width="12.17" height="0" transform="translate(44.94 174.46) rotate(-79.49)"/><rect class="cls-22" x="111.04" y="48.9" width="22.73" height="0" transform="translate(61.58 165.84) rotate(-84.29)"/><rect class="cls-27" x="111.44" y="37.6" width="12.1" height="0" transform="translate(59.23 146.33) rotate(-79.56)"/><rect class="cls-15" x="-34.88" y="72.28" width="114.95" height="0" transform="translate(-51.86 86.1) rotate(-83.16)"/><rect class="cls-15" x="13.92" y="72.27" width="114.82" height="0" transform="translate(-8.29 135.28) rotate(-83.73)"/><rect class="cls-22" x="1.72" y="72.27" width="114.86" height="0" transform="translate(-19.28 122.98) rotate(-83.59)"/><rect class="cls-27" x="47.49" y="-2.86" width="0" height="36.13" transform="translate(-2.2 11.09) rotate(-13.02)"/><rect class="cls-22" x="101.32" y="26.4" width="22.53" height="0" transform="translate(74.85 135.71) rotate(-84.15)"/><rect class="cls-27" x="95.67" y="-2.87" width="0" height="36.14" transform="translate(-.98 21.73) rotate(-12.89)"/><rect class="cls-15" x="113.02" y="37.7" width="45.23" height="0" transform="translate(84.97 169.05) rotate(-84.44)"/><rect class="cls-22" x="111.53" y="72.25" width="114.6" height="0" transform="translate(81.75 233.94) rotate(-84.86)"/><rect class="cls-27" x="155.89" y="-2.88" width="0" height="36.13" transform="translate(.49 34.75) rotate(-12.74)"/><polygon class="cls-9" points="49.16 125.34 52.73 129.34 15.75 129.34 20.26 125.34 49.16 125.34"/><polygon class="cls-9" points="98.44 125.33 102.05 129.33 65.06 129.33 69.53 125.33 98.44 125.33"/><polygon class="cls-9" points="160.05 125.32 163.7 129.32 126.71 129.32 131.12 125.32 160.05 125.32"/><polygon class="cls-40" points="131.12 125.32 126.71 129.32 130.1 94.52 134.51 90.52 131.12 125.32"/><polygon class="cls-9" points="134.51 90.52 130.1 94.52 117.86 94.53 122.27 90.53 134.51 90.52"/><polygon class="cls-40" points="122.27 90.53 117.86 94.53 120.14 71.6 124.56 67.6 122.27 90.53"/><polygon class="cls-9" points="124.56 67.6 120.14 71.6 107.96 71.6 104.35 67.6 124.56 67.6"/><polygon class="cls-3" points="104.35 67.6 107.96 71.6 102.05 129.33 98.44 125.33 104.35 67.6"/><polygon class="cls-14" points="116.86 64.21 121.28 60.21 133.44 60.21 137.07 64.21 116.86 64.21"/><polygon class="cls-3" points="119.12 41.6 123.54 37.59 121.28 60.21 116.86 64.21 119.12 41.6"/><polygon class="cls-14" points="107.01 41.61 111.44 37.6 123.54 37.59 119.12 41.6 107.01 41.61"/><polygon class="cls-40" points="20.26 125.34 15.75 129.34 29.43 15.21 32.98 19.21 20.26 125.34"/><polygon class="cls-20" points="61.08 19.2 65.56 15.2 52.73 129.34 49.16 125.34 61.08 19.2"/><polygon class="cls-14" points="32.98 19.21 29.43 15.21 65.56 15.2 61.08 19.2 32.98 19.21"/><polygon class="cls-40" points="69.53 125.33 65.06 129.33 77.6 15.2 81.18 19.2 69.53 125.33"/><polygon class="cls-14" points="81.18 19.2 77.6 15.2 113.73 15.19 109.3 19.19 81.18 19.2"/><polygon class="cls-3" points="109.3 19.19 113.73 15.19 111.44 37.6 107.01 41.61 109.3 19.19"/><polygon class="cls-40" points="137.07 64.21 133.44 60.21 137.83 15.19 141.46 19.19 137.07 64.21"/><polygon class="cls-14" points="141.46 19.19 137.83 15.19 173.96 15.18 169.59 19.19 141.46 19.19"/><polygon class="cls-3" points="169.59 19.19 173.96 15.18 163.7 129.32 160.05 125.32 169.59 19.19"/></g></g></g></g></g></g></g></svg>