<svg id="Layer_1" data-name="Layer 1" xmlns="http://www.w3.org/2000/svg" xmlns:xlink="http://www.w3.org/1999/xlink" viewBox="0 0 1432.25 575.26"><defs><style>.cls-1{fill:url(#linear-gradient);}.cls-2{fill:url(#linear-gradient-2);}.cls-3{fill:url(#linear-gradient-3);}.cls-4{fill:url(#linear-gradient-4);}.cls-5{fill:url(#linear-gradient-5);}.cls-6{fill:url(#linear-gradient-6);}.cls-7{fill:url(#linear-gradient-7);}.cls-8{fill:url(#linear-gradient-8);}.cls-9{fill:url(#linear-gradient-9);}.cls-10{fill:url(#linear-gradient-10);}.cls-11{fill:url(#linear-gradient-11);}.cls-12{fill:url(#linear-gradient-12);}.cls-13{fill:url(#linear-gradient-13);}.cls-14{fill:url(#linear-gradient-14);}.cls-15{fill:url(#linear-gradient-15);}.cls-16{fill:url(#linear-gradient-16);}.cls-17{fill:url(#linear-gradient-17);}.cls-18{fill:url(#linear-gradient-18);}.cls-19{fill:url(#linear-gradient-19);}.cls-20{fill:url(#linear-gradient-20);}.cls-21{fill:url(#linear-gradient-21);}.cls-22{fill:url(#linear-gradient-22);}.cls-23{fill:url(#linear-gradient-23);}.cls-24{fill:url(#linear-gradient-24);}.cls-25{fill:url(#linear-gradient-25);}.cls-26{fill:url(#linear-gradient-26);}.cls-27{fill:url(#linear-gradient-27);}.cls-28{fill:url(#linear-gradient-28);}.cls-29{fill:url(#linear-gradient-29);}</style><linearGradient id="linear-gradient" x1="195.29" y1="224.29" x2="204.7" y2="220.68" gradientUnits="userSpaceOnUse"><stop offset="0" stop-color="#29d9d9"/><stop offset="0.09" stop-color="#2ad0d9"/><stop offset="0.23" stop-color="#2db6da"/><stop offset="0.41" stop-color="#318dda"/><stop offset="0.57" stop-color="#3564db"/><stop offset="1" stop-color="#7d00f2"/></linearGradient><linearGradient id="linear-gradient-2" x1="179.68" y1="210.7" x2="283.87" y2="170.7" xlink:href="#linear-gradient"/><linearGradient id="linear-gradient-3" x1="36.53" y1="322.73" x2="198.92" y2="82.32" xlink:href="#linear-gradient"/><linearGradient id="linear-gradient-4" x1="-10.52" y1="317.59" x2="209.09" y2="312.39" xlink:href="#linear-gradient"/><linearGradient id="linear-gradient-5" x1="479.29" y1="127.6" x2="428.74" y2="416.47" xlink:href="#linear-gradient"/><linearGradient id="linear-gradient-6" x1="725.92" y1="45.54" x2="415.38" y2="132.2" xlink:href="#linear-gradient"/><linearGradient id="linear-gradient-7" x1="770.73" y1="244.49" x2="1098.6" y2="118.63" xlink:href="#linear-gradient"/><linearGradient id="linear-gradient-8" x1="1030.9" y1="167" x2="763.69" y2="185.06" xlink:href="#linear-gradient"/><linearGradient id="linear-gradient-9" x1="1282.49" y1="93.66" x2="1294.69" y2="88.98" xlink:href="#linear-gradient"/><linearGradient id="linear-gradient-10" x1="1269.17" y1="270.11" x2="1286.62" y2="263.42" xlink:href="#linear-gradient"/><linearGradient id="linear-gradient-11" x1="1490.22" y1="331.98" x2="1200.14" y2="179.72" xlink:href="#linear-gradient"/><linearGradient id="linear-gradient-12" x1="1143.36" y1="-24.78" x2="1363.63" y2="264.69" xlink:href="#linear-gradient"/><linearGradient id="linear-gradient-13" x1="1436.64" y1="4.87" x2="1103.83" y2="381.61" xlink:href="#linear-gradient"/><linearGradient id="linear-gradient-14" x1="251.78" y1="385.07" x2="197.78" y2="513.34" xlink:href="#linear-gradient"/><linearGradient id="linear-gradient-15" x1="172.85" y1="540.4" x2="332.68" y2="479.04" xlink:href="#linear-gradient"/><linearGradient id="linear-gradient-16" x1="157.86" y1="544.57" x2="295.12" y2="552.22" xlink:href="#linear-gradient"/><linearGradient id="linear-gradient-17" x1="376.44" y1="513.72" x2="456.54" y2="482.97" xlink:href="#linear-gradient"/><linearGradient id="linear-gradient-18" x1="343.62" y1="444.21" x2="493.47" y2="386.69" xlink:href="#linear-gradient"/><linearGradient id="linear-gradient-19" x1="505.62" y1="497.87" x2="577.45" y2="470.3" xlink:href="#linear-gradient"/><linearGradient id="linear-gradient-20" x1="556.42" y1="536.4" x2="661.21" y2="580.06" xlink:href="#linear-gradient"/><linearGradient id="linear-gradient-21" x1="726.39" y1="510.7" x2="584.93" y2="461.8" xlink:href="#linear-gradient"/><linearGradient id="linear-gradient-22" x1="728.67" y1="352.46" x2="696.32" y2="573.51" xlink:href="#linear-gradient"/><linearGradient id="linear-gradient-23" x1="794.74" y1="593.41" x2="721.05" y2="392.13" xlink:href="#linear-gradient"/><linearGradient id="linear-gradient-24" x1="850.52" y1="497.87" x2="922.35" y2="470.3" xlink:href="#linear-gradient"/><linearGradient id="linear-gradient-25" x1="941.33" y1="518.3" x2="1106.16" y2="455.03" xlink:href="#linear-gradient"/><linearGradient id="linear-gradient-26" x1="1184.23" y1="436.73" x2="935.02" y2="515.13" xlink:href="#linear-gradient"/><linearGradient id="linear-gradient-27" x1="1220.22" y1="385.07" x2="1166.21" y2="513.34" xlink:href="#linear-gradient"/><linearGradient id="linear-gradient-28" x1="1141.28" y1="540.4" x2="1301.12" y2="479.04" xlink:href="#linear-gradient"/><linearGradient id="linear-gradient-29" x1="1126.29" y1="544.57" x2="1263.56" y2="552.22" xlink:href="#linear-gradient"/></defs><polygon class="cls-1" points="177.12 176.95 222.97 268.27 177.29 176.6 177.12 176.95"/><path class="cls-2" d="M177.29.3,133,89l44.17,88,.17-.35L223,268.27v0l26.22,52.62c10.83,20.19,37.92,34,65,34h40.38Z"/><polygon class="cls-3" points="177.12 176.95 132.95 88.97 39.4 276.08 129.52 276.08 177.12 176.95"/><path class="cls-4" d="M150.92,276.08H39.4L0,354.87H117.21A79,79,0,0,0,196,276.08Z"/><path class="cls-5" d="M419.06,138V276a79.09,79.09,0,0,0,78.87,78.86V138Z"/><path class="cls-6" d="M566.93,0H419.06a79.09,79.09,0,0,0,78.87,78.86h69a29.58,29.58,0,0,1,0,59.15h-69v78.86h70c58.17,0,107.45-49.29,107.45-108.44C675.36,48.8,626.57,0,566.93,0Z"/><path class="cls-7" d="M895.83,267.63a100.91,100.91,0,0,1-51.26-50.76h.61a94.44,94.44,0,0,1-.09-78.86h-.52a98.83,98.83,0,0,1,90.69-59.15h41.89A78.85,78.85,0,0,0,1053.06,0H935.26a176.79,176.79,0,0,0-39.92,4.44C850.48,14.79,812.53,41.9,787.4,78.86a177.44,177.44,0,0,0,147.86,276H974.2A79.09,79.09,0,0,0,1053.06,276H935.26A94.06,94.06,0,0,1,895.83,267.63Z"/><path class="cls-8" d="M845.18,216.87h60A79.09,79.09,0,0,0,984.05,138h-139a94.44,94.44,0,0,0,.09,78.86Z"/><polygon class="cls-9" points="1292.8 84.06 1284.37 98.58 1284.39 98.58 1292.8 84.06"/><polygon class="cls-10" points="1271.9 277.23 1283.89 256.54 1283.89 256.3 1271.9 277.23"/><path class="cls-11" d="M1337.4,164.16l-53.51,92.38v.25l.5-.49,35,61.11a78.43,78.43,0,0,0,67,37.46h45.84L1329.73,177.44Z"/><path class="cls-12" d="M1247.91,36.47A77.82,77.82,0,0,0,1181.38,0H1136l101.52,175.7,46.16-77.43Z"/><path class="cls-13" d="M1386.41,0a77.6,77.6,0,0,0-66,36.47L1292.8,84.06l-8.41,14.52h0l-64.15,110.57,64.15-110.57h-.48l-.18-.31-46.16,77.43,1,1.74L1136,354.87h45.35a79.26,79.26,0,0,0,67.52-37.46l23-40.18,12-20.93v.24l53.51-92.38L1432.25,0Z"/><path class="cls-14" d="M213.26,455.16a14.75,14.75,0,0,1,13.6-20.43h34.4a39.44,39.44,0,0,0,39.32-39.32H226.86a54.06,54.06,0,0,0,0,108.12h28.7C232.89,499,215.42,479.36,213.26,455.16Z"/><path class="cls-15" d="M261.26,464.21h-34.4a14.81,14.81,0,0,1-13.6-9c2.16,24.2,19.63,43.81,42.3,48.37h5.7a14.71,14.71,0,0,1,12.39,22.69c-2.95,24.28-23,43.5-48.2,46.11h35.81a54.06,54.06,0,0,0,0-108.12Z"/><path class="cls-16" d="M273.65,526.22a14.76,14.76,0,0,1-12.39,6.8H172.8a39.43,39.43,0,0,0,39.32,39.31h13.33C250.65,569.72,270.7,550.5,273.65,526.22Z"/><path class="cls-17" d="M398.93,572.33a39.34,39.34,0,0,0,39.22-39.22V435.06H398.93Z"/><path class="cls-18" d="M497,395.84H379.32a39.34,39.34,0,0,0-39.22,39.22H457.76A39.34,39.34,0,0,0,497,395.84Z"/><path class="cls-19" d="M561.15,446.84V435.06a39.34,39.34,0,0,0-39.22-39.22V533.11a39.34,39.34,0,0,0,39.22,39.22V446.84Z"/><rect class="cls-20" x="561.26" y="533.11" width="68.64" height="39.22"/><path class="cls-21" d="M629.78,435.06V572.33A39.34,39.34,0,0,0,669,533.11V395.84A39.34,39.34,0,0,0,629.78,435.06Z"/><path class="cls-22" d="M694.4,418.16v105a39.21,39.21,0,0,0,39.25-39.25V398.05A85.86,85.86,0,0,0,694.4,418.16Z"/><path class="cls-23" d="M826.63,434.85a87.9,87.9,0,0,0-73.35-39,86.1,86.1,0,0,0-19.63,2.21v41a50.84,50.84,0,0,1,19.63-3.93,49,49,0,0,1,49.06,48.82v.24A48.8,48.8,0,0,1,755,533H733.65c-21.09,0-39.25,17.67-39.25,39.25,0,0,60.35.25,61.09,0a82.14,82.14,0,0,0,17.41-2A87.89,87.89,0,0,0,826.63,533a85.69,85.69,0,0,0,15-48.82v-.24A89,89,0,0,0,826.63,434.85Z"/><path class="cls-24" d="M866.82,533.11V395.84A39.34,39.34,0,0,1,906,435.06V572.33A39.34,39.34,0,0,1,866.82,533.11Z"/><path class="cls-25" d="M977.94,504.25a49,49,0,1,1,93.11-30.51,88.39,88.39,0,0,0-66.6-72.83,88.27,88.27,0,1,0,40.25,171.88A88.39,88.39,0,0,1,977.94,504.25Z"/><path class="cls-26" d="M1023.88,398.77a88.79,88.79,0,0,0-19.43,2.14,88.39,88.39,0,0,1,66.6,72.83,49,49,0,0,1-93.11,30.51,88.39,88.39,0,0,0,66.76,68.54,88.26,88.26,0,0,0-20.82-174Z"/><path class="cls-27" d="M1181.7,455.16a14.73,14.73,0,0,1,13.59-20.43h34.41A39.43,39.43,0,0,0,1269,395.41h-73.72a54.06,54.06,0,1,0,0,108.12H1224C1201.32,499,1183.86,479.36,1181.7,455.16Z"/><path class="cls-28" d="M1229.7,464.21h-34.41a14.8,14.8,0,0,1-13.59-9c2.16,24.2,19.62,43.81,42.29,48.37h5.71a14.79,14.79,0,0,1,14.74,14.74,14.56,14.56,0,0,1-2.36,8c-2.95,24.28-23,43.5-48.19,46.11h35.81a54.06,54.06,0,0,0,0-108.12Z"/><path class="cls-29" d="M1242.08,526.22a14.74,14.74,0,0,1-12.38,6.8h-88.47a39.43,39.43,0,0,0,39.32,39.31h13.34C1219.09,569.72,1239.13,550.5,1242.08,526.22Z"/></svg>