<svg xmlns="http://www.w3.org/2000/svg" xmlns:xlink="http://www.w3.org/1999/xlink" viewBox="0 0 354.57 354.57"><defs><style>.cls-1{fill:url(#linear-gradient);}.cls-2{fill:url(#linear-gradient-2);}.cls-3{fill:url(#linear-gradient-3);}.cls-4{fill:url(#linear-gradient-4);}</style><linearGradient id="linear-gradient" x1="195.29" y1="223.99" x2="204.7" y2="220.38" gradientUnits="userSpaceOnUse"><stop offset="0" stop-color="#29d9d9"/><stop offset="0.09" stop-color="#2ad0d9"/><stop offset="0.23" stop-color="#2db6da"/><stop offset="0.41" stop-color="#318dda"/><stop offset="0.57" stop-color="#3564db"/><stop offset="1" stop-color="#7d00f2"/></linearGradient><linearGradient id="linear-gradient-2" x1="179.68" y1="210.39" x2="283.87" y2="170.4" xlink:href="#linear-gradient"/><linearGradient id="linear-gradient-3" x1="36.53" y1="322.43" x2="198.92" y2="82.02" xlink:href="#linear-gradient"/><linearGradient id="linear-gradient-4" x1="-10.52" y1="317.29" x2="209.09" y2="312.09" xlink:href="#linear-gradient"/></defs><g id="Layer_2" data-name="Layer 2"><g id="Layer_1-2" data-name="Layer 1"><polygon class="cls-1" points="177.12 176.65 222.97 267.97 177.29 176.3 177.12 176.65"/><path class="cls-2" d="M177.29,0,133,88.67l44.17,88,.17-.35L223,268v0l26.22,52.62c10.83,20.19,37.92,34,65,34h40.38Z"/><polygon class="cls-3" points="177.12 176.65 132.95 88.67 39.4 275.78 129.52 275.78 177.12 176.65"/><path class="cls-4" d="M150.92,275.78H39.4L0,354.57H117.21A79,79,0,0,0,196,275.78Z"/></g></g></svg>